G04 #@! TF.GenerationSoftware,KiCad,Pcbnew,5.1.0*
G04 #@! TF.CreationDate,2019-05-04T21:29:49+08:00*
G04 #@! TF.ProjectId,pcbtest,70636274-6573-4742-9e6b-696361645f70,rev?*
G04 #@! TF.SameCoordinates,Original*
G04 #@! TF.FileFunction,Legend,Top*
G04 #@! TF.FilePolarity,Positive*
%FSLAX46Y46*%
G04 Gerber Fmt 4.6, Leading zero omitted, Abs format (unit mm)*
G04 Created by KiCad (PCBNEW 5.1.0) date 2019-05-04 21:29:49*
%MOMM*%
%LPD*%
G04 APERTURE LIST*
%ADD10C,0.120000*%
%ADD11C,0.150000*%
G04 APERTURE END LIST*
D10*
X157674000Y-87690000D02*
X160334000Y-87690000D01*
X157674000Y-80010000D02*
X157674000Y-87690000D01*
X160334000Y-80010000D02*
X160334000Y-87690000D01*
X157674000Y-80010000D02*
X160334000Y-80010000D01*
X157674000Y-78740000D02*
X157674000Y-77410000D01*
X157674000Y-77410000D02*
X159004000Y-77410000D01*
X147006000Y-113090000D02*
X152206000Y-113090000D01*
X147006000Y-80010000D02*
X147006000Y-113090000D01*
X152206000Y-77410000D02*
X152206000Y-113090000D01*
X147006000Y-80010000D02*
X149606000Y-80010000D01*
X149606000Y-80010000D02*
X149606000Y-77410000D01*
X149606000Y-77410000D02*
X152206000Y-77410000D01*
X147006000Y-78740000D02*
X147006000Y-77410000D01*
X147006000Y-77410000D02*
X148336000Y-77410000D01*
X209610000Y-113344000D02*
X209610000Y-110684000D01*
X199390000Y-113344000D02*
X209610000Y-113344000D01*
X199390000Y-110684000D02*
X209610000Y-110684000D01*
X199390000Y-113344000D02*
X199390000Y-110684000D01*
X198120000Y-113344000D02*
X196790000Y-113344000D01*
X196790000Y-113344000D02*
X196790000Y-112014000D01*
D11*
X158670666Y-75862380D02*
X158670666Y-76576666D01*
X158623047Y-76719523D01*
X158527809Y-76814761D01*
X158384952Y-76862380D01*
X158289714Y-76862380D01*
X159670666Y-76862380D02*
X159099238Y-76862380D01*
X159384952Y-76862380D02*
X159384952Y-75862380D01*
X159289714Y-76005238D01*
X159194476Y-76100476D01*
X159099238Y-76148095D01*
X149272666Y-75862380D02*
X149272666Y-76576666D01*
X149225047Y-76719523D01*
X149129809Y-76814761D01*
X148986952Y-76862380D01*
X148891714Y-76862380D01*
X150177428Y-76195714D02*
X150177428Y-76862380D01*
X149939333Y-75814761D02*
X149701238Y-76529047D01*
X150320285Y-76529047D01*
X195242380Y-112347333D02*
X195956666Y-112347333D01*
X196099523Y-112394952D01*
X196194761Y-112490190D01*
X196242380Y-112633047D01*
X196242380Y-112728285D01*
X195242380Y-111394952D02*
X195242380Y-111871142D01*
X195718571Y-111918761D01*
X195670952Y-111871142D01*
X195623333Y-111775904D01*
X195623333Y-111537809D01*
X195670952Y-111442571D01*
X195718571Y-111394952D01*
X195813809Y-111347333D01*
X196051904Y-111347333D01*
X196147142Y-111394952D01*
X196194761Y-111442571D01*
X196242380Y-111537809D01*
X196242380Y-111775904D01*
X196194761Y-111871142D01*
X196147142Y-111918761D01*
M02*
