G04 #@! TF.GenerationSoftware,KiCad,Pcbnew,5.1.0*
G04 #@! TF.CreationDate,2019-05-04T21:29:49+08:00*
G04 #@! TF.ProjectId,pcbtest,70636274-6573-4742-9e6b-696361645f70,rev?*
G04 #@! TF.SameCoordinates,Original*
G04 #@! TF.FileFunction,Soldermask,Top*
G04 #@! TF.FilePolarity,Negative*
%FSLAX46Y46*%
G04 Gerber Fmt 4.6, Leading zero omitted, Abs format (unit mm)*
G04 Created by KiCad (PCBNEW 5.1.0) date 2019-05-04 21:29:49*
%MOMM*%
%LPD*%
G04 APERTURE LIST*
%ADD10C,0.100000*%
G04 APERTURE END LIST*
D10*
G36*
X208390443Y-111119519D02*
G01*
X208456627Y-111126037D01*
X208626466Y-111177557D01*
X208782991Y-111261222D01*
X208818729Y-111290552D01*
X208920186Y-111373814D01*
X209003448Y-111475271D01*
X209032778Y-111511009D01*
X209116443Y-111667534D01*
X209167963Y-111837373D01*
X209185359Y-112014000D01*
X209167963Y-112190627D01*
X209116443Y-112360466D01*
X209032778Y-112516991D01*
X209003448Y-112552729D01*
X208920186Y-112654186D01*
X208818729Y-112737448D01*
X208782991Y-112766778D01*
X208626466Y-112850443D01*
X208456627Y-112901963D01*
X208390442Y-112908482D01*
X208324260Y-112915000D01*
X208235740Y-112915000D01*
X208169558Y-112908482D01*
X208103373Y-112901963D01*
X207933534Y-112850443D01*
X207777009Y-112766778D01*
X207741271Y-112737448D01*
X207639814Y-112654186D01*
X207556552Y-112552729D01*
X207527222Y-112516991D01*
X207443557Y-112360466D01*
X207392037Y-112190627D01*
X207374641Y-112014000D01*
X207392037Y-111837373D01*
X207443557Y-111667534D01*
X207527222Y-111511009D01*
X207556552Y-111475271D01*
X207639814Y-111373814D01*
X207741271Y-111290552D01*
X207777009Y-111261222D01*
X207933534Y-111177557D01*
X208103373Y-111126037D01*
X208169557Y-111119519D01*
X208235740Y-111113000D01*
X208324260Y-111113000D01*
X208390443Y-111119519D01*
X208390443Y-111119519D01*
G37*
G36*
X203310443Y-111119519D02*
G01*
X203376627Y-111126037D01*
X203546466Y-111177557D01*
X203702991Y-111261222D01*
X203738729Y-111290552D01*
X203840186Y-111373814D01*
X203923448Y-111475271D01*
X203952778Y-111511009D01*
X204036443Y-111667534D01*
X204087963Y-111837373D01*
X204105359Y-112014000D01*
X204087963Y-112190627D01*
X204036443Y-112360466D01*
X203952778Y-112516991D01*
X203923448Y-112552729D01*
X203840186Y-112654186D01*
X203738729Y-112737448D01*
X203702991Y-112766778D01*
X203546466Y-112850443D01*
X203376627Y-112901963D01*
X203310442Y-112908482D01*
X203244260Y-112915000D01*
X203155740Y-112915000D01*
X203089558Y-112908482D01*
X203023373Y-112901963D01*
X202853534Y-112850443D01*
X202697009Y-112766778D01*
X202661271Y-112737448D01*
X202559814Y-112654186D01*
X202476552Y-112552729D01*
X202447222Y-112516991D01*
X202363557Y-112360466D01*
X202312037Y-112190627D01*
X202294641Y-112014000D01*
X202312037Y-111837373D01*
X202363557Y-111667534D01*
X202447222Y-111511009D01*
X202476552Y-111475271D01*
X202559814Y-111373814D01*
X202661271Y-111290552D01*
X202697009Y-111261222D01*
X202853534Y-111177557D01*
X203023373Y-111126037D01*
X203089557Y-111119519D01*
X203155740Y-111113000D01*
X203244260Y-111113000D01*
X203310443Y-111119519D01*
X203310443Y-111119519D01*
G37*
G36*
X205850443Y-111119519D02*
G01*
X205916627Y-111126037D01*
X206086466Y-111177557D01*
X206242991Y-111261222D01*
X206278729Y-111290552D01*
X206380186Y-111373814D01*
X206463448Y-111475271D01*
X206492778Y-111511009D01*
X206576443Y-111667534D01*
X206627963Y-111837373D01*
X206645359Y-112014000D01*
X206627963Y-112190627D01*
X206576443Y-112360466D01*
X206492778Y-112516991D01*
X206463448Y-112552729D01*
X206380186Y-112654186D01*
X206278729Y-112737448D01*
X206242991Y-112766778D01*
X206086466Y-112850443D01*
X205916627Y-112901963D01*
X205850442Y-112908482D01*
X205784260Y-112915000D01*
X205695740Y-112915000D01*
X205629558Y-112908482D01*
X205563373Y-112901963D01*
X205393534Y-112850443D01*
X205237009Y-112766778D01*
X205201271Y-112737448D01*
X205099814Y-112654186D01*
X205016552Y-112552729D01*
X204987222Y-112516991D01*
X204903557Y-112360466D01*
X204852037Y-112190627D01*
X204834641Y-112014000D01*
X204852037Y-111837373D01*
X204903557Y-111667534D01*
X204987222Y-111511009D01*
X205016552Y-111475271D01*
X205099814Y-111373814D01*
X205201271Y-111290552D01*
X205237009Y-111261222D01*
X205393534Y-111177557D01*
X205563373Y-111126037D01*
X205629557Y-111119519D01*
X205695740Y-111113000D01*
X205784260Y-111113000D01*
X205850443Y-111119519D01*
X205850443Y-111119519D01*
G37*
G36*
X200770443Y-111119519D02*
G01*
X200836627Y-111126037D01*
X201006466Y-111177557D01*
X201162991Y-111261222D01*
X201198729Y-111290552D01*
X201300186Y-111373814D01*
X201383448Y-111475271D01*
X201412778Y-111511009D01*
X201496443Y-111667534D01*
X201547963Y-111837373D01*
X201565359Y-112014000D01*
X201547963Y-112190627D01*
X201496443Y-112360466D01*
X201412778Y-112516991D01*
X201383448Y-112552729D01*
X201300186Y-112654186D01*
X201198729Y-112737448D01*
X201162991Y-112766778D01*
X201006466Y-112850443D01*
X200836627Y-112901963D01*
X200770442Y-112908482D01*
X200704260Y-112915000D01*
X200615740Y-112915000D01*
X200549558Y-112908482D01*
X200483373Y-112901963D01*
X200313534Y-112850443D01*
X200157009Y-112766778D01*
X200121271Y-112737448D01*
X200019814Y-112654186D01*
X199936552Y-112552729D01*
X199907222Y-112516991D01*
X199823557Y-112360466D01*
X199772037Y-112190627D01*
X199754641Y-112014000D01*
X199772037Y-111837373D01*
X199823557Y-111667534D01*
X199907222Y-111511009D01*
X199936552Y-111475271D01*
X200019814Y-111373814D01*
X200121271Y-111290552D01*
X200157009Y-111261222D01*
X200313534Y-111177557D01*
X200483373Y-111126037D01*
X200549557Y-111119519D01*
X200615740Y-111113000D01*
X200704260Y-111113000D01*
X200770443Y-111119519D01*
X200770443Y-111119519D01*
G37*
G36*
X199021000Y-112915000D02*
G01*
X197219000Y-112915000D01*
X197219000Y-111113000D01*
X199021000Y-111113000D01*
X199021000Y-112915000D01*
X199021000Y-112915000D01*
G37*
G36*
X177402443Y-111119519D02*
G01*
X177468627Y-111126037D01*
X177638466Y-111177557D01*
X177794991Y-111261222D01*
X177830729Y-111290552D01*
X177932186Y-111373814D01*
X178015448Y-111475271D01*
X178044778Y-111511009D01*
X178128443Y-111667534D01*
X178179963Y-111837373D01*
X178197359Y-112014000D01*
X178179963Y-112190627D01*
X178128443Y-112360466D01*
X178044778Y-112516991D01*
X178015448Y-112552729D01*
X177932186Y-112654186D01*
X177830729Y-112737448D01*
X177794991Y-112766778D01*
X177638466Y-112850443D01*
X177468627Y-112901963D01*
X177402442Y-112908482D01*
X177336260Y-112915000D01*
X177247740Y-112915000D01*
X177181558Y-112908482D01*
X177115373Y-112901963D01*
X176945534Y-112850443D01*
X176789009Y-112766778D01*
X176753271Y-112737448D01*
X176651814Y-112654186D01*
X176568552Y-112552729D01*
X176539222Y-112516991D01*
X176455557Y-112360466D01*
X176404037Y-112190627D01*
X176386641Y-112014000D01*
X176404037Y-111837373D01*
X176455557Y-111667534D01*
X176539222Y-111511009D01*
X176568552Y-111475271D01*
X176651814Y-111373814D01*
X176753271Y-111290552D01*
X176789009Y-111261222D01*
X176945534Y-111177557D01*
X177115373Y-111126037D01*
X177181557Y-111119519D01*
X177247740Y-111113000D01*
X177336260Y-111113000D01*
X177402443Y-111119519D01*
X177402443Y-111119519D01*
G37*
G36*
X179942443Y-111119519D02*
G01*
X180008627Y-111126037D01*
X180178466Y-111177557D01*
X180334991Y-111261222D01*
X180370729Y-111290552D01*
X180472186Y-111373814D01*
X180555448Y-111475271D01*
X180584778Y-111511009D01*
X180668443Y-111667534D01*
X180719963Y-111837373D01*
X180737359Y-112014000D01*
X180719963Y-112190627D01*
X180668443Y-112360466D01*
X180584778Y-112516991D01*
X180555448Y-112552729D01*
X180472186Y-112654186D01*
X180370729Y-112737448D01*
X180334991Y-112766778D01*
X180178466Y-112850443D01*
X180008627Y-112901963D01*
X179942442Y-112908482D01*
X179876260Y-112915000D01*
X179787740Y-112915000D01*
X179721558Y-112908482D01*
X179655373Y-112901963D01*
X179485534Y-112850443D01*
X179329009Y-112766778D01*
X179293271Y-112737448D01*
X179191814Y-112654186D01*
X179108552Y-112552729D01*
X179079222Y-112516991D01*
X178995557Y-112360466D01*
X178944037Y-112190627D01*
X178926641Y-112014000D01*
X178944037Y-111837373D01*
X178995557Y-111667534D01*
X179079222Y-111511009D01*
X179108552Y-111475271D01*
X179191814Y-111373814D01*
X179293271Y-111290552D01*
X179329009Y-111261222D01*
X179485534Y-111177557D01*
X179655373Y-111126037D01*
X179721557Y-111119519D01*
X179787740Y-111113000D01*
X179876260Y-111113000D01*
X179942443Y-111119519D01*
X179942443Y-111119519D01*
G37*
G36*
X183273000Y-112915000D02*
G01*
X181471000Y-112915000D01*
X181471000Y-111113000D01*
X183273000Y-111113000D01*
X183273000Y-112915000D01*
X183273000Y-112915000D01*
G37*
G36*
X174862443Y-111119519D02*
G01*
X174928627Y-111126037D01*
X175098466Y-111177557D01*
X175254991Y-111261222D01*
X175290729Y-111290552D01*
X175392186Y-111373814D01*
X175475448Y-111475271D01*
X175504778Y-111511009D01*
X175588443Y-111667534D01*
X175639963Y-111837373D01*
X175657359Y-112014000D01*
X175639963Y-112190627D01*
X175588443Y-112360466D01*
X175504778Y-112516991D01*
X175475448Y-112552729D01*
X175392186Y-112654186D01*
X175290729Y-112737448D01*
X175254991Y-112766778D01*
X175098466Y-112850443D01*
X174928627Y-112901963D01*
X174862442Y-112908482D01*
X174796260Y-112915000D01*
X174707740Y-112915000D01*
X174641558Y-112908482D01*
X174575373Y-112901963D01*
X174405534Y-112850443D01*
X174249009Y-112766778D01*
X174213271Y-112737448D01*
X174111814Y-112654186D01*
X174028552Y-112552729D01*
X173999222Y-112516991D01*
X173915557Y-112360466D01*
X173864037Y-112190627D01*
X173846641Y-112014000D01*
X173864037Y-111837373D01*
X173915557Y-111667534D01*
X173999222Y-111511009D01*
X174028552Y-111475271D01*
X174111814Y-111373814D01*
X174213271Y-111290552D01*
X174249009Y-111261222D01*
X174405534Y-111177557D01*
X174575373Y-111126037D01*
X174641557Y-111119519D01*
X174707740Y-111113000D01*
X174796260Y-111113000D01*
X174862443Y-111119519D01*
X174862443Y-111119519D01*
G37*
G36*
X150986442Y-110865518D02*
G01*
X151052627Y-110872037D01*
X151222466Y-110923557D01*
X151378991Y-111007222D01*
X151414729Y-111036552D01*
X151516186Y-111119814D01*
X151599448Y-111221271D01*
X151628778Y-111257009D01*
X151712443Y-111413534D01*
X151763963Y-111583373D01*
X151781359Y-111760000D01*
X151763963Y-111936627D01*
X151712443Y-112106466D01*
X151628778Y-112262991D01*
X151599448Y-112298729D01*
X151516186Y-112400186D01*
X151414729Y-112483448D01*
X151378991Y-112512778D01*
X151222466Y-112596443D01*
X151052627Y-112647963D01*
X150989453Y-112654185D01*
X150920260Y-112661000D01*
X150831740Y-112661000D01*
X150762547Y-112654185D01*
X150699373Y-112647963D01*
X150529534Y-112596443D01*
X150373009Y-112512778D01*
X150337271Y-112483448D01*
X150235814Y-112400186D01*
X150152552Y-112298729D01*
X150123222Y-112262991D01*
X150039557Y-112106466D01*
X149988037Y-111936627D01*
X149970641Y-111760000D01*
X149988037Y-111583373D01*
X150039557Y-111413534D01*
X150123222Y-111257009D01*
X150152552Y-111221271D01*
X150235814Y-111119814D01*
X150337271Y-111036552D01*
X150373009Y-111007222D01*
X150529534Y-110923557D01*
X150699373Y-110872037D01*
X150765558Y-110865518D01*
X150831740Y-110859000D01*
X150920260Y-110859000D01*
X150986442Y-110865518D01*
X150986442Y-110865518D01*
G37*
G36*
X148446442Y-110865518D02*
G01*
X148512627Y-110872037D01*
X148682466Y-110923557D01*
X148838991Y-111007222D01*
X148874729Y-111036552D01*
X148976186Y-111119814D01*
X149059448Y-111221271D01*
X149088778Y-111257009D01*
X149172443Y-111413534D01*
X149223963Y-111583373D01*
X149241359Y-111760000D01*
X149223963Y-111936627D01*
X149172443Y-112106466D01*
X149088778Y-112262991D01*
X149059448Y-112298729D01*
X148976186Y-112400186D01*
X148874729Y-112483448D01*
X148838991Y-112512778D01*
X148682466Y-112596443D01*
X148512627Y-112647963D01*
X148449453Y-112654185D01*
X148380260Y-112661000D01*
X148291740Y-112661000D01*
X148222547Y-112654185D01*
X148159373Y-112647963D01*
X147989534Y-112596443D01*
X147833009Y-112512778D01*
X147797271Y-112483448D01*
X147695814Y-112400186D01*
X147612552Y-112298729D01*
X147583222Y-112262991D01*
X147499557Y-112106466D01*
X147448037Y-111936627D01*
X147430641Y-111760000D01*
X147448037Y-111583373D01*
X147499557Y-111413534D01*
X147583222Y-111257009D01*
X147612552Y-111221271D01*
X147695814Y-111119814D01*
X147797271Y-111036552D01*
X147833009Y-111007222D01*
X147989534Y-110923557D01*
X148159373Y-110872037D01*
X148225558Y-110865518D01*
X148291740Y-110859000D01*
X148380260Y-110859000D01*
X148446442Y-110865518D01*
X148446442Y-110865518D01*
G37*
G36*
X150986443Y-108325519D02*
G01*
X151052627Y-108332037D01*
X151222466Y-108383557D01*
X151378991Y-108467222D01*
X151414729Y-108496552D01*
X151516186Y-108579814D01*
X151599448Y-108681271D01*
X151628778Y-108717009D01*
X151712443Y-108873534D01*
X151763963Y-109043373D01*
X151781359Y-109220000D01*
X151763963Y-109396627D01*
X151712443Y-109566466D01*
X151628778Y-109722991D01*
X151599448Y-109758729D01*
X151516186Y-109860186D01*
X151414729Y-109943448D01*
X151378991Y-109972778D01*
X151222466Y-110056443D01*
X151052627Y-110107963D01*
X150986443Y-110114481D01*
X150920260Y-110121000D01*
X150831740Y-110121000D01*
X150765557Y-110114481D01*
X150699373Y-110107963D01*
X150529534Y-110056443D01*
X150373009Y-109972778D01*
X150337271Y-109943448D01*
X150235814Y-109860186D01*
X150152552Y-109758729D01*
X150123222Y-109722991D01*
X150039557Y-109566466D01*
X149988037Y-109396627D01*
X149970641Y-109220000D01*
X149988037Y-109043373D01*
X150039557Y-108873534D01*
X150123222Y-108717009D01*
X150152552Y-108681271D01*
X150235814Y-108579814D01*
X150337271Y-108496552D01*
X150373009Y-108467222D01*
X150529534Y-108383557D01*
X150699373Y-108332037D01*
X150765557Y-108325519D01*
X150831740Y-108319000D01*
X150920260Y-108319000D01*
X150986443Y-108325519D01*
X150986443Y-108325519D01*
G37*
G36*
X148446443Y-108325519D02*
G01*
X148512627Y-108332037D01*
X148682466Y-108383557D01*
X148838991Y-108467222D01*
X148874729Y-108496552D01*
X148976186Y-108579814D01*
X149059448Y-108681271D01*
X149088778Y-108717009D01*
X149172443Y-108873534D01*
X149223963Y-109043373D01*
X149241359Y-109220000D01*
X149223963Y-109396627D01*
X149172443Y-109566466D01*
X149088778Y-109722991D01*
X149059448Y-109758729D01*
X148976186Y-109860186D01*
X148874729Y-109943448D01*
X148838991Y-109972778D01*
X148682466Y-110056443D01*
X148512627Y-110107963D01*
X148446443Y-110114481D01*
X148380260Y-110121000D01*
X148291740Y-110121000D01*
X148225557Y-110114481D01*
X148159373Y-110107963D01*
X147989534Y-110056443D01*
X147833009Y-109972778D01*
X147797271Y-109943448D01*
X147695814Y-109860186D01*
X147612552Y-109758729D01*
X147583222Y-109722991D01*
X147499557Y-109566466D01*
X147448037Y-109396627D01*
X147430641Y-109220000D01*
X147448037Y-109043373D01*
X147499557Y-108873534D01*
X147583222Y-108717009D01*
X147612552Y-108681271D01*
X147695814Y-108579814D01*
X147797271Y-108496552D01*
X147833009Y-108467222D01*
X147989534Y-108383557D01*
X148159373Y-108332037D01*
X148225557Y-108325519D01*
X148291740Y-108319000D01*
X148380260Y-108319000D01*
X148446443Y-108325519D01*
X148446443Y-108325519D01*
G37*
G36*
X150986443Y-105785519D02*
G01*
X151052627Y-105792037D01*
X151222466Y-105843557D01*
X151378991Y-105927222D01*
X151414729Y-105956552D01*
X151516186Y-106039814D01*
X151599448Y-106141271D01*
X151628778Y-106177009D01*
X151712443Y-106333534D01*
X151763963Y-106503373D01*
X151781359Y-106680000D01*
X151763963Y-106856627D01*
X151712443Y-107026466D01*
X151628778Y-107182991D01*
X151599448Y-107218729D01*
X151516186Y-107320186D01*
X151414729Y-107403448D01*
X151378991Y-107432778D01*
X151222466Y-107516443D01*
X151052627Y-107567963D01*
X150986443Y-107574481D01*
X150920260Y-107581000D01*
X150831740Y-107581000D01*
X150765557Y-107574481D01*
X150699373Y-107567963D01*
X150529534Y-107516443D01*
X150373009Y-107432778D01*
X150337271Y-107403448D01*
X150235814Y-107320186D01*
X150152552Y-107218729D01*
X150123222Y-107182991D01*
X150039557Y-107026466D01*
X149988037Y-106856627D01*
X149970641Y-106680000D01*
X149988037Y-106503373D01*
X150039557Y-106333534D01*
X150123222Y-106177009D01*
X150152552Y-106141271D01*
X150235814Y-106039814D01*
X150337271Y-105956552D01*
X150373009Y-105927222D01*
X150529534Y-105843557D01*
X150699373Y-105792037D01*
X150765557Y-105785519D01*
X150831740Y-105779000D01*
X150920260Y-105779000D01*
X150986443Y-105785519D01*
X150986443Y-105785519D01*
G37*
G36*
X148446443Y-105785519D02*
G01*
X148512627Y-105792037D01*
X148682466Y-105843557D01*
X148838991Y-105927222D01*
X148874729Y-105956552D01*
X148976186Y-106039814D01*
X149059448Y-106141271D01*
X149088778Y-106177009D01*
X149172443Y-106333534D01*
X149223963Y-106503373D01*
X149241359Y-106680000D01*
X149223963Y-106856627D01*
X149172443Y-107026466D01*
X149088778Y-107182991D01*
X149059448Y-107218729D01*
X148976186Y-107320186D01*
X148874729Y-107403448D01*
X148838991Y-107432778D01*
X148682466Y-107516443D01*
X148512627Y-107567963D01*
X148446443Y-107574481D01*
X148380260Y-107581000D01*
X148291740Y-107581000D01*
X148225557Y-107574481D01*
X148159373Y-107567963D01*
X147989534Y-107516443D01*
X147833009Y-107432778D01*
X147797271Y-107403448D01*
X147695814Y-107320186D01*
X147612552Y-107218729D01*
X147583222Y-107182991D01*
X147499557Y-107026466D01*
X147448037Y-106856627D01*
X147430641Y-106680000D01*
X147448037Y-106503373D01*
X147499557Y-106333534D01*
X147583222Y-106177009D01*
X147612552Y-106141271D01*
X147695814Y-106039814D01*
X147797271Y-105956552D01*
X147833009Y-105927222D01*
X147989534Y-105843557D01*
X148159373Y-105792037D01*
X148225557Y-105785519D01*
X148291740Y-105779000D01*
X148380260Y-105779000D01*
X148446443Y-105785519D01*
X148446443Y-105785519D01*
G37*
G36*
X213321474Y-102808684D02*
G01*
X213539474Y-102898983D01*
X213693623Y-102962833D01*
X214028548Y-103186623D01*
X214313377Y-103471452D01*
X214537167Y-103806377D01*
X214569562Y-103884586D01*
X214691316Y-104178526D01*
X214769900Y-104573594D01*
X214769900Y-104976406D01*
X214691316Y-105371474D01*
X214640451Y-105494272D01*
X214537167Y-105743623D01*
X214313377Y-106078548D01*
X214028548Y-106363377D01*
X213693623Y-106587167D01*
X213539474Y-106651017D01*
X213321474Y-106741316D01*
X212926406Y-106819900D01*
X212523594Y-106819900D01*
X212128526Y-106741316D01*
X211910526Y-106651017D01*
X211756377Y-106587167D01*
X211421452Y-106363377D01*
X211136623Y-106078548D01*
X210912833Y-105743623D01*
X210809549Y-105494272D01*
X210758684Y-105371474D01*
X210680100Y-104976406D01*
X210680100Y-104573594D01*
X210758684Y-104178526D01*
X210880438Y-103884586D01*
X210912833Y-103806377D01*
X211136623Y-103471452D01*
X211421452Y-103186623D01*
X211756377Y-102962833D01*
X211910526Y-102898983D01*
X212128526Y-102808684D01*
X212523594Y-102730100D01*
X212926406Y-102730100D01*
X213321474Y-102808684D01*
X213321474Y-102808684D01*
G37*
G36*
X194271474Y-102808684D02*
G01*
X194489474Y-102898983D01*
X194643623Y-102962833D01*
X194978548Y-103186623D01*
X195263377Y-103471452D01*
X195487167Y-103806377D01*
X195519562Y-103884586D01*
X195641316Y-104178526D01*
X195719900Y-104573594D01*
X195719900Y-104976406D01*
X195641316Y-105371474D01*
X195590451Y-105494272D01*
X195487167Y-105743623D01*
X195263377Y-106078548D01*
X194978548Y-106363377D01*
X194643623Y-106587167D01*
X194489474Y-106651017D01*
X194271474Y-106741316D01*
X193876406Y-106819900D01*
X193473594Y-106819900D01*
X193078526Y-106741316D01*
X192860526Y-106651017D01*
X192706377Y-106587167D01*
X192371452Y-106363377D01*
X192086623Y-106078548D01*
X191862833Y-105743623D01*
X191759549Y-105494272D01*
X191708684Y-105371474D01*
X191630100Y-104976406D01*
X191630100Y-104573594D01*
X191708684Y-104178526D01*
X191830438Y-103884586D01*
X191862833Y-103806377D01*
X192086623Y-103471452D01*
X192371452Y-103186623D01*
X192706377Y-102962833D01*
X192860526Y-102898983D01*
X193078526Y-102808684D01*
X193473594Y-102730100D01*
X193876406Y-102730100D01*
X194271474Y-102808684D01*
X194271474Y-102808684D01*
G37*
G36*
X199025104Y-103884585D02*
G01*
X199193626Y-103954389D01*
X199345291Y-104055728D01*
X199474272Y-104184709D01*
X199575611Y-104336374D01*
X199645415Y-104504896D01*
X199681000Y-104683797D01*
X199681000Y-104866203D01*
X199645415Y-105045104D01*
X199575611Y-105213626D01*
X199474272Y-105365291D01*
X199345291Y-105494272D01*
X199193626Y-105595611D01*
X199025104Y-105665415D01*
X198846203Y-105701000D01*
X198663797Y-105701000D01*
X198484896Y-105665415D01*
X198316374Y-105595611D01*
X198164709Y-105494272D01*
X198035728Y-105365291D01*
X197934389Y-105213626D01*
X197864585Y-105045104D01*
X197829000Y-104866203D01*
X197829000Y-104683797D01*
X197864585Y-104504896D01*
X197934389Y-104336374D01*
X198035728Y-104184709D01*
X198164709Y-104055728D01*
X198316374Y-103954389D01*
X198484896Y-103884585D01*
X198663797Y-103849000D01*
X198846203Y-103849000D01*
X199025104Y-103884585D01*
X199025104Y-103884585D01*
G37*
G36*
X207915104Y-103884585D02*
G01*
X208083626Y-103954389D01*
X208235291Y-104055728D01*
X208364272Y-104184709D01*
X208465611Y-104336374D01*
X208535415Y-104504896D01*
X208571000Y-104683797D01*
X208571000Y-104866203D01*
X208535415Y-105045104D01*
X208465611Y-105213626D01*
X208364272Y-105365291D01*
X208235291Y-105494272D01*
X208083626Y-105595611D01*
X207915104Y-105665415D01*
X207736203Y-105701000D01*
X207553797Y-105701000D01*
X207374896Y-105665415D01*
X207206374Y-105595611D01*
X207054709Y-105494272D01*
X206925728Y-105365291D01*
X206824389Y-105213626D01*
X206754585Y-105045104D01*
X206719000Y-104866203D01*
X206719000Y-104683797D01*
X206754585Y-104504896D01*
X206824389Y-104336374D01*
X206925728Y-104184709D01*
X207054709Y-104055728D01*
X207206374Y-103954389D01*
X207374896Y-103884585D01*
X207553797Y-103849000D01*
X207736203Y-103849000D01*
X207915104Y-103884585D01*
X207915104Y-103884585D01*
G37*
G36*
X218075104Y-103884585D02*
G01*
X218243626Y-103954389D01*
X218395291Y-104055728D01*
X218524272Y-104184709D01*
X218625611Y-104336374D01*
X218695415Y-104504896D01*
X218731000Y-104683797D01*
X218731000Y-104866203D01*
X218695415Y-105045104D01*
X218625611Y-105213626D01*
X218524272Y-105365291D01*
X218395291Y-105494272D01*
X218243626Y-105595611D01*
X218075104Y-105665415D01*
X217896203Y-105701000D01*
X217713797Y-105701000D01*
X217534896Y-105665415D01*
X217366374Y-105595611D01*
X217214709Y-105494272D01*
X217085728Y-105365291D01*
X216984389Y-105213626D01*
X216914585Y-105045104D01*
X216879000Y-104866203D01*
X216879000Y-104683797D01*
X216914585Y-104504896D01*
X216984389Y-104336374D01*
X217085728Y-104184709D01*
X217214709Y-104055728D01*
X217366374Y-103954389D01*
X217534896Y-103884585D01*
X217713797Y-103849000D01*
X217896203Y-103849000D01*
X218075104Y-103884585D01*
X218075104Y-103884585D01*
G37*
G36*
X188865104Y-103884585D02*
G01*
X189033626Y-103954389D01*
X189185291Y-104055728D01*
X189314272Y-104184709D01*
X189415611Y-104336374D01*
X189485415Y-104504896D01*
X189521000Y-104683797D01*
X189521000Y-104866203D01*
X189485415Y-105045104D01*
X189415611Y-105213626D01*
X189314272Y-105365291D01*
X189185291Y-105494272D01*
X189033626Y-105595611D01*
X188865104Y-105665415D01*
X188686203Y-105701000D01*
X188503797Y-105701000D01*
X188324896Y-105665415D01*
X188156374Y-105595611D01*
X188004709Y-105494272D01*
X187875728Y-105365291D01*
X187774389Y-105213626D01*
X187704585Y-105045104D01*
X187669000Y-104866203D01*
X187669000Y-104683797D01*
X187704585Y-104504896D01*
X187774389Y-104336374D01*
X187875728Y-104184709D01*
X188004709Y-104055728D01*
X188156374Y-103954389D01*
X188324896Y-103884585D01*
X188503797Y-103849000D01*
X188686203Y-103849000D01*
X188865104Y-103884585D01*
X188865104Y-103884585D01*
G37*
G36*
X148446443Y-103245519D02*
G01*
X148512627Y-103252037D01*
X148682466Y-103303557D01*
X148838991Y-103387222D01*
X148874729Y-103416552D01*
X148976186Y-103499814D01*
X149059448Y-103601271D01*
X149088778Y-103637009D01*
X149172443Y-103793534D01*
X149223963Y-103963373D01*
X149241359Y-104140000D01*
X149223963Y-104316627D01*
X149172443Y-104486466D01*
X149088778Y-104642991D01*
X149059448Y-104678729D01*
X148976186Y-104780186D01*
X148874729Y-104863448D01*
X148838991Y-104892778D01*
X148682466Y-104976443D01*
X148512627Y-105027963D01*
X148446442Y-105034482D01*
X148380260Y-105041000D01*
X148291740Y-105041000D01*
X148225557Y-105034481D01*
X148159373Y-105027963D01*
X147989534Y-104976443D01*
X147833009Y-104892778D01*
X147797271Y-104863448D01*
X147695814Y-104780186D01*
X147612552Y-104678729D01*
X147583222Y-104642991D01*
X147499557Y-104486466D01*
X147448037Y-104316627D01*
X147430641Y-104140000D01*
X147448037Y-103963373D01*
X147499557Y-103793534D01*
X147583222Y-103637009D01*
X147612552Y-103601271D01*
X147695814Y-103499814D01*
X147797271Y-103416552D01*
X147833009Y-103387222D01*
X147989534Y-103303557D01*
X148159373Y-103252037D01*
X148225558Y-103245518D01*
X148291740Y-103239000D01*
X148380260Y-103239000D01*
X148446443Y-103245519D01*
X148446443Y-103245519D01*
G37*
G36*
X150986443Y-103245519D02*
G01*
X151052627Y-103252037D01*
X151222466Y-103303557D01*
X151378991Y-103387222D01*
X151414729Y-103416552D01*
X151516186Y-103499814D01*
X151599448Y-103601271D01*
X151628778Y-103637009D01*
X151712443Y-103793534D01*
X151763963Y-103963373D01*
X151781359Y-104140000D01*
X151763963Y-104316627D01*
X151712443Y-104486466D01*
X151628778Y-104642991D01*
X151599448Y-104678729D01*
X151516186Y-104780186D01*
X151414729Y-104863448D01*
X151378991Y-104892778D01*
X151222466Y-104976443D01*
X151052627Y-105027963D01*
X150986442Y-105034482D01*
X150920260Y-105041000D01*
X150831740Y-105041000D01*
X150765557Y-105034481D01*
X150699373Y-105027963D01*
X150529534Y-104976443D01*
X150373009Y-104892778D01*
X150337271Y-104863448D01*
X150235814Y-104780186D01*
X150152552Y-104678729D01*
X150123222Y-104642991D01*
X150039557Y-104486466D01*
X149988037Y-104316627D01*
X149970641Y-104140000D01*
X149988037Y-103963373D01*
X150039557Y-103793534D01*
X150123222Y-103637009D01*
X150152552Y-103601271D01*
X150235814Y-103499814D01*
X150337271Y-103416552D01*
X150373009Y-103387222D01*
X150529534Y-103303557D01*
X150699373Y-103252037D01*
X150765558Y-103245518D01*
X150831740Y-103239000D01*
X150920260Y-103239000D01*
X150986443Y-103245519D01*
X150986443Y-103245519D01*
G37*
G36*
X148446443Y-100705519D02*
G01*
X148512627Y-100712037D01*
X148682466Y-100763557D01*
X148838991Y-100847222D01*
X148874729Y-100876552D01*
X148976186Y-100959814D01*
X149059448Y-101061271D01*
X149088778Y-101097009D01*
X149172443Y-101253534D01*
X149223963Y-101423373D01*
X149241359Y-101600000D01*
X149223963Y-101776627D01*
X149172443Y-101946466D01*
X149088778Y-102102991D01*
X149059448Y-102138729D01*
X148976186Y-102240186D01*
X148874729Y-102323448D01*
X148838991Y-102352778D01*
X148682466Y-102436443D01*
X148512627Y-102487963D01*
X148446442Y-102494482D01*
X148380260Y-102501000D01*
X148291740Y-102501000D01*
X148225558Y-102494482D01*
X148159373Y-102487963D01*
X147989534Y-102436443D01*
X147833009Y-102352778D01*
X147797271Y-102323448D01*
X147695814Y-102240186D01*
X147612552Y-102138729D01*
X147583222Y-102102991D01*
X147499557Y-101946466D01*
X147448037Y-101776627D01*
X147430641Y-101600000D01*
X147448037Y-101423373D01*
X147499557Y-101253534D01*
X147583222Y-101097009D01*
X147612552Y-101061271D01*
X147695814Y-100959814D01*
X147797271Y-100876552D01*
X147833009Y-100847222D01*
X147989534Y-100763557D01*
X148159373Y-100712037D01*
X148225557Y-100705519D01*
X148291740Y-100699000D01*
X148380260Y-100699000D01*
X148446443Y-100705519D01*
X148446443Y-100705519D01*
G37*
G36*
X150986443Y-100705519D02*
G01*
X151052627Y-100712037D01*
X151222466Y-100763557D01*
X151378991Y-100847222D01*
X151414729Y-100876552D01*
X151516186Y-100959814D01*
X151599448Y-101061271D01*
X151628778Y-101097009D01*
X151712443Y-101253534D01*
X151763963Y-101423373D01*
X151781359Y-101600000D01*
X151763963Y-101776627D01*
X151712443Y-101946466D01*
X151628778Y-102102991D01*
X151599448Y-102138729D01*
X151516186Y-102240186D01*
X151414729Y-102323448D01*
X151378991Y-102352778D01*
X151222466Y-102436443D01*
X151052627Y-102487963D01*
X150986442Y-102494482D01*
X150920260Y-102501000D01*
X150831740Y-102501000D01*
X150765558Y-102494482D01*
X150699373Y-102487963D01*
X150529534Y-102436443D01*
X150373009Y-102352778D01*
X150337271Y-102323448D01*
X150235814Y-102240186D01*
X150152552Y-102138729D01*
X150123222Y-102102991D01*
X150039557Y-101946466D01*
X149988037Y-101776627D01*
X149970641Y-101600000D01*
X149988037Y-101423373D01*
X150039557Y-101253534D01*
X150123222Y-101097009D01*
X150152552Y-101061271D01*
X150235814Y-100959814D01*
X150337271Y-100876552D01*
X150373009Y-100847222D01*
X150529534Y-100763557D01*
X150699373Y-100712037D01*
X150765557Y-100705519D01*
X150831740Y-100699000D01*
X150920260Y-100699000D01*
X150986443Y-100705519D01*
X150986443Y-100705519D01*
G37*
G36*
X150986443Y-98165519D02*
G01*
X151052627Y-98172037D01*
X151222466Y-98223557D01*
X151378991Y-98307222D01*
X151414729Y-98336552D01*
X151516186Y-98419814D01*
X151599448Y-98521271D01*
X151628778Y-98557009D01*
X151712443Y-98713534D01*
X151763963Y-98883373D01*
X151781359Y-99060000D01*
X151763963Y-99236627D01*
X151712443Y-99406466D01*
X151628778Y-99562991D01*
X151599448Y-99598729D01*
X151516186Y-99700186D01*
X151414729Y-99783448D01*
X151378991Y-99812778D01*
X151222466Y-99896443D01*
X151052627Y-99947963D01*
X150986443Y-99954481D01*
X150920260Y-99961000D01*
X150831740Y-99961000D01*
X150765557Y-99954481D01*
X150699373Y-99947963D01*
X150529534Y-99896443D01*
X150373009Y-99812778D01*
X150337271Y-99783448D01*
X150235814Y-99700186D01*
X150152552Y-99598729D01*
X150123222Y-99562991D01*
X150039557Y-99406466D01*
X149988037Y-99236627D01*
X149970641Y-99060000D01*
X149988037Y-98883373D01*
X150039557Y-98713534D01*
X150123222Y-98557009D01*
X150152552Y-98521271D01*
X150235814Y-98419814D01*
X150337271Y-98336552D01*
X150373009Y-98307222D01*
X150529534Y-98223557D01*
X150699373Y-98172037D01*
X150765557Y-98165519D01*
X150831740Y-98159000D01*
X150920260Y-98159000D01*
X150986443Y-98165519D01*
X150986443Y-98165519D01*
G37*
G36*
X148446443Y-98165519D02*
G01*
X148512627Y-98172037D01*
X148682466Y-98223557D01*
X148838991Y-98307222D01*
X148874729Y-98336552D01*
X148976186Y-98419814D01*
X149059448Y-98521271D01*
X149088778Y-98557009D01*
X149172443Y-98713534D01*
X149223963Y-98883373D01*
X149241359Y-99060000D01*
X149223963Y-99236627D01*
X149172443Y-99406466D01*
X149088778Y-99562991D01*
X149059448Y-99598729D01*
X148976186Y-99700186D01*
X148874729Y-99783448D01*
X148838991Y-99812778D01*
X148682466Y-99896443D01*
X148512627Y-99947963D01*
X148446443Y-99954481D01*
X148380260Y-99961000D01*
X148291740Y-99961000D01*
X148225557Y-99954481D01*
X148159373Y-99947963D01*
X147989534Y-99896443D01*
X147833009Y-99812778D01*
X147797271Y-99783448D01*
X147695814Y-99700186D01*
X147612552Y-99598729D01*
X147583222Y-99562991D01*
X147499557Y-99406466D01*
X147448037Y-99236627D01*
X147430641Y-99060000D01*
X147448037Y-98883373D01*
X147499557Y-98713534D01*
X147583222Y-98557009D01*
X147612552Y-98521271D01*
X147695814Y-98419814D01*
X147797271Y-98336552D01*
X147833009Y-98307222D01*
X147989534Y-98223557D01*
X148159373Y-98172037D01*
X148225557Y-98165519D01*
X148291740Y-98159000D01*
X148380260Y-98159000D01*
X148446443Y-98165519D01*
X148446443Y-98165519D01*
G37*
G36*
X148446442Y-95625518D02*
G01*
X148512627Y-95632037D01*
X148682466Y-95683557D01*
X148838991Y-95767222D01*
X148874729Y-95796552D01*
X148976186Y-95879814D01*
X149059448Y-95981271D01*
X149088778Y-96017009D01*
X149172443Y-96173534D01*
X149223963Y-96343373D01*
X149241359Y-96520000D01*
X149223963Y-96696627D01*
X149172443Y-96866466D01*
X149088778Y-97022991D01*
X149059448Y-97058729D01*
X148976186Y-97160186D01*
X148874729Y-97243448D01*
X148838991Y-97272778D01*
X148682466Y-97356443D01*
X148512627Y-97407963D01*
X148446442Y-97414482D01*
X148380260Y-97421000D01*
X148291740Y-97421000D01*
X148225558Y-97414482D01*
X148159373Y-97407963D01*
X147989534Y-97356443D01*
X147833009Y-97272778D01*
X147797271Y-97243448D01*
X147695814Y-97160186D01*
X147612552Y-97058729D01*
X147583222Y-97022991D01*
X147499557Y-96866466D01*
X147448037Y-96696627D01*
X147430641Y-96520000D01*
X147448037Y-96343373D01*
X147499557Y-96173534D01*
X147583222Y-96017009D01*
X147612552Y-95981271D01*
X147695814Y-95879814D01*
X147797271Y-95796552D01*
X147833009Y-95767222D01*
X147989534Y-95683557D01*
X148159373Y-95632037D01*
X148225558Y-95625518D01*
X148291740Y-95619000D01*
X148380260Y-95619000D01*
X148446442Y-95625518D01*
X148446442Y-95625518D01*
G37*
G36*
X150986442Y-95625518D02*
G01*
X151052627Y-95632037D01*
X151222466Y-95683557D01*
X151378991Y-95767222D01*
X151414729Y-95796552D01*
X151516186Y-95879814D01*
X151599448Y-95981271D01*
X151628778Y-96017009D01*
X151712443Y-96173534D01*
X151763963Y-96343373D01*
X151781359Y-96520000D01*
X151763963Y-96696627D01*
X151712443Y-96866466D01*
X151628778Y-97022991D01*
X151599448Y-97058729D01*
X151516186Y-97160186D01*
X151414729Y-97243448D01*
X151378991Y-97272778D01*
X151222466Y-97356443D01*
X151052627Y-97407963D01*
X150986442Y-97414482D01*
X150920260Y-97421000D01*
X150831740Y-97421000D01*
X150765558Y-97414482D01*
X150699373Y-97407963D01*
X150529534Y-97356443D01*
X150373009Y-97272778D01*
X150337271Y-97243448D01*
X150235814Y-97160186D01*
X150152552Y-97058729D01*
X150123222Y-97022991D01*
X150039557Y-96866466D01*
X149988037Y-96696627D01*
X149970641Y-96520000D01*
X149988037Y-96343373D01*
X150039557Y-96173534D01*
X150123222Y-96017009D01*
X150152552Y-95981271D01*
X150235814Y-95879814D01*
X150337271Y-95796552D01*
X150373009Y-95767222D01*
X150529534Y-95683557D01*
X150699373Y-95632037D01*
X150765558Y-95625518D01*
X150831740Y-95619000D01*
X150920260Y-95619000D01*
X150986442Y-95625518D01*
X150986442Y-95625518D01*
G37*
G36*
X148446443Y-93085519D02*
G01*
X148512627Y-93092037D01*
X148682466Y-93143557D01*
X148838991Y-93227222D01*
X148874729Y-93256552D01*
X148976186Y-93339814D01*
X149059448Y-93441271D01*
X149088778Y-93477009D01*
X149172443Y-93633534D01*
X149223963Y-93803373D01*
X149241359Y-93980000D01*
X149223963Y-94156627D01*
X149172443Y-94326466D01*
X149088778Y-94482991D01*
X149059448Y-94518729D01*
X148976186Y-94620186D01*
X148874729Y-94703448D01*
X148838991Y-94732778D01*
X148682466Y-94816443D01*
X148512627Y-94867963D01*
X148446443Y-94874481D01*
X148380260Y-94881000D01*
X148291740Y-94881000D01*
X148225557Y-94874481D01*
X148159373Y-94867963D01*
X147989534Y-94816443D01*
X147833009Y-94732778D01*
X147797271Y-94703448D01*
X147695814Y-94620186D01*
X147612552Y-94518729D01*
X147583222Y-94482991D01*
X147499557Y-94326466D01*
X147448037Y-94156627D01*
X147430641Y-93980000D01*
X147448037Y-93803373D01*
X147499557Y-93633534D01*
X147583222Y-93477009D01*
X147612552Y-93441271D01*
X147695814Y-93339814D01*
X147797271Y-93256552D01*
X147833009Y-93227222D01*
X147989534Y-93143557D01*
X148159373Y-93092037D01*
X148225557Y-93085519D01*
X148291740Y-93079000D01*
X148380260Y-93079000D01*
X148446443Y-93085519D01*
X148446443Y-93085519D01*
G37*
G36*
X150986443Y-93085519D02*
G01*
X151052627Y-93092037D01*
X151222466Y-93143557D01*
X151378991Y-93227222D01*
X151414729Y-93256552D01*
X151516186Y-93339814D01*
X151599448Y-93441271D01*
X151628778Y-93477009D01*
X151712443Y-93633534D01*
X151763963Y-93803373D01*
X151781359Y-93980000D01*
X151763963Y-94156627D01*
X151712443Y-94326466D01*
X151628778Y-94482991D01*
X151599448Y-94518729D01*
X151516186Y-94620186D01*
X151414729Y-94703448D01*
X151378991Y-94732778D01*
X151222466Y-94816443D01*
X151052627Y-94867963D01*
X150986443Y-94874481D01*
X150920260Y-94881000D01*
X150831740Y-94881000D01*
X150765557Y-94874481D01*
X150699373Y-94867963D01*
X150529534Y-94816443D01*
X150373009Y-94732778D01*
X150337271Y-94703448D01*
X150235814Y-94620186D01*
X150152552Y-94518729D01*
X150123222Y-94482991D01*
X150039557Y-94326466D01*
X149988037Y-94156627D01*
X149970641Y-93980000D01*
X149988037Y-93803373D01*
X150039557Y-93633534D01*
X150123222Y-93477009D01*
X150152552Y-93441271D01*
X150235814Y-93339814D01*
X150337271Y-93256552D01*
X150373009Y-93227222D01*
X150529534Y-93143557D01*
X150699373Y-93092037D01*
X150765557Y-93085519D01*
X150831740Y-93079000D01*
X150920260Y-93079000D01*
X150986443Y-93085519D01*
X150986443Y-93085519D01*
G37*
G36*
X148446443Y-90545519D02*
G01*
X148512627Y-90552037D01*
X148682466Y-90603557D01*
X148838991Y-90687222D01*
X148874729Y-90716552D01*
X148976186Y-90799814D01*
X149059448Y-90901271D01*
X149088778Y-90937009D01*
X149172443Y-91093534D01*
X149223963Y-91263373D01*
X149241359Y-91440000D01*
X149223963Y-91616627D01*
X149172443Y-91786466D01*
X149088778Y-91942991D01*
X149059448Y-91978729D01*
X148976186Y-92080186D01*
X148874729Y-92163448D01*
X148838991Y-92192778D01*
X148682466Y-92276443D01*
X148512627Y-92327963D01*
X148446443Y-92334481D01*
X148380260Y-92341000D01*
X148291740Y-92341000D01*
X148225557Y-92334481D01*
X148159373Y-92327963D01*
X147989534Y-92276443D01*
X147833009Y-92192778D01*
X147797271Y-92163448D01*
X147695814Y-92080186D01*
X147612552Y-91978729D01*
X147583222Y-91942991D01*
X147499557Y-91786466D01*
X147448037Y-91616627D01*
X147430641Y-91440000D01*
X147448037Y-91263373D01*
X147499557Y-91093534D01*
X147583222Y-90937009D01*
X147612552Y-90901271D01*
X147695814Y-90799814D01*
X147797271Y-90716552D01*
X147833009Y-90687222D01*
X147989534Y-90603557D01*
X148159373Y-90552037D01*
X148225557Y-90545519D01*
X148291740Y-90539000D01*
X148380260Y-90539000D01*
X148446443Y-90545519D01*
X148446443Y-90545519D01*
G37*
G36*
X150986443Y-90545519D02*
G01*
X151052627Y-90552037D01*
X151222466Y-90603557D01*
X151378991Y-90687222D01*
X151414729Y-90716552D01*
X151516186Y-90799814D01*
X151599448Y-90901271D01*
X151628778Y-90937009D01*
X151712443Y-91093534D01*
X151763963Y-91263373D01*
X151781359Y-91440000D01*
X151763963Y-91616627D01*
X151712443Y-91786466D01*
X151628778Y-91942991D01*
X151599448Y-91978729D01*
X151516186Y-92080186D01*
X151414729Y-92163448D01*
X151378991Y-92192778D01*
X151222466Y-92276443D01*
X151052627Y-92327963D01*
X150986443Y-92334481D01*
X150920260Y-92341000D01*
X150831740Y-92341000D01*
X150765557Y-92334481D01*
X150699373Y-92327963D01*
X150529534Y-92276443D01*
X150373009Y-92192778D01*
X150337271Y-92163448D01*
X150235814Y-92080186D01*
X150152552Y-91978729D01*
X150123222Y-91942991D01*
X150039557Y-91786466D01*
X149988037Y-91616627D01*
X149970641Y-91440000D01*
X149988037Y-91263373D01*
X150039557Y-91093534D01*
X150123222Y-90937009D01*
X150152552Y-90901271D01*
X150235814Y-90799814D01*
X150337271Y-90716552D01*
X150373009Y-90687222D01*
X150529534Y-90603557D01*
X150699373Y-90552037D01*
X150765557Y-90545519D01*
X150831740Y-90539000D01*
X150920260Y-90539000D01*
X150986443Y-90545519D01*
X150986443Y-90545519D01*
G37*
G36*
X150986443Y-88005519D02*
G01*
X151052627Y-88012037D01*
X151222466Y-88063557D01*
X151378991Y-88147222D01*
X151414729Y-88176552D01*
X151516186Y-88259814D01*
X151599448Y-88361271D01*
X151628778Y-88397009D01*
X151712443Y-88553534D01*
X151763963Y-88723373D01*
X151781359Y-88900000D01*
X151763963Y-89076627D01*
X151712443Y-89246466D01*
X151628778Y-89402991D01*
X151599448Y-89438729D01*
X151516186Y-89540186D01*
X151414729Y-89623448D01*
X151378991Y-89652778D01*
X151222466Y-89736443D01*
X151052627Y-89787963D01*
X150986443Y-89794481D01*
X150920260Y-89801000D01*
X150831740Y-89801000D01*
X150765557Y-89794481D01*
X150699373Y-89787963D01*
X150529534Y-89736443D01*
X150373009Y-89652778D01*
X150337271Y-89623448D01*
X150235814Y-89540186D01*
X150152552Y-89438729D01*
X150123222Y-89402991D01*
X150039557Y-89246466D01*
X149988037Y-89076627D01*
X149970641Y-88900000D01*
X149988037Y-88723373D01*
X150039557Y-88553534D01*
X150123222Y-88397009D01*
X150152552Y-88361271D01*
X150235814Y-88259814D01*
X150337271Y-88176552D01*
X150373009Y-88147222D01*
X150529534Y-88063557D01*
X150699373Y-88012037D01*
X150765557Y-88005519D01*
X150831740Y-87999000D01*
X150920260Y-87999000D01*
X150986443Y-88005519D01*
X150986443Y-88005519D01*
G37*
G36*
X148446443Y-88005519D02*
G01*
X148512627Y-88012037D01*
X148682466Y-88063557D01*
X148838991Y-88147222D01*
X148874729Y-88176552D01*
X148976186Y-88259814D01*
X149059448Y-88361271D01*
X149088778Y-88397009D01*
X149172443Y-88553534D01*
X149223963Y-88723373D01*
X149241359Y-88900000D01*
X149223963Y-89076627D01*
X149172443Y-89246466D01*
X149088778Y-89402991D01*
X149059448Y-89438729D01*
X148976186Y-89540186D01*
X148874729Y-89623448D01*
X148838991Y-89652778D01*
X148682466Y-89736443D01*
X148512627Y-89787963D01*
X148446443Y-89794481D01*
X148380260Y-89801000D01*
X148291740Y-89801000D01*
X148225557Y-89794481D01*
X148159373Y-89787963D01*
X147989534Y-89736443D01*
X147833009Y-89652778D01*
X147797271Y-89623448D01*
X147695814Y-89540186D01*
X147612552Y-89438729D01*
X147583222Y-89402991D01*
X147499557Y-89246466D01*
X147448037Y-89076627D01*
X147430641Y-88900000D01*
X147448037Y-88723373D01*
X147499557Y-88553534D01*
X147583222Y-88397009D01*
X147612552Y-88361271D01*
X147695814Y-88259814D01*
X147797271Y-88176552D01*
X147833009Y-88147222D01*
X147989534Y-88063557D01*
X148159373Y-88012037D01*
X148225557Y-88005519D01*
X148291740Y-87999000D01*
X148380260Y-87999000D01*
X148446443Y-88005519D01*
X148446443Y-88005519D01*
G37*
G36*
X213321474Y-83758684D02*
G01*
X213539474Y-83848983D01*
X213693623Y-83912833D01*
X214028548Y-84136623D01*
X214313377Y-84421452D01*
X214537167Y-84756377D01*
X214569562Y-84834586D01*
X214691316Y-85128526D01*
X214769900Y-85523594D01*
X214769900Y-85926406D01*
X214691316Y-86321474D01*
X214640451Y-86444272D01*
X214537167Y-86693623D01*
X214313377Y-87028548D01*
X214028548Y-87313377D01*
X213693623Y-87537167D01*
X213539474Y-87601017D01*
X213321474Y-87691316D01*
X212926406Y-87769900D01*
X212523594Y-87769900D01*
X212128526Y-87691316D01*
X211910526Y-87601017D01*
X211756377Y-87537167D01*
X211421452Y-87313377D01*
X211136623Y-87028548D01*
X210912833Y-86693623D01*
X210809549Y-86444272D01*
X210758684Y-86321474D01*
X210680100Y-85926406D01*
X210680100Y-85523594D01*
X210758684Y-85128526D01*
X210880438Y-84834586D01*
X210912833Y-84756377D01*
X211136623Y-84421452D01*
X211421452Y-84136623D01*
X211756377Y-83912833D01*
X211910526Y-83848983D01*
X212128526Y-83758684D01*
X212523594Y-83680100D01*
X212926406Y-83680100D01*
X213321474Y-83758684D01*
X213321474Y-83758684D01*
G37*
G36*
X194271474Y-83758684D02*
G01*
X194489474Y-83848983D01*
X194643623Y-83912833D01*
X194978548Y-84136623D01*
X195263377Y-84421452D01*
X195487167Y-84756377D01*
X195519562Y-84834586D01*
X195641316Y-85128526D01*
X195719900Y-85523594D01*
X195719900Y-85926406D01*
X195641316Y-86321474D01*
X195590451Y-86444272D01*
X195487167Y-86693623D01*
X195263377Y-87028548D01*
X194978548Y-87313377D01*
X194643623Y-87537167D01*
X194489474Y-87601017D01*
X194271474Y-87691316D01*
X193876406Y-87769900D01*
X193473594Y-87769900D01*
X193078526Y-87691316D01*
X192860526Y-87601017D01*
X192706377Y-87537167D01*
X192371452Y-87313377D01*
X192086623Y-87028548D01*
X191862833Y-86693623D01*
X191759549Y-86444272D01*
X191708684Y-86321474D01*
X191630100Y-85926406D01*
X191630100Y-85523594D01*
X191708684Y-85128526D01*
X191830438Y-84834586D01*
X191862833Y-84756377D01*
X192086623Y-84421452D01*
X192371452Y-84136623D01*
X192706377Y-83912833D01*
X192860526Y-83848983D01*
X193078526Y-83758684D01*
X193473594Y-83680100D01*
X193876406Y-83680100D01*
X194271474Y-83758684D01*
X194271474Y-83758684D01*
G37*
G36*
X159114442Y-85465518D02*
G01*
X159180627Y-85472037D01*
X159350466Y-85523557D01*
X159506991Y-85607222D01*
X159542729Y-85636552D01*
X159644186Y-85719814D01*
X159723289Y-85816203D01*
X159756778Y-85857009D01*
X159840443Y-86013534D01*
X159891963Y-86183373D01*
X159909359Y-86360000D01*
X159891963Y-86536627D01*
X159840443Y-86706466D01*
X159756778Y-86862991D01*
X159727448Y-86898729D01*
X159644186Y-87000186D01*
X159542729Y-87083448D01*
X159506991Y-87112778D01*
X159350466Y-87196443D01*
X159180627Y-87247963D01*
X159114442Y-87254482D01*
X159048260Y-87261000D01*
X158959740Y-87261000D01*
X158893558Y-87254482D01*
X158827373Y-87247963D01*
X158657534Y-87196443D01*
X158501009Y-87112778D01*
X158465271Y-87083448D01*
X158363814Y-87000186D01*
X158280552Y-86898729D01*
X158251222Y-86862991D01*
X158167557Y-86706466D01*
X158116037Y-86536627D01*
X158098641Y-86360000D01*
X158116037Y-86183373D01*
X158167557Y-86013534D01*
X158251222Y-85857009D01*
X158284711Y-85816203D01*
X158363814Y-85719814D01*
X158465271Y-85636552D01*
X158501009Y-85607222D01*
X158657534Y-85523557D01*
X158827373Y-85472037D01*
X158893558Y-85465518D01*
X158959740Y-85459000D01*
X159048260Y-85459000D01*
X159114442Y-85465518D01*
X159114442Y-85465518D01*
G37*
G36*
X148446442Y-85465518D02*
G01*
X148512627Y-85472037D01*
X148682466Y-85523557D01*
X148838991Y-85607222D01*
X148874729Y-85636552D01*
X148976186Y-85719814D01*
X149055289Y-85816203D01*
X149088778Y-85857009D01*
X149172443Y-86013534D01*
X149223963Y-86183373D01*
X149241359Y-86360000D01*
X149223963Y-86536627D01*
X149172443Y-86706466D01*
X149088778Y-86862991D01*
X149059448Y-86898729D01*
X148976186Y-87000186D01*
X148874729Y-87083448D01*
X148838991Y-87112778D01*
X148682466Y-87196443D01*
X148512627Y-87247963D01*
X148446442Y-87254482D01*
X148380260Y-87261000D01*
X148291740Y-87261000D01*
X148225558Y-87254482D01*
X148159373Y-87247963D01*
X147989534Y-87196443D01*
X147833009Y-87112778D01*
X147797271Y-87083448D01*
X147695814Y-87000186D01*
X147612552Y-86898729D01*
X147583222Y-86862991D01*
X147499557Y-86706466D01*
X147448037Y-86536627D01*
X147430641Y-86360000D01*
X147448037Y-86183373D01*
X147499557Y-86013534D01*
X147583222Y-85857009D01*
X147616711Y-85816203D01*
X147695814Y-85719814D01*
X147797271Y-85636552D01*
X147833009Y-85607222D01*
X147989534Y-85523557D01*
X148159373Y-85472037D01*
X148225558Y-85465518D01*
X148291740Y-85459000D01*
X148380260Y-85459000D01*
X148446442Y-85465518D01*
X148446442Y-85465518D01*
G37*
G36*
X150986442Y-85465518D02*
G01*
X151052627Y-85472037D01*
X151222466Y-85523557D01*
X151378991Y-85607222D01*
X151414729Y-85636552D01*
X151516186Y-85719814D01*
X151595289Y-85816203D01*
X151628778Y-85857009D01*
X151712443Y-86013534D01*
X151763963Y-86183373D01*
X151781359Y-86360000D01*
X151763963Y-86536627D01*
X151712443Y-86706466D01*
X151628778Y-86862991D01*
X151599448Y-86898729D01*
X151516186Y-87000186D01*
X151414729Y-87083448D01*
X151378991Y-87112778D01*
X151222466Y-87196443D01*
X151052627Y-87247963D01*
X150986442Y-87254482D01*
X150920260Y-87261000D01*
X150831740Y-87261000D01*
X150765558Y-87254482D01*
X150699373Y-87247963D01*
X150529534Y-87196443D01*
X150373009Y-87112778D01*
X150337271Y-87083448D01*
X150235814Y-87000186D01*
X150152552Y-86898729D01*
X150123222Y-86862991D01*
X150039557Y-86706466D01*
X149988037Y-86536627D01*
X149970641Y-86360000D01*
X149988037Y-86183373D01*
X150039557Y-86013534D01*
X150123222Y-85857009D01*
X150156711Y-85816203D01*
X150235814Y-85719814D01*
X150337271Y-85636552D01*
X150373009Y-85607222D01*
X150529534Y-85523557D01*
X150699373Y-85472037D01*
X150765558Y-85465518D01*
X150831740Y-85459000D01*
X150920260Y-85459000D01*
X150986442Y-85465518D01*
X150986442Y-85465518D01*
G37*
G36*
X218075104Y-84834585D02*
G01*
X218243626Y-84904389D01*
X218395291Y-85005728D01*
X218524272Y-85134709D01*
X218625611Y-85286374D01*
X218695415Y-85454896D01*
X218731000Y-85633797D01*
X218731000Y-85816203D01*
X218695415Y-85995104D01*
X218625611Y-86163626D01*
X218524272Y-86315291D01*
X218395291Y-86444272D01*
X218243626Y-86545611D01*
X218075104Y-86615415D01*
X217896203Y-86651000D01*
X217713797Y-86651000D01*
X217534896Y-86615415D01*
X217366374Y-86545611D01*
X217214709Y-86444272D01*
X217085728Y-86315291D01*
X216984389Y-86163626D01*
X216914585Y-85995104D01*
X216879000Y-85816203D01*
X216879000Y-85633797D01*
X216914585Y-85454896D01*
X216984389Y-85286374D01*
X217085728Y-85134709D01*
X217214709Y-85005728D01*
X217366374Y-84904389D01*
X217534896Y-84834585D01*
X217713797Y-84799000D01*
X217896203Y-84799000D01*
X218075104Y-84834585D01*
X218075104Y-84834585D01*
G37*
G36*
X207915104Y-84834585D02*
G01*
X208083626Y-84904389D01*
X208235291Y-85005728D01*
X208364272Y-85134709D01*
X208465611Y-85286374D01*
X208535415Y-85454896D01*
X208571000Y-85633797D01*
X208571000Y-85816203D01*
X208535415Y-85995104D01*
X208465611Y-86163626D01*
X208364272Y-86315291D01*
X208235291Y-86444272D01*
X208083626Y-86545611D01*
X207915104Y-86615415D01*
X207736203Y-86651000D01*
X207553797Y-86651000D01*
X207374896Y-86615415D01*
X207206374Y-86545611D01*
X207054709Y-86444272D01*
X206925728Y-86315291D01*
X206824389Y-86163626D01*
X206754585Y-85995104D01*
X206719000Y-85816203D01*
X206719000Y-85633797D01*
X206754585Y-85454896D01*
X206824389Y-85286374D01*
X206925728Y-85134709D01*
X207054709Y-85005728D01*
X207206374Y-84904389D01*
X207374896Y-84834585D01*
X207553797Y-84799000D01*
X207736203Y-84799000D01*
X207915104Y-84834585D01*
X207915104Y-84834585D01*
G37*
G36*
X199025104Y-84834585D02*
G01*
X199193626Y-84904389D01*
X199345291Y-85005728D01*
X199474272Y-85134709D01*
X199575611Y-85286374D01*
X199645415Y-85454896D01*
X199681000Y-85633797D01*
X199681000Y-85816203D01*
X199645415Y-85995104D01*
X199575611Y-86163626D01*
X199474272Y-86315291D01*
X199345291Y-86444272D01*
X199193626Y-86545611D01*
X199025104Y-86615415D01*
X198846203Y-86651000D01*
X198663797Y-86651000D01*
X198484896Y-86615415D01*
X198316374Y-86545611D01*
X198164709Y-86444272D01*
X198035728Y-86315291D01*
X197934389Y-86163626D01*
X197864585Y-85995104D01*
X197829000Y-85816203D01*
X197829000Y-85633797D01*
X197864585Y-85454896D01*
X197934389Y-85286374D01*
X198035728Y-85134709D01*
X198164709Y-85005728D01*
X198316374Y-84904389D01*
X198484896Y-84834585D01*
X198663797Y-84799000D01*
X198846203Y-84799000D01*
X199025104Y-84834585D01*
X199025104Y-84834585D01*
G37*
G36*
X188865104Y-84834585D02*
G01*
X189033626Y-84904389D01*
X189185291Y-85005728D01*
X189314272Y-85134709D01*
X189415611Y-85286374D01*
X189485415Y-85454896D01*
X189521000Y-85633797D01*
X189521000Y-85816203D01*
X189485415Y-85995104D01*
X189415611Y-86163626D01*
X189314272Y-86315291D01*
X189185291Y-86444272D01*
X189033626Y-86545611D01*
X188865104Y-86615415D01*
X188686203Y-86651000D01*
X188503797Y-86651000D01*
X188324896Y-86615415D01*
X188156374Y-86545611D01*
X188004709Y-86444272D01*
X187875728Y-86315291D01*
X187774389Y-86163626D01*
X187704585Y-85995104D01*
X187669000Y-85816203D01*
X187669000Y-85633797D01*
X187704585Y-85454896D01*
X187774389Y-85286374D01*
X187875728Y-85134709D01*
X188004709Y-85005728D01*
X188156374Y-84904389D01*
X188324896Y-84834585D01*
X188503797Y-84799000D01*
X188686203Y-84799000D01*
X188865104Y-84834585D01*
X188865104Y-84834585D01*
G37*
G36*
X150986443Y-82925519D02*
G01*
X151052627Y-82932037D01*
X151222466Y-82983557D01*
X151378991Y-83067222D01*
X151408575Y-83091501D01*
X151516186Y-83179814D01*
X151599448Y-83281271D01*
X151628778Y-83317009D01*
X151712443Y-83473534D01*
X151763963Y-83643373D01*
X151781359Y-83820000D01*
X151763963Y-83996627D01*
X151712443Y-84166466D01*
X151628778Y-84322991D01*
X151599448Y-84358729D01*
X151516186Y-84460186D01*
X151414729Y-84543448D01*
X151378991Y-84572778D01*
X151222466Y-84656443D01*
X151052627Y-84707963D01*
X150986443Y-84714481D01*
X150920260Y-84721000D01*
X150831740Y-84721000D01*
X150765557Y-84714481D01*
X150699373Y-84707963D01*
X150529534Y-84656443D01*
X150373009Y-84572778D01*
X150337271Y-84543448D01*
X150235814Y-84460186D01*
X150152552Y-84358729D01*
X150123222Y-84322991D01*
X150039557Y-84166466D01*
X149988037Y-83996627D01*
X149970641Y-83820000D01*
X149988037Y-83643373D01*
X150039557Y-83473534D01*
X150123222Y-83317009D01*
X150152552Y-83281271D01*
X150235814Y-83179814D01*
X150343425Y-83091501D01*
X150373009Y-83067222D01*
X150529534Y-82983557D01*
X150699373Y-82932037D01*
X150765557Y-82925519D01*
X150831740Y-82919000D01*
X150920260Y-82919000D01*
X150986443Y-82925519D01*
X150986443Y-82925519D01*
G37*
G36*
X159114443Y-82925519D02*
G01*
X159180627Y-82932037D01*
X159350466Y-82983557D01*
X159506991Y-83067222D01*
X159536575Y-83091501D01*
X159644186Y-83179814D01*
X159727448Y-83281271D01*
X159756778Y-83317009D01*
X159840443Y-83473534D01*
X159891963Y-83643373D01*
X159909359Y-83820000D01*
X159891963Y-83996627D01*
X159840443Y-84166466D01*
X159756778Y-84322991D01*
X159727448Y-84358729D01*
X159644186Y-84460186D01*
X159542729Y-84543448D01*
X159506991Y-84572778D01*
X159350466Y-84656443D01*
X159180627Y-84707963D01*
X159114443Y-84714481D01*
X159048260Y-84721000D01*
X158959740Y-84721000D01*
X158893557Y-84714481D01*
X158827373Y-84707963D01*
X158657534Y-84656443D01*
X158501009Y-84572778D01*
X158465271Y-84543448D01*
X158363814Y-84460186D01*
X158280552Y-84358729D01*
X158251222Y-84322991D01*
X158167557Y-84166466D01*
X158116037Y-83996627D01*
X158098641Y-83820000D01*
X158116037Y-83643373D01*
X158167557Y-83473534D01*
X158251222Y-83317009D01*
X158280552Y-83281271D01*
X158363814Y-83179814D01*
X158471425Y-83091501D01*
X158501009Y-83067222D01*
X158657534Y-82983557D01*
X158827373Y-82932037D01*
X158893557Y-82925519D01*
X158959740Y-82919000D01*
X159048260Y-82919000D01*
X159114443Y-82925519D01*
X159114443Y-82925519D01*
G37*
G36*
X148446443Y-82925519D02*
G01*
X148512627Y-82932037D01*
X148682466Y-82983557D01*
X148838991Y-83067222D01*
X148868575Y-83091501D01*
X148976186Y-83179814D01*
X149059448Y-83281271D01*
X149088778Y-83317009D01*
X149172443Y-83473534D01*
X149223963Y-83643373D01*
X149241359Y-83820000D01*
X149223963Y-83996627D01*
X149172443Y-84166466D01*
X149088778Y-84322991D01*
X149059448Y-84358729D01*
X148976186Y-84460186D01*
X148874729Y-84543448D01*
X148838991Y-84572778D01*
X148682466Y-84656443D01*
X148512627Y-84707963D01*
X148446443Y-84714481D01*
X148380260Y-84721000D01*
X148291740Y-84721000D01*
X148225557Y-84714481D01*
X148159373Y-84707963D01*
X147989534Y-84656443D01*
X147833009Y-84572778D01*
X147797271Y-84543448D01*
X147695814Y-84460186D01*
X147612552Y-84358729D01*
X147583222Y-84322991D01*
X147499557Y-84166466D01*
X147448037Y-83996627D01*
X147430641Y-83820000D01*
X147448037Y-83643373D01*
X147499557Y-83473534D01*
X147583222Y-83317009D01*
X147612552Y-83281271D01*
X147695814Y-83179814D01*
X147803425Y-83091501D01*
X147833009Y-83067222D01*
X147989534Y-82983557D01*
X148159373Y-82932037D01*
X148225557Y-82925519D01*
X148291740Y-82919000D01*
X148380260Y-82919000D01*
X148446443Y-82925519D01*
X148446443Y-82925519D01*
G37*
G36*
X181197015Y-81356973D02*
G01*
X181300879Y-81388479D01*
X181328055Y-81403005D01*
X181396600Y-81439643D01*
X181480501Y-81508499D01*
X181549357Y-81592400D01*
X181585995Y-81660945D01*
X181600521Y-81688121D01*
X181632027Y-81791985D01*
X181640000Y-81872933D01*
X181640000Y-82727067D01*
X181632027Y-82808015D01*
X181600521Y-82911879D01*
X181549356Y-83007600D01*
X181480501Y-83091501D01*
X181411645Y-83148009D01*
X181396599Y-83160357D01*
X181360197Y-83179814D01*
X181300878Y-83211521D01*
X181197014Y-83243027D01*
X181089000Y-83253666D01*
X180980985Y-83243027D01*
X180877121Y-83211521D01*
X180817804Y-83179815D01*
X180781401Y-83160357D01*
X180768643Y-83149887D01*
X180697499Y-83091501D01*
X180628644Y-83007600D01*
X180615793Y-82983557D01*
X180601013Y-82955907D01*
X180577479Y-82911878D01*
X180545973Y-82808014D01*
X180538000Y-82727066D01*
X180538000Y-81872933D01*
X180545973Y-81791985D01*
X180577480Y-81688121D01*
X180595302Y-81654779D01*
X180628644Y-81592400D01*
X180697500Y-81508499D01*
X180781401Y-81439643D01*
X180849946Y-81403005D01*
X180877122Y-81388479D01*
X180980986Y-81356973D01*
X181089000Y-81346334D01*
X181197015Y-81356973D01*
X181197015Y-81356973D01*
G37*
G36*
X170047015Y-81356973D02*
G01*
X170150879Y-81388479D01*
X170178055Y-81403005D01*
X170246600Y-81439643D01*
X170330501Y-81508499D01*
X170399357Y-81592400D01*
X170435995Y-81660945D01*
X170450521Y-81688121D01*
X170482027Y-81791985D01*
X170490000Y-81872933D01*
X170490000Y-82727067D01*
X170482027Y-82808015D01*
X170450521Y-82911879D01*
X170399356Y-83007600D01*
X170330501Y-83091501D01*
X170261645Y-83148009D01*
X170246599Y-83160357D01*
X170210197Y-83179814D01*
X170150878Y-83211521D01*
X170047014Y-83243027D01*
X169939000Y-83253666D01*
X169830985Y-83243027D01*
X169727121Y-83211521D01*
X169667804Y-83179815D01*
X169631401Y-83160357D01*
X169618643Y-83149887D01*
X169547499Y-83091501D01*
X169478644Y-83007600D01*
X169465793Y-82983557D01*
X169451013Y-82955907D01*
X169427479Y-82911878D01*
X169395973Y-82808014D01*
X169388000Y-82727066D01*
X169388000Y-81872933D01*
X169395973Y-81791985D01*
X169427480Y-81688121D01*
X169445302Y-81654779D01*
X169478644Y-81592400D01*
X169547500Y-81508499D01*
X169631401Y-81439643D01*
X169699946Y-81403005D01*
X169727122Y-81388479D01*
X169830986Y-81356973D01*
X169939000Y-81346334D01*
X170047015Y-81356973D01*
X170047015Y-81356973D01*
G37*
G36*
X150986442Y-80385518D02*
G01*
X151052627Y-80392037D01*
X151222466Y-80443557D01*
X151378991Y-80527222D01*
X151414729Y-80556552D01*
X151516186Y-80639814D01*
X151599448Y-80741271D01*
X151628778Y-80777009D01*
X151712443Y-80933534D01*
X151763963Y-81103373D01*
X151781359Y-81280000D01*
X151763963Y-81456627D01*
X151712443Y-81626466D01*
X151628778Y-81782991D01*
X151621395Y-81791987D01*
X151516186Y-81920186D01*
X151414729Y-82003448D01*
X151378991Y-82032778D01*
X151222466Y-82116443D01*
X151052627Y-82167963D01*
X150986443Y-82174481D01*
X150920260Y-82181000D01*
X150831740Y-82181000D01*
X150765557Y-82174481D01*
X150699373Y-82167963D01*
X150529534Y-82116443D01*
X150373009Y-82032778D01*
X150337271Y-82003448D01*
X150235814Y-81920186D01*
X150130605Y-81791987D01*
X150123222Y-81782991D01*
X150039557Y-81626466D01*
X149988037Y-81456627D01*
X149970641Y-81280000D01*
X149988037Y-81103373D01*
X150039557Y-80933534D01*
X150123222Y-80777009D01*
X150152552Y-80741271D01*
X150235814Y-80639814D01*
X150337271Y-80556552D01*
X150373009Y-80527222D01*
X150529534Y-80443557D01*
X150699373Y-80392037D01*
X150765558Y-80385518D01*
X150831740Y-80379000D01*
X150920260Y-80379000D01*
X150986442Y-80385518D01*
X150986442Y-80385518D01*
G37*
G36*
X148446442Y-80385518D02*
G01*
X148512627Y-80392037D01*
X148682466Y-80443557D01*
X148838991Y-80527222D01*
X148874729Y-80556552D01*
X148976186Y-80639814D01*
X149059448Y-80741271D01*
X149088778Y-80777009D01*
X149172443Y-80933534D01*
X149223963Y-81103373D01*
X149241359Y-81280000D01*
X149223963Y-81456627D01*
X149172443Y-81626466D01*
X149088778Y-81782991D01*
X149081395Y-81791987D01*
X148976186Y-81920186D01*
X148874729Y-82003448D01*
X148838991Y-82032778D01*
X148682466Y-82116443D01*
X148512627Y-82167963D01*
X148446443Y-82174481D01*
X148380260Y-82181000D01*
X148291740Y-82181000D01*
X148225557Y-82174481D01*
X148159373Y-82167963D01*
X147989534Y-82116443D01*
X147833009Y-82032778D01*
X147797271Y-82003448D01*
X147695814Y-81920186D01*
X147590605Y-81791987D01*
X147583222Y-81782991D01*
X147499557Y-81626466D01*
X147448037Y-81456627D01*
X147430641Y-81280000D01*
X147448037Y-81103373D01*
X147499557Y-80933534D01*
X147583222Y-80777009D01*
X147612552Y-80741271D01*
X147695814Y-80639814D01*
X147797271Y-80556552D01*
X147833009Y-80527222D01*
X147989534Y-80443557D01*
X148159373Y-80392037D01*
X148225558Y-80385518D01*
X148291740Y-80379000D01*
X148380260Y-80379000D01*
X148446442Y-80385518D01*
X148446442Y-80385518D01*
G37*
G36*
X159114442Y-80385518D02*
G01*
X159180627Y-80392037D01*
X159350466Y-80443557D01*
X159506991Y-80527222D01*
X159542729Y-80556552D01*
X159644186Y-80639814D01*
X159727448Y-80741271D01*
X159756778Y-80777009D01*
X159840443Y-80933534D01*
X159891963Y-81103373D01*
X159909359Y-81280000D01*
X159891963Y-81456627D01*
X159840443Y-81626466D01*
X159756778Y-81782991D01*
X159749395Y-81791987D01*
X159644186Y-81920186D01*
X159542729Y-82003448D01*
X159506991Y-82032778D01*
X159350466Y-82116443D01*
X159180627Y-82167963D01*
X159114443Y-82174481D01*
X159048260Y-82181000D01*
X158959740Y-82181000D01*
X158893557Y-82174481D01*
X158827373Y-82167963D01*
X158657534Y-82116443D01*
X158501009Y-82032778D01*
X158465271Y-82003448D01*
X158363814Y-81920186D01*
X158258605Y-81791987D01*
X158251222Y-81782991D01*
X158167557Y-81626466D01*
X158116037Y-81456627D01*
X158098641Y-81280000D01*
X158116037Y-81103373D01*
X158167557Y-80933534D01*
X158251222Y-80777009D01*
X158280552Y-80741271D01*
X158363814Y-80639814D01*
X158465271Y-80556552D01*
X158501009Y-80527222D01*
X158657534Y-80443557D01*
X158827373Y-80392037D01*
X158893558Y-80385518D01*
X158959740Y-80379000D01*
X159048260Y-80379000D01*
X159114442Y-80385518D01*
X159114442Y-80385518D01*
G37*
G36*
X159905000Y-79641000D02*
G01*
X158103000Y-79641000D01*
X158103000Y-77839000D01*
X159905000Y-77839000D01*
X159905000Y-79641000D01*
X159905000Y-79641000D01*
G37*
G36*
X150986443Y-77845519D02*
G01*
X151052627Y-77852037D01*
X151222466Y-77903557D01*
X151378991Y-77987222D01*
X151414729Y-78016552D01*
X151516186Y-78099814D01*
X151599448Y-78201271D01*
X151628778Y-78237009D01*
X151712443Y-78393534D01*
X151763963Y-78563373D01*
X151781359Y-78740000D01*
X151763963Y-78916627D01*
X151712443Y-79086466D01*
X151628778Y-79242991D01*
X151599448Y-79278729D01*
X151516186Y-79380186D01*
X151426650Y-79453665D01*
X151378991Y-79492778D01*
X151222466Y-79576443D01*
X151052627Y-79627963D01*
X150986442Y-79634482D01*
X150920260Y-79641000D01*
X150831740Y-79641000D01*
X150765558Y-79634482D01*
X150699373Y-79627963D01*
X150529534Y-79576443D01*
X150373009Y-79492778D01*
X150325350Y-79453665D01*
X150235814Y-79380186D01*
X150152552Y-79278729D01*
X150123222Y-79242991D01*
X150039557Y-79086466D01*
X149988037Y-78916627D01*
X149970641Y-78740000D01*
X149988037Y-78563373D01*
X150039557Y-78393534D01*
X150123222Y-78237009D01*
X150152552Y-78201271D01*
X150235814Y-78099814D01*
X150337271Y-78016552D01*
X150373009Y-77987222D01*
X150529534Y-77903557D01*
X150699373Y-77852037D01*
X150765557Y-77845519D01*
X150831740Y-77839000D01*
X150920260Y-77839000D01*
X150986443Y-77845519D01*
X150986443Y-77845519D01*
G37*
G36*
X149237000Y-79641000D02*
G01*
X147435000Y-79641000D01*
X147435000Y-77839000D01*
X149237000Y-77839000D01*
X149237000Y-79641000D01*
X149237000Y-79641000D01*
G37*
G36*
X181197015Y-77156973D02*
G01*
X181300879Y-77188479D01*
X181328055Y-77203005D01*
X181396600Y-77239643D01*
X181480501Y-77308499D01*
X181549357Y-77392400D01*
X181585995Y-77460945D01*
X181600521Y-77488121D01*
X181632027Y-77591985D01*
X181640000Y-77672933D01*
X181640000Y-78927067D01*
X181632027Y-79008015D01*
X181600521Y-79111879D01*
X181549356Y-79207600D01*
X181480501Y-79291501D01*
X181411645Y-79348009D01*
X181396599Y-79360357D01*
X181359503Y-79380185D01*
X181300878Y-79411521D01*
X181197014Y-79443027D01*
X181089000Y-79453666D01*
X180980985Y-79443027D01*
X180877121Y-79411521D01*
X180833093Y-79387987D01*
X180781401Y-79360357D01*
X180768643Y-79349887D01*
X180697499Y-79291501D01*
X180628644Y-79207600D01*
X180577479Y-79111878D01*
X180545973Y-79008014D01*
X180538000Y-78927066D01*
X180538001Y-77672933D01*
X180545974Y-77591985D01*
X180577480Y-77488121D01*
X180592006Y-77460945D01*
X180628644Y-77392400D01*
X180697500Y-77308499D01*
X180781401Y-77239643D01*
X180849946Y-77203005D01*
X180877122Y-77188479D01*
X180980986Y-77156973D01*
X181089000Y-77146334D01*
X181197015Y-77156973D01*
X181197015Y-77156973D01*
G37*
G36*
X170047015Y-77156973D02*
G01*
X170150879Y-77188479D01*
X170178055Y-77203005D01*
X170246600Y-77239643D01*
X170330501Y-77308499D01*
X170399357Y-77392400D01*
X170435995Y-77460945D01*
X170450521Y-77488121D01*
X170482027Y-77591985D01*
X170490000Y-77672933D01*
X170490000Y-78927067D01*
X170482027Y-79008015D01*
X170450521Y-79111879D01*
X170399356Y-79207600D01*
X170330501Y-79291501D01*
X170261645Y-79348009D01*
X170246599Y-79360357D01*
X170209503Y-79380185D01*
X170150878Y-79411521D01*
X170047014Y-79443027D01*
X169939000Y-79453666D01*
X169830985Y-79443027D01*
X169727121Y-79411521D01*
X169683093Y-79387987D01*
X169631401Y-79360357D01*
X169618643Y-79349887D01*
X169547499Y-79291501D01*
X169478644Y-79207600D01*
X169427479Y-79111878D01*
X169395973Y-79008014D01*
X169388000Y-78927066D01*
X169388001Y-77672933D01*
X169395974Y-77591985D01*
X169427480Y-77488121D01*
X169442006Y-77460945D01*
X169478644Y-77392400D01*
X169547500Y-77308499D01*
X169631401Y-77239643D01*
X169699946Y-77203005D01*
X169727122Y-77188479D01*
X169830986Y-77156973D01*
X169939000Y-77146334D01*
X170047015Y-77156973D01*
X170047015Y-77156973D01*
G37*
M02*
