M48
; DRILL file {KiCad 5.1.0} date 2019年05月04日 星期六 21时29分51秒
; FORMAT={-:-/ absolute / inch / decimal}
; #@! TF.CreationDate,2019-05-04T21:29:51+08:00
; #@! TF.GenerationSoftware,Kicad,Pcbnew,5.1.0
; #@! TF.FileFunction,Plated,1,2,PTH
FMAT,2
INCH
T1C0.0157
T2C0.0236
T3C0.0394
T4C0.0409
T5C0.0579
%
G90
G05
T1
X6.33Y-3.88
X6.4Y-3.4
X6.47Y-3.99
X6.4778Y-4.0478
X6.4778Y-4.1422
X6.48Y-3.75
X6.5Y-3.92
X6.505Y-3.965
X6.52Y-3.88
X6.54Y-4.05
X6.54Y-4.14
X6.58Y-3.81
X6.59Y-3.75
X6.62Y-3.79
X6.66Y-3.75
X6.6679Y-4.1521
X6.6875Y-3.8875
X6.73Y-3.93
X6.74Y-3.32
X6.74Y-4.08
X6.74Y-4.37
X6.75Y-4.14
X6.78Y-3.64
X6.78Y-3.83
X6.79Y-3.68
X6.8Y-4.16
X6.81Y-4.29
X6.82Y-3.65
X6.82Y-3.86
X6.85Y-4.15
X6.86Y-3.6524
X6.86Y-4.29
X6.86Y-4.33
X6.87Y-3.7
X6.87Y-3.87
X6.88Y-3.83
X6.9Y-4.15
X6.9002Y-3.4791
X6.915Y-3.985
X6.92Y-3.6
X6.92Y-4.04
X6.93Y-3.6812
X6.93Y-4.29
X6.96Y-3.21
X6.96Y-3.4
X6.96Y-3.87
X6.9844Y-4.0056
X6.99Y-3.33
X6.9926Y-3.7026
X7.0Y-3.83
X7.0296Y-3.4796
X7.06Y-3.69
X7.08Y-4.255
X7.11Y-3.8
X7.11Y-4.03
X7.13Y-3.85
X7.13Y-3.9
X7.13Y-3.95
X7.14Y-4.0
X7.17Y-4.14
X7.18Y-3.6
X7.18Y-3.68
X7.25Y-3.48
X7.28Y-4.33
X7.31Y-3.83
X7.31Y-3.9
X7.36Y-4.08
X7.43Y-3.86
X8.25Y-3.83
T3
X7.8Y-4.41
X7.9Y-4.41
X8.0Y-4.41
X8.1Y-4.41
X8.2Y-4.41
X6.26Y-3.1
X6.26Y-3.2
X6.26Y-3.3
X6.26Y-3.4
X5.84Y-3.1
X5.84Y-3.2
X5.84Y-3.3
X5.84Y-3.4
X5.84Y-3.5
X5.84Y-3.6
X5.84Y-3.7
X5.84Y-3.8
X5.84Y-3.9
X5.84Y-4.0
X5.84Y-4.1
X5.84Y-4.2
X5.84Y-4.3
X5.84Y-4.4
X5.94Y-3.1
X5.94Y-3.2
X5.94Y-3.3
X5.94Y-3.4
X5.94Y-3.5
X5.94Y-3.6
X5.94Y-3.7
X5.94Y-3.8
X5.94Y-3.9
X5.94Y-4.0
X5.94Y-4.1
X5.94Y-4.2
X5.94Y-4.3
X5.94Y-4.4
X6.88Y-4.41
X6.98Y-4.41
X7.08Y-4.41
X7.18Y-4.41
T4
X8.325Y-3.575
X8.425Y-3.575
X7.575Y-3.575
X7.675Y-3.575
X7.575Y-4.325
X7.675Y-4.325
X8.325Y-4.325
X8.425Y-4.325
T5
X7.475Y-3.275
X7.5266Y-3.2175
X7.7234Y-3.1978
X7.725Y-3.175
X7.475Y-4.025
X7.5266Y-3.9675
X7.7234Y-3.9478
X7.725Y-3.925
X8.225Y-4.025
X8.2766Y-3.9675
X8.4734Y-3.9478
X8.475Y-3.925
X8.225Y-3.275
X8.2766Y-3.2175
X8.4734Y-3.1978
X8.475Y-3.175
T2
G00X6.6905Y-3.1063
M15
G01X6.6905Y-3.0591
M16
G05
G00X6.6905Y-3.2559
M15
G01X6.6905Y-3.2244
M16
G05
G00X7.1295Y-3.1063
M15
G01X7.1295Y-3.0591
M16
G05
G00X7.1295Y-3.2559
M15
G01X7.1295Y-3.2244
M16
G05
T0
M30
