G04 #@! TF.GenerationSoftware,KiCad,Pcbnew,5.1.0*
G04 #@! TF.CreationDate,2019-05-04T21:29:49+08:00*
G04 #@! TF.ProjectId,pcbtest,70636274-6573-4742-9e6b-696361645f70,rev?*
G04 #@! TF.SameCoordinates,Original*
G04 #@! TF.FileFunction,Soldermask,Bot*
G04 #@! TF.FilePolarity,Negative*
%FSLAX46Y46*%
G04 Gerber Fmt 4.6, Leading zero omitted, Abs format (unit mm)*
G04 Created by KiCad (PCBNEW 5.1.0) date 2019-05-04 21:29:49*
%MOMM*%
%LPD*%
G04 APERTURE LIST*
%ADD10C,0.100000*%
G04 APERTURE END LIST*
D10*
G36*
X187024674Y-112408465D02*
G01*
X187062367Y-112419899D01*
X187097103Y-112438466D01*
X187127548Y-112463452D01*
X187152534Y-112493897D01*
X187171101Y-112528633D01*
X187182535Y-112566326D01*
X187187000Y-112611661D01*
X187187000Y-113448339D01*
X187182535Y-113493674D01*
X187171101Y-113531367D01*
X187152534Y-113566103D01*
X187127548Y-113596548D01*
X187097103Y-113621534D01*
X187062367Y-113640101D01*
X187024674Y-113651535D01*
X186979339Y-113656000D01*
X185892661Y-113656000D01*
X185847326Y-113651535D01*
X185809633Y-113640101D01*
X185774897Y-113621534D01*
X185744452Y-113596548D01*
X185719466Y-113566103D01*
X185700899Y-113531367D01*
X185689465Y-113493674D01*
X185685000Y-113448339D01*
X185685000Y-112611661D01*
X185689465Y-112566326D01*
X185700899Y-112528633D01*
X185719466Y-112493897D01*
X185744452Y-112463452D01*
X185774897Y-112438466D01*
X185809633Y-112419899D01*
X185847326Y-112408465D01*
X185892661Y-112404000D01*
X186979339Y-112404000D01*
X187024674Y-112408465D01*
X187024674Y-112408465D01*
G37*
G36*
X208390443Y-111119519D02*
G01*
X208456627Y-111126037D01*
X208626466Y-111177557D01*
X208782991Y-111261222D01*
X208818729Y-111290552D01*
X208920186Y-111373814D01*
X209003448Y-111475271D01*
X209032778Y-111511009D01*
X209116443Y-111667534D01*
X209167963Y-111837373D01*
X209185359Y-112014000D01*
X209167963Y-112190627D01*
X209116443Y-112360466D01*
X209032778Y-112516991D01*
X209003448Y-112552729D01*
X208920186Y-112654186D01*
X208818729Y-112737448D01*
X208782991Y-112766778D01*
X208626466Y-112850443D01*
X208456627Y-112901963D01*
X208390442Y-112908482D01*
X208324260Y-112915000D01*
X208235740Y-112915000D01*
X208169558Y-112908482D01*
X208103373Y-112901963D01*
X207933534Y-112850443D01*
X207777009Y-112766778D01*
X207741271Y-112737448D01*
X207639814Y-112654186D01*
X207556552Y-112552729D01*
X207527222Y-112516991D01*
X207443557Y-112360466D01*
X207392037Y-112190627D01*
X207374641Y-112014000D01*
X207392037Y-111837373D01*
X207443557Y-111667534D01*
X207527222Y-111511009D01*
X207556552Y-111475271D01*
X207639814Y-111373814D01*
X207741271Y-111290552D01*
X207777009Y-111261222D01*
X207933534Y-111177557D01*
X208103373Y-111126037D01*
X208169557Y-111119519D01*
X208235740Y-111113000D01*
X208324260Y-111113000D01*
X208390443Y-111119519D01*
X208390443Y-111119519D01*
G37*
G36*
X205850443Y-111119519D02*
G01*
X205916627Y-111126037D01*
X206086466Y-111177557D01*
X206242991Y-111261222D01*
X206278729Y-111290552D01*
X206380186Y-111373814D01*
X206463448Y-111475271D01*
X206492778Y-111511009D01*
X206576443Y-111667534D01*
X206627963Y-111837373D01*
X206645359Y-112014000D01*
X206627963Y-112190627D01*
X206576443Y-112360466D01*
X206492778Y-112516991D01*
X206463448Y-112552729D01*
X206380186Y-112654186D01*
X206278729Y-112737448D01*
X206242991Y-112766778D01*
X206086466Y-112850443D01*
X205916627Y-112901963D01*
X205850442Y-112908482D01*
X205784260Y-112915000D01*
X205695740Y-112915000D01*
X205629558Y-112908482D01*
X205563373Y-112901963D01*
X205393534Y-112850443D01*
X205237009Y-112766778D01*
X205201271Y-112737448D01*
X205099814Y-112654186D01*
X205016552Y-112552729D01*
X204987222Y-112516991D01*
X204903557Y-112360466D01*
X204852037Y-112190627D01*
X204834641Y-112014000D01*
X204852037Y-111837373D01*
X204903557Y-111667534D01*
X204987222Y-111511009D01*
X205016552Y-111475271D01*
X205099814Y-111373814D01*
X205201271Y-111290552D01*
X205237009Y-111261222D01*
X205393534Y-111177557D01*
X205563373Y-111126037D01*
X205629557Y-111119519D01*
X205695740Y-111113000D01*
X205784260Y-111113000D01*
X205850443Y-111119519D01*
X205850443Y-111119519D01*
G37*
G36*
X203310443Y-111119519D02*
G01*
X203376627Y-111126037D01*
X203546466Y-111177557D01*
X203702991Y-111261222D01*
X203738729Y-111290552D01*
X203840186Y-111373814D01*
X203923448Y-111475271D01*
X203952778Y-111511009D01*
X204036443Y-111667534D01*
X204087963Y-111837373D01*
X204105359Y-112014000D01*
X204087963Y-112190627D01*
X204036443Y-112360466D01*
X203952778Y-112516991D01*
X203923448Y-112552729D01*
X203840186Y-112654186D01*
X203738729Y-112737448D01*
X203702991Y-112766778D01*
X203546466Y-112850443D01*
X203376627Y-112901963D01*
X203310442Y-112908482D01*
X203244260Y-112915000D01*
X203155740Y-112915000D01*
X203089558Y-112908482D01*
X203023373Y-112901963D01*
X202853534Y-112850443D01*
X202697009Y-112766778D01*
X202661271Y-112737448D01*
X202559814Y-112654186D01*
X202476552Y-112552729D01*
X202447222Y-112516991D01*
X202363557Y-112360466D01*
X202312037Y-112190627D01*
X202294641Y-112014000D01*
X202312037Y-111837373D01*
X202363557Y-111667534D01*
X202447222Y-111511009D01*
X202476552Y-111475271D01*
X202559814Y-111373814D01*
X202661271Y-111290552D01*
X202697009Y-111261222D01*
X202853534Y-111177557D01*
X203023373Y-111126037D01*
X203089557Y-111119519D01*
X203155740Y-111113000D01*
X203244260Y-111113000D01*
X203310443Y-111119519D01*
X203310443Y-111119519D01*
G37*
G36*
X200770443Y-111119519D02*
G01*
X200836627Y-111126037D01*
X201006466Y-111177557D01*
X201162991Y-111261222D01*
X201198729Y-111290552D01*
X201300186Y-111373814D01*
X201383448Y-111475271D01*
X201412778Y-111511009D01*
X201496443Y-111667534D01*
X201547963Y-111837373D01*
X201565359Y-112014000D01*
X201547963Y-112190627D01*
X201496443Y-112360466D01*
X201412778Y-112516991D01*
X201383448Y-112552729D01*
X201300186Y-112654186D01*
X201198729Y-112737448D01*
X201162991Y-112766778D01*
X201006466Y-112850443D01*
X200836627Y-112901963D01*
X200770442Y-112908482D01*
X200704260Y-112915000D01*
X200615740Y-112915000D01*
X200549558Y-112908482D01*
X200483373Y-112901963D01*
X200313534Y-112850443D01*
X200157009Y-112766778D01*
X200121271Y-112737448D01*
X200019814Y-112654186D01*
X199936552Y-112552729D01*
X199907222Y-112516991D01*
X199823557Y-112360466D01*
X199772037Y-112190627D01*
X199754641Y-112014000D01*
X199772037Y-111837373D01*
X199823557Y-111667534D01*
X199907222Y-111511009D01*
X199936552Y-111475271D01*
X200019814Y-111373814D01*
X200121271Y-111290552D01*
X200157009Y-111261222D01*
X200313534Y-111177557D01*
X200483373Y-111126037D01*
X200549557Y-111119519D01*
X200615740Y-111113000D01*
X200704260Y-111113000D01*
X200770443Y-111119519D01*
X200770443Y-111119519D01*
G37*
G36*
X199021000Y-112915000D02*
G01*
X197219000Y-112915000D01*
X197219000Y-111113000D01*
X199021000Y-111113000D01*
X199021000Y-112915000D01*
X199021000Y-112915000D01*
G37*
G36*
X174862443Y-111119519D02*
G01*
X174928627Y-111126037D01*
X175098466Y-111177557D01*
X175254991Y-111261222D01*
X175290729Y-111290552D01*
X175392186Y-111373814D01*
X175475448Y-111475271D01*
X175504778Y-111511009D01*
X175588443Y-111667534D01*
X175639963Y-111837373D01*
X175657359Y-112014000D01*
X175639963Y-112190627D01*
X175588443Y-112360466D01*
X175504778Y-112516991D01*
X175475448Y-112552729D01*
X175392186Y-112654186D01*
X175290729Y-112737448D01*
X175254991Y-112766778D01*
X175098466Y-112850443D01*
X174928627Y-112901963D01*
X174862442Y-112908482D01*
X174796260Y-112915000D01*
X174707740Y-112915000D01*
X174641558Y-112908482D01*
X174575373Y-112901963D01*
X174405534Y-112850443D01*
X174249009Y-112766778D01*
X174213271Y-112737448D01*
X174111814Y-112654186D01*
X174028552Y-112552729D01*
X173999222Y-112516991D01*
X173915557Y-112360466D01*
X173864037Y-112190627D01*
X173846641Y-112014000D01*
X173864037Y-111837373D01*
X173915557Y-111667534D01*
X173999222Y-111511009D01*
X174028552Y-111475271D01*
X174111814Y-111373814D01*
X174213271Y-111290552D01*
X174249009Y-111261222D01*
X174405534Y-111177557D01*
X174575373Y-111126037D01*
X174641557Y-111119519D01*
X174707740Y-111113000D01*
X174796260Y-111113000D01*
X174862443Y-111119519D01*
X174862443Y-111119519D01*
G37*
G36*
X179942443Y-111119519D02*
G01*
X180008627Y-111126037D01*
X180178466Y-111177557D01*
X180334991Y-111261222D01*
X180370729Y-111290552D01*
X180472186Y-111373814D01*
X180555448Y-111475271D01*
X180584778Y-111511009D01*
X180668443Y-111667534D01*
X180719963Y-111837373D01*
X180737359Y-112014000D01*
X180719963Y-112190627D01*
X180668443Y-112360466D01*
X180584778Y-112516991D01*
X180555448Y-112552729D01*
X180472186Y-112654186D01*
X180370729Y-112737448D01*
X180334991Y-112766778D01*
X180178466Y-112850443D01*
X180008627Y-112901963D01*
X179942442Y-112908482D01*
X179876260Y-112915000D01*
X179787740Y-112915000D01*
X179721558Y-112908482D01*
X179655373Y-112901963D01*
X179485534Y-112850443D01*
X179329009Y-112766778D01*
X179293271Y-112737448D01*
X179191814Y-112654186D01*
X179108552Y-112552729D01*
X179079222Y-112516991D01*
X178995557Y-112360466D01*
X178944037Y-112190627D01*
X178926641Y-112014000D01*
X178944037Y-111837373D01*
X178995557Y-111667534D01*
X179079222Y-111511009D01*
X179108552Y-111475271D01*
X179191814Y-111373814D01*
X179293271Y-111290552D01*
X179329009Y-111261222D01*
X179485534Y-111177557D01*
X179655373Y-111126037D01*
X179721557Y-111119519D01*
X179787740Y-111113000D01*
X179876260Y-111113000D01*
X179942443Y-111119519D01*
X179942443Y-111119519D01*
G37*
G36*
X183273000Y-112915000D02*
G01*
X181471000Y-112915000D01*
X181471000Y-111113000D01*
X183273000Y-111113000D01*
X183273000Y-112915000D01*
X183273000Y-112915000D01*
G37*
G36*
X167027000Y-112915000D02*
G01*
X166025000Y-112915000D01*
X166025000Y-111113000D01*
X167027000Y-111113000D01*
X167027000Y-112915000D01*
X167027000Y-112915000D01*
G37*
G36*
X170427000Y-112915000D02*
G01*
X169425000Y-112915000D01*
X169425000Y-111113000D01*
X170427000Y-111113000D01*
X170427000Y-112915000D01*
X170427000Y-112915000D01*
G37*
G36*
X177402443Y-111119519D02*
G01*
X177468627Y-111126037D01*
X177638466Y-111177557D01*
X177794991Y-111261222D01*
X177830729Y-111290552D01*
X177932186Y-111373814D01*
X178015448Y-111475271D01*
X178044778Y-111511009D01*
X178128443Y-111667534D01*
X178179963Y-111837373D01*
X178197359Y-112014000D01*
X178179963Y-112190627D01*
X178128443Y-112360466D01*
X178044778Y-112516991D01*
X178015448Y-112552729D01*
X177932186Y-112654186D01*
X177830729Y-112737448D01*
X177794991Y-112766778D01*
X177638466Y-112850443D01*
X177468627Y-112901963D01*
X177402442Y-112908482D01*
X177336260Y-112915000D01*
X177247740Y-112915000D01*
X177181558Y-112908482D01*
X177115373Y-112901963D01*
X176945534Y-112850443D01*
X176789009Y-112766778D01*
X176753271Y-112737448D01*
X176651814Y-112654186D01*
X176568552Y-112552729D01*
X176539222Y-112516991D01*
X176455557Y-112360466D01*
X176404037Y-112190627D01*
X176386641Y-112014000D01*
X176404037Y-111837373D01*
X176455557Y-111667534D01*
X176539222Y-111511009D01*
X176568552Y-111475271D01*
X176651814Y-111373814D01*
X176753271Y-111290552D01*
X176789009Y-111261222D01*
X176945534Y-111177557D01*
X177115373Y-111126037D01*
X177181557Y-111119519D01*
X177247740Y-111113000D01*
X177336260Y-111113000D01*
X177402443Y-111119519D01*
X177402443Y-111119519D01*
G37*
G36*
X148446442Y-110865518D02*
G01*
X148512627Y-110872037D01*
X148682466Y-110923557D01*
X148838991Y-111007222D01*
X148874729Y-111036552D01*
X148976186Y-111119814D01*
X149059448Y-111221271D01*
X149088778Y-111257009D01*
X149172443Y-111413534D01*
X149223963Y-111583373D01*
X149241359Y-111760000D01*
X149223963Y-111936627D01*
X149172443Y-112106466D01*
X149088778Y-112262991D01*
X149059448Y-112298729D01*
X148976186Y-112400186D01*
X148874729Y-112483448D01*
X148838991Y-112512778D01*
X148809329Y-112528633D01*
X148728164Y-112572017D01*
X148682466Y-112596443D01*
X148512627Y-112647963D01*
X148449453Y-112654185D01*
X148380260Y-112661000D01*
X148291740Y-112661000D01*
X148222547Y-112654185D01*
X148159373Y-112647963D01*
X147989534Y-112596443D01*
X147943837Y-112572017D01*
X147862671Y-112528633D01*
X147833009Y-112512778D01*
X147797271Y-112483448D01*
X147695814Y-112400186D01*
X147612552Y-112298729D01*
X147583222Y-112262991D01*
X147499557Y-112106466D01*
X147448037Y-111936627D01*
X147430641Y-111760000D01*
X147448037Y-111583373D01*
X147499557Y-111413534D01*
X147583222Y-111257009D01*
X147612552Y-111221271D01*
X147695814Y-111119814D01*
X147797271Y-111036552D01*
X147833009Y-111007222D01*
X147989534Y-110923557D01*
X148159373Y-110872037D01*
X148225558Y-110865518D01*
X148291740Y-110859000D01*
X148380260Y-110859000D01*
X148446442Y-110865518D01*
X148446442Y-110865518D01*
G37*
G36*
X150986442Y-110865518D02*
G01*
X151052627Y-110872037D01*
X151222466Y-110923557D01*
X151378991Y-111007222D01*
X151414729Y-111036552D01*
X151516186Y-111119814D01*
X151599448Y-111221271D01*
X151628778Y-111257009D01*
X151712443Y-111413534D01*
X151763963Y-111583373D01*
X151781359Y-111760000D01*
X151763963Y-111936627D01*
X151712443Y-112106466D01*
X151628778Y-112262991D01*
X151599448Y-112298729D01*
X151516186Y-112400186D01*
X151414729Y-112483448D01*
X151378991Y-112512778D01*
X151349329Y-112528633D01*
X151268164Y-112572017D01*
X151222466Y-112596443D01*
X151052627Y-112647963D01*
X150989453Y-112654185D01*
X150920260Y-112661000D01*
X150831740Y-112661000D01*
X150762547Y-112654185D01*
X150699373Y-112647963D01*
X150529534Y-112596443D01*
X150483837Y-112572017D01*
X150402671Y-112528633D01*
X150373009Y-112512778D01*
X150337271Y-112483448D01*
X150235814Y-112400186D01*
X150152552Y-112298729D01*
X150123222Y-112262991D01*
X150039557Y-112106466D01*
X149988037Y-111936627D01*
X149970641Y-111760000D01*
X149988037Y-111583373D01*
X150039557Y-111413534D01*
X150123222Y-111257009D01*
X150152552Y-111221271D01*
X150235814Y-111119814D01*
X150337271Y-111036552D01*
X150373009Y-111007222D01*
X150529534Y-110923557D01*
X150699373Y-110872037D01*
X150765558Y-110865518D01*
X150831740Y-110859000D01*
X150920260Y-110859000D01*
X150986442Y-110865518D01*
X150986442Y-110865518D01*
G37*
G36*
X187024674Y-110358465D02*
G01*
X187062367Y-110369899D01*
X187097103Y-110388466D01*
X187127548Y-110413452D01*
X187152534Y-110443897D01*
X187171101Y-110478633D01*
X187182535Y-110516326D01*
X187187000Y-110561661D01*
X187187000Y-111398339D01*
X187182535Y-111443674D01*
X187171101Y-111481367D01*
X187152534Y-111516103D01*
X187127548Y-111546548D01*
X187097103Y-111571534D01*
X187062367Y-111590101D01*
X187024674Y-111601535D01*
X186979339Y-111606000D01*
X185892661Y-111606000D01*
X185847326Y-111601535D01*
X185809633Y-111590101D01*
X185774897Y-111571534D01*
X185744452Y-111546548D01*
X185719466Y-111516103D01*
X185700899Y-111481367D01*
X185689465Y-111443674D01*
X185685000Y-111398339D01*
X185685000Y-110561661D01*
X185689465Y-110516326D01*
X185700899Y-110478633D01*
X185719466Y-110443897D01*
X185744452Y-110413452D01*
X185774897Y-110388466D01*
X185809633Y-110369899D01*
X185847326Y-110358465D01*
X185892661Y-110354000D01*
X186979339Y-110354000D01*
X187024674Y-110358465D01*
X187024674Y-110358465D01*
G37*
G36*
X214998500Y-110858500D02*
G01*
X212991500Y-110858500D01*
X212991500Y-108851500D01*
X214998500Y-108851500D01*
X214998500Y-110858500D01*
X214998500Y-110858500D01*
G37*
G36*
X192531425Y-108856988D02*
G01*
X192697710Y-108890063D01*
X192880336Y-108965709D01*
X193044694Y-109075530D01*
X193184470Y-109215306D01*
X193294291Y-109379664D01*
X193369937Y-109562290D01*
X193408500Y-109756164D01*
X193408500Y-109953836D01*
X193369937Y-110147710D01*
X193294291Y-110330336D01*
X193184470Y-110494694D01*
X193044694Y-110634470D01*
X192880336Y-110744291D01*
X192697710Y-110819937D01*
X192531425Y-110853012D01*
X192503837Y-110858500D01*
X192306163Y-110858500D01*
X192278575Y-110853012D01*
X192112290Y-110819937D01*
X191929664Y-110744291D01*
X191765306Y-110634470D01*
X191625530Y-110494694D01*
X191515709Y-110330336D01*
X191440063Y-110147710D01*
X191401500Y-109953836D01*
X191401500Y-109756164D01*
X191440063Y-109562290D01*
X191515709Y-109379664D01*
X191625530Y-109215306D01*
X191765306Y-109075530D01*
X191929664Y-108965709D01*
X192112290Y-108890063D01*
X192278575Y-108856988D01*
X192306163Y-108851500D01*
X192503837Y-108851500D01*
X192531425Y-108856988D01*
X192531425Y-108856988D01*
G37*
G36*
X195948500Y-110858500D02*
G01*
X193941500Y-110858500D01*
X193941500Y-108851500D01*
X195948500Y-108851500D01*
X195948500Y-110858500D01*
X195948500Y-110858500D01*
G37*
G36*
X211581425Y-108856988D02*
G01*
X211747710Y-108890063D01*
X211930336Y-108965709D01*
X212094694Y-109075530D01*
X212234470Y-109215306D01*
X212344291Y-109379664D01*
X212419937Y-109562290D01*
X212458500Y-109756164D01*
X212458500Y-109953836D01*
X212419937Y-110147710D01*
X212344291Y-110330336D01*
X212234470Y-110494694D01*
X212094694Y-110634470D01*
X211930336Y-110744291D01*
X211747710Y-110819937D01*
X211581425Y-110853012D01*
X211553837Y-110858500D01*
X211356163Y-110858500D01*
X211328575Y-110853012D01*
X211162290Y-110819937D01*
X210979664Y-110744291D01*
X210815306Y-110634470D01*
X210675530Y-110494694D01*
X210565709Y-110330336D01*
X210490063Y-110147710D01*
X210451500Y-109953836D01*
X210451500Y-109756164D01*
X210490063Y-109562290D01*
X210565709Y-109379664D01*
X210675530Y-109215306D01*
X210815306Y-109075530D01*
X210979664Y-108965709D01*
X211162290Y-108890063D01*
X211328575Y-108856988D01*
X211356163Y-108851500D01*
X211553837Y-108851500D01*
X211581425Y-108856988D01*
X211581425Y-108856988D01*
G37*
G36*
X150986443Y-108325519D02*
G01*
X151052627Y-108332037D01*
X151222466Y-108383557D01*
X151222468Y-108383558D01*
X151252203Y-108399452D01*
X151378991Y-108467222D01*
X151403301Y-108487173D01*
X151516186Y-108579814D01*
X151599448Y-108681271D01*
X151628778Y-108717009D01*
X151628779Y-108717011D01*
X151700666Y-108851500D01*
X151712443Y-108873534D01*
X151763963Y-109043373D01*
X151781359Y-109220000D01*
X151763963Y-109396627D01*
X151712443Y-109566466D01*
X151628778Y-109722991D01*
X151601554Y-109756163D01*
X151516186Y-109860186D01*
X151414729Y-109943448D01*
X151378991Y-109972778D01*
X151222466Y-110056443D01*
X151052627Y-110107963D01*
X150986443Y-110114481D01*
X150920260Y-110121000D01*
X150831740Y-110121000D01*
X150765557Y-110114481D01*
X150699373Y-110107963D01*
X150529534Y-110056443D01*
X150373009Y-109972778D01*
X150337271Y-109943448D01*
X150235814Y-109860186D01*
X150150446Y-109756163D01*
X150123222Y-109722991D01*
X150039557Y-109566466D01*
X149988037Y-109396627D01*
X149970641Y-109220000D01*
X149988037Y-109043373D01*
X150039557Y-108873534D01*
X150051335Y-108851500D01*
X150123221Y-108717011D01*
X150123222Y-108717009D01*
X150152552Y-108681271D01*
X150235814Y-108579814D01*
X150348699Y-108487173D01*
X150373009Y-108467222D01*
X150499797Y-108399452D01*
X150529532Y-108383558D01*
X150529534Y-108383557D01*
X150699373Y-108332037D01*
X150765557Y-108325519D01*
X150831740Y-108319000D01*
X150920260Y-108319000D01*
X150986443Y-108325519D01*
X150986443Y-108325519D01*
G37*
G36*
X148446443Y-108325519D02*
G01*
X148512627Y-108332037D01*
X148682466Y-108383557D01*
X148682468Y-108383558D01*
X148712203Y-108399452D01*
X148838991Y-108467222D01*
X148863301Y-108487173D01*
X148976186Y-108579814D01*
X149059448Y-108681271D01*
X149088778Y-108717009D01*
X149088779Y-108717011D01*
X149160666Y-108851500D01*
X149172443Y-108873534D01*
X149223963Y-109043373D01*
X149241359Y-109220000D01*
X149223963Y-109396627D01*
X149172443Y-109566466D01*
X149088778Y-109722991D01*
X149061554Y-109756163D01*
X148976186Y-109860186D01*
X148874729Y-109943448D01*
X148838991Y-109972778D01*
X148682466Y-110056443D01*
X148512627Y-110107963D01*
X148446443Y-110114481D01*
X148380260Y-110121000D01*
X148291740Y-110121000D01*
X148225557Y-110114481D01*
X148159373Y-110107963D01*
X147989534Y-110056443D01*
X147833009Y-109972778D01*
X147797271Y-109943448D01*
X147695814Y-109860186D01*
X147610446Y-109756163D01*
X147583222Y-109722991D01*
X147499557Y-109566466D01*
X147448037Y-109396627D01*
X147430641Y-109220000D01*
X147448037Y-109043373D01*
X147499557Y-108873534D01*
X147511335Y-108851500D01*
X147583221Y-108717011D01*
X147583222Y-108717009D01*
X147612552Y-108681271D01*
X147695814Y-108579814D01*
X147808699Y-108487173D01*
X147833009Y-108467222D01*
X147959797Y-108399452D01*
X147989532Y-108383558D01*
X147989534Y-108383557D01*
X148159373Y-108332037D01*
X148225557Y-108325519D01*
X148291740Y-108319000D01*
X148380260Y-108319000D01*
X148446443Y-108325519D01*
X148446443Y-108325519D01*
G37*
G36*
X165545674Y-108219465D02*
G01*
X165583367Y-108230899D01*
X165618103Y-108249466D01*
X165648548Y-108274452D01*
X165673534Y-108304897D01*
X165692101Y-108339633D01*
X165703535Y-108377326D01*
X165708000Y-108422661D01*
X165708000Y-109509339D01*
X165703535Y-109554674D01*
X165692101Y-109592367D01*
X165673534Y-109627103D01*
X165648548Y-109657548D01*
X165618103Y-109682534D01*
X165583367Y-109701101D01*
X165545674Y-109712535D01*
X165500339Y-109717000D01*
X164663661Y-109717000D01*
X164618326Y-109712535D01*
X164580633Y-109701101D01*
X164545897Y-109682534D01*
X164515452Y-109657548D01*
X164490466Y-109627103D01*
X164471899Y-109592367D01*
X164460465Y-109554674D01*
X164456000Y-109509339D01*
X164456000Y-108422661D01*
X164460465Y-108377326D01*
X164471899Y-108339633D01*
X164490466Y-108304897D01*
X164515452Y-108274452D01*
X164545897Y-108249466D01*
X164580633Y-108230899D01*
X164618326Y-108219465D01*
X164663661Y-108215000D01*
X165500339Y-108215000D01*
X165545674Y-108219465D01*
X165545674Y-108219465D01*
G37*
G36*
X167595674Y-108219465D02*
G01*
X167633367Y-108230899D01*
X167668103Y-108249466D01*
X167698548Y-108274452D01*
X167723534Y-108304897D01*
X167742101Y-108339633D01*
X167753535Y-108377326D01*
X167758000Y-108422661D01*
X167758000Y-109509339D01*
X167753535Y-109554674D01*
X167742101Y-109592367D01*
X167723534Y-109627103D01*
X167698548Y-109657548D01*
X167668103Y-109682534D01*
X167633367Y-109701101D01*
X167595674Y-109712535D01*
X167550339Y-109717000D01*
X166713661Y-109717000D01*
X166668326Y-109712535D01*
X166630633Y-109701101D01*
X166595897Y-109682534D01*
X166565452Y-109657548D01*
X166540466Y-109627103D01*
X166521899Y-109592367D01*
X166510465Y-109554674D01*
X166506000Y-109509339D01*
X166506000Y-108422661D01*
X166510465Y-108377326D01*
X166521899Y-108339633D01*
X166540466Y-108304897D01*
X166565452Y-108274452D01*
X166595897Y-108249466D01*
X166630633Y-108230899D01*
X166668326Y-108219465D01*
X166713661Y-108215000D01*
X167550339Y-108215000D01*
X167595674Y-108219465D01*
X167595674Y-108219465D01*
G37*
G36*
X182706674Y-108344465D02*
G01*
X182744367Y-108355899D01*
X182779103Y-108374466D01*
X182809548Y-108399452D01*
X182834534Y-108429897D01*
X182853101Y-108464633D01*
X182864535Y-108502326D01*
X182869000Y-108547661D01*
X182869000Y-109384339D01*
X182864535Y-109429674D01*
X182853101Y-109467367D01*
X182834534Y-109502103D01*
X182809548Y-109532548D01*
X182779103Y-109557534D01*
X182744367Y-109576101D01*
X182706674Y-109587535D01*
X182661339Y-109592000D01*
X181574661Y-109592000D01*
X181529326Y-109587535D01*
X181491633Y-109576101D01*
X181456897Y-109557534D01*
X181426452Y-109532548D01*
X181401466Y-109502103D01*
X181382899Y-109467367D01*
X181371465Y-109429674D01*
X181367000Y-109384339D01*
X181367000Y-108547661D01*
X181371465Y-108502326D01*
X181382899Y-108464633D01*
X181401466Y-108429897D01*
X181426452Y-108399452D01*
X181456897Y-108374466D01*
X181491633Y-108355899D01*
X181529326Y-108344465D01*
X181574661Y-108340000D01*
X182661339Y-108340000D01*
X182706674Y-108344465D01*
X182706674Y-108344465D01*
G37*
G36*
X169942295Y-106343323D02*
G01*
X169949309Y-106345451D01*
X169963077Y-106352810D01*
X169985716Y-106362187D01*
X170009749Y-106366967D01*
X170034253Y-106366967D01*
X170058286Y-106362186D01*
X170080923Y-106352810D01*
X170094691Y-106345451D01*
X170101705Y-106343323D01*
X170115140Y-106342000D01*
X170428860Y-106342000D01*
X170442295Y-106343323D01*
X170449309Y-106345451D01*
X170463077Y-106352810D01*
X170485716Y-106362187D01*
X170509749Y-106366967D01*
X170534253Y-106366967D01*
X170558286Y-106362186D01*
X170580923Y-106352810D01*
X170594691Y-106345451D01*
X170601705Y-106343323D01*
X170615140Y-106342000D01*
X170928860Y-106342000D01*
X170942295Y-106343323D01*
X170949309Y-106345451D01*
X170963077Y-106352810D01*
X170985716Y-106362187D01*
X171009749Y-106366967D01*
X171034253Y-106366967D01*
X171058286Y-106362186D01*
X171080923Y-106352810D01*
X171094691Y-106345451D01*
X171101705Y-106343323D01*
X171115140Y-106342000D01*
X171428860Y-106342000D01*
X171442295Y-106343323D01*
X171449309Y-106345451D01*
X171463077Y-106352810D01*
X171485716Y-106362187D01*
X171509749Y-106366967D01*
X171534253Y-106366967D01*
X171558286Y-106362186D01*
X171580923Y-106352810D01*
X171594691Y-106345451D01*
X171601705Y-106343323D01*
X171615140Y-106342000D01*
X171928860Y-106342000D01*
X171942295Y-106343323D01*
X171949309Y-106345451D01*
X171963077Y-106352810D01*
X171985716Y-106362187D01*
X172009749Y-106366967D01*
X172034253Y-106366967D01*
X172058286Y-106362186D01*
X172080923Y-106352810D01*
X172094691Y-106345451D01*
X172101705Y-106343323D01*
X172115140Y-106342000D01*
X172428860Y-106342000D01*
X172442295Y-106343323D01*
X172449309Y-106345451D01*
X172463077Y-106352810D01*
X172485716Y-106362187D01*
X172509749Y-106366967D01*
X172534253Y-106366967D01*
X172558286Y-106362186D01*
X172580923Y-106352810D01*
X172594691Y-106345451D01*
X172601705Y-106343323D01*
X172615140Y-106342000D01*
X172928860Y-106342000D01*
X172942295Y-106343323D01*
X172949309Y-106345451D01*
X172963077Y-106352810D01*
X172985716Y-106362187D01*
X173009749Y-106366967D01*
X173034253Y-106366967D01*
X173058286Y-106362186D01*
X173080923Y-106352810D01*
X173094691Y-106345451D01*
X173101705Y-106343323D01*
X173115140Y-106342000D01*
X173428860Y-106342000D01*
X173442295Y-106343323D01*
X173449309Y-106345451D01*
X173463077Y-106352810D01*
X173485716Y-106362187D01*
X173509749Y-106366967D01*
X173534253Y-106366967D01*
X173558286Y-106362186D01*
X173580923Y-106352810D01*
X173594691Y-106345451D01*
X173601705Y-106343323D01*
X173615140Y-106342000D01*
X173928860Y-106342000D01*
X173942295Y-106343323D01*
X173949309Y-106345451D01*
X173963077Y-106352810D01*
X173985716Y-106362187D01*
X174009749Y-106366967D01*
X174034253Y-106366967D01*
X174058286Y-106362186D01*
X174080923Y-106352810D01*
X174094691Y-106345451D01*
X174101705Y-106343323D01*
X174115140Y-106342000D01*
X174428860Y-106342000D01*
X174442295Y-106343323D01*
X174449309Y-106345451D01*
X174463077Y-106352810D01*
X174485716Y-106362187D01*
X174509749Y-106366967D01*
X174534253Y-106366967D01*
X174558286Y-106362186D01*
X174580923Y-106352810D01*
X174594691Y-106345451D01*
X174601705Y-106343323D01*
X174615140Y-106342000D01*
X174928860Y-106342000D01*
X174942295Y-106343323D01*
X174949309Y-106345451D01*
X174963077Y-106352810D01*
X174985716Y-106362187D01*
X175009749Y-106366967D01*
X175034253Y-106366967D01*
X175058286Y-106362186D01*
X175080923Y-106352810D01*
X175094691Y-106345451D01*
X175101705Y-106343323D01*
X175115140Y-106342000D01*
X175428860Y-106342000D01*
X175442295Y-106343323D01*
X175449309Y-106345451D01*
X175463077Y-106352810D01*
X175485716Y-106362187D01*
X175509749Y-106366967D01*
X175534253Y-106366967D01*
X175558286Y-106362186D01*
X175580923Y-106352810D01*
X175594691Y-106345451D01*
X175601705Y-106343323D01*
X175615140Y-106342000D01*
X175928860Y-106342000D01*
X175942295Y-106343323D01*
X175949309Y-106345451D01*
X175963077Y-106352810D01*
X175985716Y-106362187D01*
X176009749Y-106366967D01*
X176034253Y-106366967D01*
X176058286Y-106362186D01*
X176080923Y-106352810D01*
X176094691Y-106345451D01*
X176101705Y-106343323D01*
X176115140Y-106342000D01*
X176428860Y-106342000D01*
X176442295Y-106343323D01*
X176449309Y-106345451D01*
X176463077Y-106352810D01*
X176485716Y-106362187D01*
X176509749Y-106366967D01*
X176534253Y-106366967D01*
X176558286Y-106362186D01*
X176580923Y-106352810D01*
X176594691Y-106345451D01*
X176601705Y-106343323D01*
X176615140Y-106342000D01*
X176928860Y-106342000D01*
X176942295Y-106343323D01*
X176949309Y-106345451D01*
X176963077Y-106352810D01*
X176985716Y-106362187D01*
X177009749Y-106366967D01*
X177034253Y-106366967D01*
X177058286Y-106362186D01*
X177080923Y-106352810D01*
X177094691Y-106345451D01*
X177101705Y-106343323D01*
X177115140Y-106342000D01*
X177428860Y-106342000D01*
X177442295Y-106343323D01*
X177449310Y-106345451D01*
X177455776Y-106348908D01*
X177461442Y-106353558D01*
X177466092Y-106359224D01*
X177469549Y-106365690D01*
X177471677Y-106372705D01*
X177473000Y-106386140D01*
X177473000Y-107949860D01*
X177471677Y-107963295D01*
X177469549Y-107970310D01*
X177466092Y-107976776D01*
X177461442Y-107982442D01*
X177455776Y-107987092D01*
X177449310Y-107990549D01*
X177442295Y-107992677D01*
X177428860Y-107994000D01*
X177115140Y-107994000D01*
X177101705Y-107992677D01*
X177094691Y-107990549D01*
X177080923Y-107983190D01*
X177058284Y-107973813D01*
X177034251Y-107969033D01*
X177009747Y-107969033D01*
X176985714Y-107973814D01*
X176963077Y-107983190D01*
X176949309Y-107990549D01*
X176942295Y-107992677D01*
X176928860Y-107994000D01*
X176615140Y-107994000D01*
X176601705Y-107992677D01*
X176594691Y-107990549D01*
X176580923Y-107983190D01*
X176558284Y-107973813D01*
X176534251Y-107969033D01*
X176509747Y-107969033D01*
X176485714Y-107973814D01*
X176463077Y-107983190D01*
X176449309Y-107990549D01*
X176442295Y-107992677D01*
X176428860Y-107994000D01*
X176115140Y-107994000D01*
X176101705Y-107992677D01*
X176094691Y-107990549D01*
X176080923Y-107983190D01*
X176058284Y-107973813D01*
X176034251Y-107969033D01*
X176009747Y-107969033D01*
X175985714Y-107973814D01*
X175963077Y-107983190D01*
X175949309Y-107990549D01*
X175942295Y-107992677D01*
X175928860Y-107994000D01*
X175615140Y-107994000D01*
X175601705Y-107992677D01*
X175594691Y-107990549D01*
X175580923Y-107983190D01*
X175558284Y-107973813D01*
X175534251Y-107969033D01*
X175509747Y-107969033D01*
X175485714Y-107973814D01*
X175463077Y-107983190D01*
X175449309Y-107990549D01*
X175442295Y-107992677D01*
X175428860Y-107994000D01*
X175115140Y-107994000D01*
X175101705Y-107992677D01*
X175094691Y-107990549D01*
X175080923Y-107983190D01*
X175058284Y-107973813D01*
X175034251Y-107969033D01*
X175009747Y-107969033D01*
X174985714Y-107973814D01*
X174963077Y-107983190D01*
X174949309Y-107990549D01*
X174942295Y-107992677D01*
X174928860Y-107994000D01*
X174615140Y-107994000D01*
X174601705Y-107992677D01*
X174594691Y-107990549D01*
X174580923Y-107983190D01*
X174558284Y-107973813D01*
X174534251Y-107969033D01*
X174509747Y-107969033D01*
X174485714Y-107973814D01*
X174463077Y-107983190D01*
X174449309Y-107990549D01*
X174442295Y-107992677D01*
X174428860Y-107994000D01*
X174115140Y-107994000D01*
X174101705Y-107992677D01*
X174094691Y-107990549D01*
X174080923Y-107983190D01*
X174058284Y-107973813D01*
X174034251Y-107969033D01*
X174009747Y-107969033D01*
X173985714Y-107973814D01*
X173963077Y-107983190D01*
X173949309Y-107990549D01*
X173942295Y-107992677D01*
X173928860Y-107994000D01*
X173615140Y-107994000D01*
X173601705Y-107992677D01*
X173594691Y-107990549D01*
X173580923Y-107983190D01*
X173558284Y-107973813D01*
X173534251Y-107969033D01*
X173509747Y-107969033D01*
X173485714Y-107973814D01*
X173463077Y-107983190D01*
X173449309Y-107990549D01*
X173442295Y-107992677D01*
X173428860Y-107994000D01*
X173115140Y-107994000D01*
X173101705Y-107992677D01*
X173094691Y-107990549D01*
X173080923Y-107983190D01*
X173058284Y-107973813D01*
X173034251Y-107969033D01*
X173009747Y-107969033D01*
X172985714Y-107973814D01*
X172963077Y-107983190D01*
X172949309Y-107990549D01*
X172942295Y-107992677D01*
X172928860Y-107994000D01*
X172615140Y-107994000D01*
X172601705Y-107992677D01*
X172594691Y-107990549D01*
X172580923Y-107983190D01*
X172558284Y-107973813D01*
X172534251Y-107969033D01*
X172509747Y-107969033D01*
X172485714Y-107973814D01*
X172463077Y-107983190D01*
X172449309Y-107990549D01*
X172442295Y-107992677D01*
X172428860Y-107994000D01*
X172115140Y-107994000D01*
X172101705Y-107992677D01*
X172094691Y-107990549D01*
X172080923Y-107983190D01*
X172058284Y-107973813D01*
X172034251Y-107969033D01*
X172009747Y-107969033D01*
X171985714Y-107973814D01*
X171963077Y-107983190D01*
X171949309Y-107990549D01*
X171942295Y-107992677D01*
X171928860Y-107994000D01*
X171615140Y-107994000D01*
X171601705Y-107992677D01*
X171594691Y-107990549D01*
X171580923Y-107983190D01*
X171558284Y-107973813D01*
X171534251Y-107969033D01*
X171509747Y-107969033D01*
X171485714Y-107973814D01*
X171463077Y-107983190D01*
X171449309Y-107990549D01*
X171442295Y-107992677D01*
X171428860Y-107994000D01*
X171115140Y-107994000D01*
X171101705Y-107992677D01*
X171094691Y-107990549D01*
X171080923Y-107983190D01*
X171058284Y-107973813D01*
X171034251Y-107969033D01*
X171009747Y-107969033D01*
X170985714Y-107973814D01*
X170963077Y-107983190D01*
X170949309Y-107990549D01*
X170942295Y-107992677D01*
X170928860Y-107994000D01*
X170615140Y-107994000D01*
X170601705Y-107992677D01*
X170594691Y-107990549D01*
X170580923Y-107983190D01*
X170558284Y-107973813D01*
X170534251Y-107969033D01*
X170509747Y-107969033D01*
X170485714Y-107973814D01*
X170463077Y-107983190D01*
X170449309Y-107990549D01*
X170442295Y-107992677D01*
X170428860Y-107994000D01*
X170115140Y-107994000D01*
X170101705Y-107992677D01*
X170094691Y-107990549D01*
X170080923Y-107983190D01*
X170058284Y-107973813D01*
X170034251Y-107969033D01*
X170009747Y-107969033D01*
X169985714Y-107973814D01*
X169963077Y-107983190D01*
X169949309Y-107990549D01*
X169942295Y-107992677D01*
X169928860Y-107994000D01*
X169615140Y-107994000D01*
X169601705Y-107992677D01*
X169594690Y-107990549D01*
X169588224Y-107987092D01*
X169582558Y-107982442D01*
X169577908Y-107976776D01*
X169574451Y-107970310D01*
X169572323Y-107963295D01*
X169571000Y-107949860D01*
X169571000Y-106386140D01*
X169572323Y-106372705D01*
X169574451Y-106365690D01*
X169577908Y-106359224D01*
X169582558Y-106353558D01*
X169588224Y-106348908D01*
X169594690Y-106345451D01*
X169601705Y-106343323D01*
X169615140Y-106342000D01*
X169928860Y-106342000D01*
X169942295Y-106343323D01*
X169942295Y-106343323D01*
G37*
G36*
X150986443Y-105785519D02*
G01*
X151052627Y-105792037D01*
X151222466Y-105843557D01*
X151378991Y-105927222D01*
X151414729Y-105956552D01*
X151516186Y-106039814D01*
X151599448Y-106141271D01*
X151628778Y-106177009D01*
X151628779Y-106177011D01*
X151700248Y-106310718D01*
X151712443Y-106333534D01*
X151763963Y-106503373D01*
X151781359Y-106680000D01*
X151763963Y-106856627D01*
X151712443Y-107026466D01*
X151628778Y-107182991D01*
X151599448Y-107218729D01*
X151516186Y-107320186D01*
X151414729Y-107403448D01*
X151378991Y-107432778D01*
X151378989Y-107432779D01*
X151239134Y-107507534D01*
X151222466Y-107516443D01*
X151052627Y-107567963D01*
X150986443Y-107574481D01*
X150920260Y-107581000D01*
X150831740Y-107581000D01*
X150765557Y-107574481D01*
X150699373Y-107567963D01*
X150529534Y-107516443D01*
X150512867Y-107507534D01*
X150373011Y-107432779D01*
X150373009Y-107432778D01*
X150337271Y-107403448D01*
X150235814Y-107320186D01*
X150152552Y-107218729D01*
X150123222Y-107182991D01*
X150039557Y-107026466D01*
X149988037Y-106856627D01*
X149970641Y-106680000D01*
X149988037Y-106503373D01*
X150039557Y-106333534D01*
X150051753Y-106310718D01*
X150123221Y-106177011D01*
X150123222Y-106177009D01*
X150152552Y-106141271D01*
X150235814Y-106039814D01*
X150337271Y-105956552D01*
X150373009Y-105927222D01*
X150529534Y-105843557D01*
X150699373Y-105792037D01*
X150765557Y-105785519D01*
X150831740Y-105779000D01*
X150920260Y-105779000D01*
X150986443Y-105785519D01*
X150986443Y-105785519D01*
G37*
G36*
X148446443Y-105785519D02*
G01*
X148512627Y-105792037D01*
X148682466Y-105843557D01*
X148838991Y-105927222D01*
X148874729Y-105956552D01*
X148976186Y-106039814D01*
X149059448Y-106141271D01*
X149088778Y-106177009D01*
X149088779Y-106177011D01*
X149160248Y-106310718D01*
X149172443Y-106333534D01*
X149223963Y-106503373D01*
X149241359Y-106680000D01*
X149223963Y-106856627D01*
X149172443Y-107026466D01*
X149088778Y-107182991D01*
X149059448Y-107218729D01*
X148976186Y-107320186D01*
X148874729Y-107403448D01*
X148838991Y-107432778D01*
X148838989Y-107432779D01*
X148699134Y-107507534D01*
X148682466Y-107516443D01*
X148512627Y-107567963D01*
X148446443Y-107574481D01*
X148380260Y-107581000D01*
X148291740Y-107581000D01*
X148225557Y-107574481D01*
X148159373Y-107567963D01*
X147989534Y-107516443D01*
X147972867Y-107507534D01*
X147833011Y-107432779D01*
X147833009Y-107432778D01*
X147797271Y-107403448D01*
X147695814Y-107320186D01*
X147612552Y-107218729D01*
X147583222Y-107182991D01*
X147499557Y-107026466D01*
X147448037Y-106856627D01*
X147430641Y-106680000D01*
X147448037Y-106503373D01*
X147499557Y-106333534D01*
X147511753Y-106310718D01*
X147583221Y-106177011D01*
X147583222Y-106177009D01*
X147612552Y-106141271D01*
X147695814Y-106039814D01*
X147797271Y-105956552D01*
X147833009Y-105927222D01*
X147989534Y-105843557D01*
X148159373Y-105792037D01*
X148225557Y-105785519D01*
X148291740Y-105779000D01*
X148380260Y-105779000D01*
X148446443Y-105785519D01*
X148446443Y-105785519D01*
G37*
G36*
X182706674Y-106294465D02*
G01*
X182744367Y-106305899D01*
X182779103Y-106324466D01*
X182809548Y-106349452D01*
X182834534Y-106379897D01*
X182853101Y-106414633D01*
X182864535Y-106452326D01*
X182869000Y-106497661D01*
X182869000Y-107334339D01*
X182864535Y-107379674D01*
X182853101Y-107417367D01*
X182834534Y-107452103D01*
X182809548Y-107482548D01*
X182779103Y-107507534D01*
X182744367Y-107526101D01*
X182706674Y-107537535D01*
X182661339Y-107542000D01*
X181574661Y-107542000D01*
X181529326Y-107537535D01*
X181491633Y-107526101D01*
X181456897Y-107507534D01*
X181426452Y-107482548D01*
X181401466Y-107452103D01*
X181382899Y-107417367D01*
X181371465Y-107379674D01*
X181367000Y-107334339D01*
X181367000Y-106497661D01*
X181371465Y-106452326D01*
X181382899Y-106414633D01*
X181401466Y-106379897D01*
X181426452Y-106349452D01*
X181456897Y-106324466D01*
X181491633Y-106305899D01*
X181529326Y-106294465D01*
X181574661Y-106290000D01*
X182661339Y-106290000D01*
X182706674Y-106294465D01*
X182706674Y-106294465D01*
G37*
G36*
X221631000Y-107181000D02*
G01*
X220329000Y-107181000D01*
X220329000Y-106179000D01*
X221631000Y-106179000D01*
X221631000Y-107181000D01*
X221631000Y-107181000D01*
G37*
G36*
X202581000Y-107181000D02*
G01*
X201279000Y-107181000D01*
X201279000Y-106179000D01*
X202581000Y-106179000D01*
X202581000Y-107181000D01*
X202581000Y-107181000D01*
G37*
G36*
X213321474Y-102808684D02*
G01*
X213539474Y-102898983D01*
X213693623Y-102962833D01*
X214028548Y-103186623D01*
X214313377Y-103471452D01*
X214537167Y-103806377D01*
X214590062Y-103934077D01*
X214691316Y-104178526D01*
X214769900Y-104573594D01*
X214769900Y-104976406D01*
X214691316Y-105371474D01*
X214637385Y-105501674D01*
X214537167Y-105743623D01*
X214313377Y-106078548D01*
X214028548Y-106363377D01*
X213693623Y-106587167D01*
X213539474Y-106651017D01*
X213321474Y-106741316D01*
X212926406Y-106819900D01*
X212523594Y-106819900D01*
X212128526Y-106741316D01*
X211910526Y-106651017D01*
X211756377Y-106587167D01*
X211421452Y-106363377D01*
X211136623Y-106078548D01*
X210912833Y-105743623D01*
X210812615Y-105501674D01*
X210758684Y-105371474D01*
X210680100Y-104976406D01*
X210680100Y-104573594D01*
X210758684Y-104178526D01*
X210859938Y-103934077D01*
X210912833Y-103806377D01*
X211136623Y-103471452D01*
X211421452Y-103186623D01*
X211756377Y-102962833D01*
X211910526Y-102898983D01*
X212128526Y-102808684D01*
X212523594Y-102730100D01*
X212926406Y-102730100D01*
X213321474Y-102808684D01*
X213321474Y-102808684D01*
G37*
G36*
X194271474Y-102808684D02*
G01*
X194489474Y-102898983D01*
X194643623Y-102962833D01*
X194978548Y-103186623D01*
X195263377Y-103471452D01*
X195487167Y-103806377D01*
X195540062Y-103934077D01*
X195641316Y-104178526D01*
X195719900Y-104573594D01*
X195719900Y-104976406D01*
X195641316Y-105371474D01*
X195587385Y-105501674D01*
X195487167Y-105743623D01*
X195263377Y-106078548D01*
X194978548Y-106363377D01*
X194643623Y-106587167D01*
X194489474Y-106651017D01*
X194271474Y-106741316D01*
X193876406Y-106819900D01*
X193473594Y-106819900D01*
X193078526Y-106741316D01*
X192860526Y-106651017D01*
X192706377Y-106587167D01*
X192371452Y-106363377D01*
X192086623Y-106078548D01*
X191862833Y-105743623D01*
X191762615Y-105501674D01*
X191708684Y-105371474D01*
X191630100Y-104976406D01*
X191630100Y-104573594D01*
X191708684Y-104178526D01*
X191809938Y-103934077D01*
X191862833Y-103806377D01*
X192086623Y-103471452D01*
X192371452Y-103186623D01*
X192706377Y-102962833D01*
X192860526Y-102898983D01*
X193078526Y-102808684D01*
X193473594Y-102730100D01*
X193876406Y-102730100D01*
X194271474Y-102808684D01*
X194271474Y-102808684D01*
G37*
G36*
X207915104Y-103884585D02*
G01*
X208083626Y-103954389D01*
X208235291Y-104055728D01*
X208364272Y-104184709D01*
X208465611Y-104336374D01*
X208535415Y-104504896D01*
X208571000Y-104683797D01*
X208571000Y-104866203D01*
X208535415Y-105045104D01*
X208465611Y-105213626D01*
X208364272Y-105365291D01*
X208235291Y-105494272D01*
X208083626Y-105595611D01*
X207915104Y-105665415D01*
X207736203Y-105701000D01*
X207553797Y-105701000D01*
X207374896Y-105665415D01*
X207206374Y-105595611D01*
X207054709Y-105494272D01*
X206925728Y-105365291D01*
X206824389Y-105213626D01*
X206754585Y-105045104D01*
X206719000Y-104866203D01*
X206719000Y-104683797D01*
X206754585Y-104504896D01*
X206824389Y-104336374D01*
X206925728Y-104184709D01*
X207054709Y-104055728D01*
X207206374Y-103954389D01*
X207374896Y-103884585D01*
X207553797Y-103849000D01*
X207736203Y-103849000D01*
X207915104Y-103884585D01*
X207915104Y-103884585D01*
G37*
G36*
X218075104Y-103884585D02*
G01*
X218243626Y-103954389D01*
X218395291Y-104055728D01*
X218524272Y-104184709D01*
X218625611Y-104336374D01*
X218695415Y-104504896D01*
X218731000Y-104683797D01*
X218731000Y-104866203D01*
X218695415Y-105045104D01*
X218625611Y-105213626D01*
X218524272Y-105365291D01*
X218395291Y-105494272D01*
X218243626Y-105595611D01*
X218075104Y-105665415D01*
X217896203Y-105701000D01*
X217713797Y-105701000D01*
X217534896Y-105665415D01*
X217366374Y-105595611D01*
X217214709Y-105494272D01*
X217085728Y-105365291D01*
X216984389Y-105213626D01*
X216914585Y-105045104D01*
X216879000Y-104866203D01*
X216879000Y-104683797D01*
X216914585Y-104504896D01*
X216984389Y-104336374D01*
X217085728Y-104184709D01*
X217214709Y-104055728D01*
X217366374Y-103954389D01*
X217534896Y-103884585D01*
X217713797Y-103849000D01*
X217896203Y-103849000D01*
X218075104Y-103884585D01*
X218075104Y-103884585D01*
G37*
G36*
X188865104Y-103884585D02*
G01*
X189033626Y-103954389D01*
X189185291Y-104055728D01*
X189314272Y-104184709D01*
X189415611Y-104336374D01*
X189485415Y-104504896D01*
X189521000Y-104683797D01*
X189521000Y-104866203D01*
X189485415Y-105045104D01*
X189415611Y-105213626D01*
X189314272Y-105365291D01*
X189185291Y-105494272D01*
X189033626Y-105595611D01*
X188865104Y-105665415D01*
X188686203Y-105701000D01*
X188503797Y-105701000D01*
X188324896Y-105665415D01*
X188156374Y-105595611D01*
X188004709Y-105494272D01*
X187875728Y-105365291D01*
X187774389Y-105213626D01*
X187704585Y-105045104D01*
X187669000Y-104866203D01*
X187669000Y-104683797D01*
X187704585Y-104504896D01*
X187774389Y-104336374D01*
X187875728Y-104184709D01*
X188004709Y-104055728D01*
X188156374Y-103954389D01*
X188324896Y-103884585D01*
X188503797Y-103849000D01*
X188686203Y-103849000D01*
X188865104Y-103884585D01*
X188865104Y-103884585D01*
G37*
G36*
X199025104Y-103884585D02*
G01*
X199193626Y-103954389D01*
X199345291Y-104055728D01*
X199474272Y-104184709D01*
X199575611Y-104336374D01*
X199645415Y-104504896D01*
X199681000Y-104683797D01*
X199681000Y-104866203D01*
X199645415Y-105045104D01*
X199575611Y-105213626D01*
X199474272Y-105365291D01*
X199345291Y-105494272D01*
X199193626Y-105595611D01*
X199025104Y-105665415D01*
X198846203Y-105701000D01*
X198663797Y-105701000D01*
X198484896Y-105665415D01*
X198316374Y-105595611D01*
X198164709Y-105494272D01*
X198035728Y-105365291D01*
X197934389Y-105213626D01*
X197864585Y-105045104D01*
X197829000Y-104866203D01*
X197829000Y-104683797D01*
X197864585Y-104504896D01*
X197934389Y-104336374D01*
X198035728Y-104184709D01*
X198164709Y-104055728D01*
X198316374Y-103954389D01*
X198484896Y-103884585D01*
X198663797Y-103849000D01*
X198846203Y-103849000D01*
X199025104Y-103884585D01*
X199025104Y-103884585D01*
G37*
G36*
X158830674Y-104416465D02*
G01*
X158868367Y-104427899D01*
X158903103Y-104446466D01*
X158933548Y-104471452D01*
X158958534Y-104501897D01*
X158977101Y-104536633D01*
X158988535Y-104574326D01*
X158993000Y-104619661D01*
X158993000Y-105456339D01*
X158988535Y-105501674D01*
X158977101Y-105539367D01*
X158958534Y-105574103D01*
X158933548Y-105604548D01*
X158903103Y-105629534D01*
X158868367Y-105648101D01*
X158830674Y-105659535D01*
X158785339Y-105664000D01*
X157698661Y-105664000D01*
X157653326Y-105659535D01*
X157615633Y-105648101D01*
X157580897Y-105629534D01*
X157550452Y-105604548D01*
X157525466Y-105574103D01*
X157506899Y-105539367D01*
X157495465Y-105501674D01*
X157491000Y-105456339D01*
X157491000Y-104619661D01*
X157495465Y-104574326D01*
X157506899Y-104536633D01*
X157525466Y-104501897D01*
X157550452Y-104471452D01*
X157580897Y-104446466D01*
X157615633Y-104427899D01*
X157653326Y-104416465D01*
X157698661Y-104412000D01*
X158785339Y-104412000D01*
X158830674Y-104416465D01*
X158830674Y-104416465D01*
G37*
G36*
X163957000Y-105464000D02*
G01*
X160655000Y-105464000D01*
X160655000Y-104962000D01*
X163957000Y-104962000D01*
X163957000Y-105464000D01*
X163957000Y-105464000D01*
G37*
G36*
X179992295Y-97543323D02*
G01*
X179999310Y-97545451D01*
X180005776Y-97548908D01*
X180011442Y-97553558D01*
X180016092Y-97559224D01*
X180019549Y-97565690D01*
X180021677Y-97572705D01*
X180023000Y-97586140D01*
X180023000Y-97899860D01*
X180021677Y-97913295D01*
X180019549Y-97920309D01*
X180012190Y-97934077D01*
X180002813Y-97956716D01*
X179998033Y-97980749D01*
X179998033Y-98005253D01*
X180002814Y-98029286D01*
X180012190Y-98051923D01*
X180019549Y-98065691D01*
X180021677Y-98072705D01*
X180023000Y-98086140D01*
X180023000Y-98399860D01*
X180021677Y-98413295D01*
X180019549Y-98420309D01*
X180012190Y-98434077D01*
X180002813Y-98456716D01*
X179998033Y-98480749D01*
X179998033Y-98505253D01*
X180002814Y-98529286D01*
X180012190Y-98551923D01*
X180019549Y-98565691D01*
X180021677Y-98572705D01*
X180023000Y-98586140D01*
X180023000Y-98899860D01*
X180021677Y-98913295D01*
X180019549Y-98920309D01*
X180012190Y-98934077D01*
X180002813Y-98956716D01*
X179998033Y-98980749D01*
X179998033Y-99005253D01*
X180002814Y-99029286D01*
X180012190Y-99051923D01*
X180019549Y-99065691D01*
X180021677Y-99072705D01*
X180023000Y-99086140D01*
X180023000Y-99399860D01*
X180021677Y-99413295D01*
X180019549Y-99420309D01*
X180012190Y-99434077D01*
X180002813Y-99456716D01*
X179998033Y-99480749D01*
X179998033Y-99505253D01*
X180002814Y-99529286D01*
X180012190Y-99551923D01*
X180019549Y-99565691D01*
X180021677Y-99572705D01*
X180023000Y-99586140D01*
X180023000Y-99899860D01*
X180021677Y-99913295D01*
X180019549Y-99920309D01*
X180012190Y-99934077D01*
X180002813Y-99956716D01*
X179998033Y-99980749D01*
X179998033Y-100005253D01*
X180002814Y-100029286D01*
X180012190Y-100051923D01*
X180019549Y-100065691D01*
X180021677Y-100072705D01*
X180023000Y-100086140D01*
X180023000Y-100399860D01*
X180021677Y-100413295D01*
X180019549Y-100420309D01*
X180012190Y-100434077D01*
X180002813Y-100456716D01*
X179998033Y-100480749D01*
X179998033Y-100505253D01*
X180002814Y-100529286D01*
X180012190Y-100551923D01*
X180019549Y-100565691D01*
X180021677Y-100572705D01*
X180023000Y-100586140D01*
X180023000Y-100899860D01*
X180021677Y-100913295D01*
X180019549Y-100920309D01*
X180012190Y-100934077D01*
X180002813Y-100956716D01*
X179998033Y-100980749D01*
X179998033Y-101005253D01*
X180002814Y-101029286D01*
X180012190Y-101051923D01*
X180019549Y-101065691D01*
X180021677Y-101072705D01*
X180023000Y-101086140D01*
X180023000Y-101399860D01*
X180021677Y-101413295D01*
X180019549Y-101420309D01*
X180012190Y-101434077D01*
X180002813Y-101456716D01*
X179998033Y-101480749D01*
X179998033Y-101505253D01*
X180002814Y-101529286D01*
X180012190Y-101551923D01*
X180019549Y-101565691D01*
X180021677Y-101572705D01*
X180023000Y-101586140D01*
X180023000Y-101899860D01*
X180021677Y-101913295D01*
X180019549Y-101920309D01*
X180012190Y-101934077D01*
X180002813Y-101956716D01*
X179998033Y-101980749D01*
X179998033Y-102005253D01*
X180002814Y-102029286D01*
X180012190Y-102051923D01*
X180019549Y-102065691D01*
X180021677Y-102072705D01*
X180023000Y-102086140D01*
X180023000Y-102399860D01*
X180021677Y-102413295D01*
X180019549Y-102420309D01*
X180012190Y-102434077D01*
X180002813Y-102456716D01*
X179998033Y-102480749D01*
X179998033Y-102505253D01*
X180002814Y-102529286D01*
X180012190Y-102551923D01*
X180019549Y-102565691D01*
X180021677Y-102572705D01*
X180023000Y-102586140D01*
X180023000Y-102899860D01*
X180021677Y-102913295D01*
X180019549Y-102920309D01*
X180012190Y-102934077D01*
X180002813Y-102956716D01*
X179998033Y-102980749D01*
X179998033Y-103005253D01*
X180002814Y-103029286D01*
X180012190Y-103051923D01*
X180019549Y-103065691D01*
X180021677Y-103072705D01*
X180023000Y-103086140D01*
X180023000Y-103399860D01*
X180021677Y-103413295D01*
X180019549Y-103420309D01*
X180012190Y-103434077D01*
X180002813Y-103456716D01*
X179998033Y-103480749D01*
X179998033Y-103505253D01*
X180002814Y-103529286D01*
X180012190Y-103551923D01*
X180019549Y-103565691D01*
X180021677Y-103572705D01*
X180023000Y-103586140D01*
X180023000Y-103899860D01*
X180021677Y-103913295D01*
X180019549Y-103920309D01*
X180012190Y-103934077D01*
X180002813Y-103956716D01*
X179998033Y-103980749D01*
X179998033Y-104005253D01*
X180002814Y-104029286D01*
X180012190Y-104051923D01*
X180019549Y-104065691D01*
X180021677Y-104072705D01*
X180023000Y-104086140D01*
X180023000Y-104399860D01*
X180021677Y-104413295D01*
X180019549Y-104420309D01*
X180012190Y-104434077D01*
X180002813Y-104456716D01*
X179998033Y-104480749D01*
X179998033Y-104505253D01*
X180002814Y-104529286D01*
X180012190Y-104551923D01*
X180019549Y-104565691D01*
X180021677Y-104572705D01*
X180023000Y-104586140D01*
X180023000Y-104899860D01*
X180021677Y-104913295D01*
X180019549Y-104920309D01*
X180012190Y-104934077D01*
X180002813Y-104956716D01*
X179998033Y-104980749D01*
X179998033Y-105005253D01*
X180002814Y-105029286D01*
X180012190Y-105051923D01*
X180019549Y-105065691D01*
X180021677Y-105072705D01*
X180023000Y-105086140D01*
X180023000Y-105399860D01*
X180021677Y-105413295D01*
X180019549Y-105420310D01*
X180016092Y-105426776D01*
X180011442Y-105432442D01*
X180005776Y-105437092D01*
X179999310Y-105440549D01*
X179992295Y-105442677D01*
X179978860Y-105444000D01*
X178415140Y-105444000D01*
X178401705Y-105442677D01*
X178394690Y-105440549D01*
X178388224Y-105437092D01*
X178382558Y-105432442D01*
X178377908Y-105426776D01*
X178374451Y-105420310D01*
X178372323Y-105413295D01*
X178371000Y-105399860D01*
X178371000Y-105086140D01*
X178372323Y-105072705D01*
X178374451Y-105065691D01*
X178381810Y-105051923D01*
X178391187Y-105029284D01*
X178395967Y-105005251D01*
X178395967Y-104980747D01*
X178391186Y-104956714D01*
X178381810Y-104934077D01*
X178374451Y-104920309D01*
X178372323Y-104913295D01*
X178371000Y-104899860D01*
X178371000Y-104586140D01*
X178372323Y-104572705D01*
X178374451Y-104565691D01*
X178381810Y-104551923D01*
X178391187Y-104529284D01*
X178395967Y-104505251D01*
X178395967Y-104480747D01*
X178391186Y-104456714D01*
X178381810Y-104434077D01*
X178374451Y-104420309D01*
X178372323Y-104413295D01*
X178371000Y-104399860D01*
X178371000Y-104086140D01*
X178372323Y-104072705D01*
X178374451Y-104065691D01*
X178381810Y-104051923D01*
X178391187Y-104029284D01*
X178395967Y-104005251D01*
X178395967Y-103980747D01*
X178391186Y-103956714D01*
X178381810Y-103934077D01*
X178374451Y-103920309D01*
X178372323Y-103913295D01*
X178371000Y-103899860D01*
X178371000Y-103586140D01*
X178372323Y-103572705D01*
X178374451Y-103565691D01*
X178381810Y-103551923D01*
X178391187Y-103529284D01*
X178395967Y-103505251D01*
X178395967Y-103480747D01*
X178391186Y-103456714D01*
X178381810Y-103434077D01*
X178374451Y-103420309D01*
X178372323Y-103413295D01*
X178371000Y-103399860D01*
X178371000Y-103086140D01*
X178372323Y-103072705D01*
X178374451Y-103065691D01*
X178381810Y-103051923D01*
X178391187Y-103029284D01*
X178395967Y-103005251D01*
X178395967Y-102980747D01*
X178391186Y-102956714D01*
X178381810Y-102934077D01*
X178374451Y-102920309D01*
X178372323Y-102913295D01*
X178371000Y-102899860D01*
X178371000Y-102586140D01*
X178372323Y-102572705D01*
X178374451Y-102565691D01*
X178381810Y-102551923D01*
X178391187Y-102529284D01*
X178395967Y-102505251D01*
X178395967Y-102480747D01*
X178391186Y-102456714D01*
X178381810Y-102434077D01*
X178374451Y-102420309D01*
X178372323Y-102413295D01*
X178371000Y-102399860D01*
X178371000Y-102086140D01*
X178372323Y-102072705D01*
X178374451Y-102065691D01*
X178381810Y-102051923D01*
X178391187Y-102029284D01*
X178395967Y-102005251D01*
X178395967Y-101980747D01*
X178391186Y-101956714D01*
X178381810Y-101934077D01*
X178374451Y-101920309D01*
X178372323Y-101913295D01*
X178371000Y-101899860D01*
X178371000Y-101586140D01*
X178372323Y-101572705D01*
X178374451Y-101565691D01*
X178381810Y-101551923D01*
X178391187Y-101529284D01*
X178395967Y-101505251D01*
X178395967Y-101480747D01*
X178391186Y-101456714D01*
X178381810Y-101434077D01*
X178374451Y-101420309D01*
X178372323Y-101413295D01*
X178371000Y-101399860D01*
X178371000Y-101086140D01*
X178372323Y-101072705D01*
X178374451Y-101065691D01*
X178381810Y-101051923D01*
X178391187Y-101029284D01*
X178395967Y-101005251D01*
X178395967Y-100980747D01*
X178391186Y-100956714D01*
X178381810Y-100934077D01*
X178374451Y-100920309D01*
X178372323Y-100913295D01*
X178371000Y-100899860D01*
X178371000Y-100586140D01*
X178372323Y-100572705D01*
X178374451Y-100565691D01*
X178381810Y-100551923D01*
X178391187Y-100529284D01*
X178395967Y-100505251D01*
X178395967Y-100480747D01*
X178391186Y-100456714D01*
X178381810Y-100434077D01*
X178374451Y-100420309D01*
X178372323Y-100413295D01*
X178371000Y-100399860D01*
X178371000Y-100086140D01*
X178372323Y-100072705D01*
X178374451Y-100065691D01*
X178381810Y-100051923D01*
X178391187Y-100029284D01*
X178395967Y-100005251D01*
X178395967Y-99980747D01*
X178391186Y-99956714D01*
X178381810Y-99934077D01*
X178374451Y-99920309D01*
X178372323Y-99913295D01*
X178371000Y-99899860D01*
X178371000Y-99586140D01*
X178372323Y-99572705D01*
X178374451Y-99565691D01*
X178381810Y-99551923D01*
X178391187Y-99529284D01*
X178395967Y-99505251D01*
X178395967Y-99480747D01*
X178391186Y-99456714D01*
X178381810Y-99434077D01*
X178374451Y-99420309D01*
X178372323Y-99413295D01*
X178371000Y-99399860D01*
X178371000Y-99086140D01*
X178372323Y-99072705D01*
X178374451Y-99065691D01*
X178381810Y-99051923D01*
X178391187Y-99029284D01*
X178395967Y-99005251D01*
X178395967Y-98980747D01*
X178391186Y-98956714D01*
X178381810Y-98934077D01*
X178374451Y-98920309D01*
X178372323Y-98913295D01*
X178371000Y-98899860D01*
X178371000Y-98586140D01*
X178372323Y-98572705D01*
X178374451Y-98565691D01*
X178381810Y-98551923D01*
X178391187Y-98529284D01*
X178395967Y-98505251D01*
X178395967Y-98480747D01*
X178391186Y-98456714D01*
X178381810Y-98434077D01*
X178374451Y-98420309D01*
X178372323Y-98413295D01*
X178371000Y-98399860D01*
X178371000Y-98086140D01*
X178372323Y-98072705D01*
X178374451Y-98065691D01*
X178381810Y-98051923D01*
X178391187Y-98029284D01*
X178395967Y-98005251D01*
X178395967Y-97980747D01*
X178391186Y-97956714D01*
X178381810Y-97934077D01*
X178374451Y-97920309D01*
X178372323Y-97913295D01*
X178371000Y-97899860D01*
X178371000Y-97586140D01*
X178372323Y-97572705D01*
X178374451Y-97565690D01*
X178377908Y-97559224D01*
X178382558Y-97553558D01*
X178388224Y-97548908D01*
X178394690Y-97545451D01*
X178401705Y-97543323D01*
X178415140Y-97542000D01*
X179978860Y-97542000D01*
X179992295Y-97543323D01*
X179992295Y-97543323D01*
G37*
G36*
X168642295Y-97543323D02*
G01*
X168649310Y-97545451D01*
X168655776Y-97548908D01*
X168661442Y-97553558D01*
X168666092Y-97559224D01*
X168669549Y-97565690D01*
X168671677Y-97572705D01*
X168673000Y-97586140D01*
X168673000Y-97899860D01*
X168671677Y-97913295D01*
X168669549Y-97920309D01*
X168662190Y-97934077D01*
X168652813Y-97956716D01*
X168648033Y-97980749D01*
X168648033Y-98005253D01*
X168652814Y-98029286D01*
X168662190Y-98051923D01*
X168669549Y-98065691D01*
X168671677Y-98072705D01*
X168673000Y-98086140D01*
X168673000Y-98399860D01*
X168671677Y-98413295D01*
X168669549Y-98420309D01*
X168662190Y-98434077D01*
X168652813Y-98456716D01*
X168648033Y-98480749D01*
X168648033Y-98505253D01*
X168652814Y-98529286D01*
X168662190Y-98551923D01*
X168669549Y-98565691D01*
X168671677Y-98572705D01*
X168673000Y-98586140D01*
X168673000Y-98899860D01*
X168671677Y-98913295D01*
X168669549Y-98920309D01*
X168662190Y-98934077D01*
X168652813Y-98956716D01*
X168648033Y-98980749D01*
X168648033Y-99005253D01*
X168652814Y-99029286D01*
X168662190Y-99051923D01*
X168669549Y-99065691D01*
X168671677Y-99072705D01*
X168673000Y-99086140D01*
X168673000Y-99399860D01*
X168671677Y-99413295D01*
X168669549Y-99420309D01*
X168662190Y-99434077D01*
X168652813Y-99456716D01*
X168648033Y-99480749D01*
X168648033Y-99505253D01*
X168652814Y-99529286D01*
X168662190Y-99551923D01*
X168669549Y-99565691D01*
X168671677Y-99572705D01*
X168673000Y-99586140D01*
X168673000Y-99899860D01*
X168671677Y-99913295D01*
X168669549Y-99920309D01*
X168662190Y-99934077D01*
X168652813Y-99956716D01*
X168648033Y-99980749D01*
X168648033Y-100005253D01*
X168652814Y-100029286D01*
X168662190Y-100051923D01*
X168669549Y-100065691D01*
X168671677Y-100072705D01*
X168673000Y-100086140D01*
X168673000Y-100399860D01*
X168671677Y-100413295D01*
X168669549Y-100420309D01*
X168662190Y-100434077D01*
X168652813Y-100456716D01*
X168648033Y-100480749D01*
X168648033Y-100505253D01*
X168652814Y-100529286D01*
X168662190Y-100551923D01*
X168669549Y-100565691D01*
X168671677Y-100572705D01*
X168673000Y-100586140D01*
X168673000Y-100899860D01*
X168671677Y-100913295D01*
X168669549Y-100920309D01*
X168662190Y-100934077D01*
X168652813Y-100956716D01*
X168648033Y-100980749D01*
X168648033Y-101005253D01*
X168652814Y-101029286D01*
X168662190Y-101051923D01*
X168669549Y-101065691D01*
X168671677Y-101072705D01*
X168673000Y-101086140D01*
X168673000Y-101399860D01*
X168671677Y-101413295D01*
X168669549Y-101420309D01*
X168662190Y-101434077D01*
X168652813Y-101456716D01*
X168648033Y-101480749D01*
X168648033Y-101505253D01*
X168652814Y-101529286D01*
X168662190Y-101551923D01*
X168669549Y-101565691D01*
X168671677Y-101572705D01*
X168673000Y-101586140D01*
X168673000Y-101899860D01*
X168671677Y-101913295D01*
X168669549Y-101920309D01*
X168662190Y-101934077D01*
X168652813Y-101956716D01*
X168648033Y-101980749D01*
X168648033Y-102005253D01*
X168652814Y-102029286D01*
X168662190Y-102051923D01*
X168669549Y-102065691D01*
X168671677Y-102072705D01*
X168673000Y-102086140D01*
X168673000Y-102399860D01*
X168671677Y-102413295D01*
X168669549Y-102420309D01*
X168662190Y-102434077D01*
X168652813Y-102456716D01*
X168648033Y-102480749D01*
X168648033Y-102505253D01*
X168652814Y-102529286D01*
X168662190Y-102551923D01*
X168669549Y-102565691D01*
X168671677Y-102572705D01*
X168673000Y-102586140D01*
X168673000Y-102899860D01*
X168671677Y-102913295D01*
X168669549Y-102920309D01*
X168662190Y-102934077D01*
X168652813Y-102956716D01*
X168648033Y-102980749D01*
X168648033Y-103005253D01*
X168652814Y-103029286D01*
X168662190Y-103051923D01*
X168669549Y-103065691D01*
X168671677Y-103072705D01*
X168673000Y-103086140D01*
X168673000Y-103399860D01*
X168671677Y-103413295D01*
X168669549Y-103420309D01*
X168662190Y-103434077D01*
X168652813Y-103456716D01*
X168648033Y-103480749D01*
X168648033Y-103505253D01*
X168652814Y-103529286D01*
X168662190Y-103551923D01*
X168669549Y-103565691D01*
X168671677Y-103572705D01*
X168673000Y-103586140D01*
X168673000Y-103899860D01*
X168671677Y-103913295D01*
X168669549Y-103920309D01*
X168662190Y-103934077D01*
X168652813Y-103956716D01*
X168648033Y-103980749D01*
X168648033Y-104005253D01*
X168652814Y-104029286D01*
X168662190Y-104051923D01*
X168669549Y-104065691D01*
X168671677Y-104072705D01*
X168673000Y-104086140D01*
X168673000Y-104399860D01*
X168671677Y-104413295D01*
X168669549Y-104420309D01*
X168662190Y-104434077D01*
X168652813Y-104456716D01*
X168648033Y-104480749D01*
X168648033Y-104505253D01*
X168652814Y-104529286D01*
X168662190Y-104551923D01*
X168669549Y-104565691D01*
X168671677Y-104572705D01*
X168673000Y-104586140D01*
X168673000Y-104899860D01*
X168671677Y-104913295D01*
X168669549Y-104920309D01*
X168662190Y-104934077D01*
X168652813Y-104956716D01*
X168648033Y-104980749D01*
X168648033Y-105005253D01*
X168652814Y-105029286D01*
X168662190Y-105051923D01*
X168669549Y-105065691D01*
X168671677Y-105072705D01*
X168673000Y-105086140D01*
X168673000Y-105399860D01*
X168671677Y-105413295D01*
X168669549Y-105420310D01*
X168666092Y-105426776D01*
X168661442Y-105432442D01*
X168655776Y-105437092D01*
X168649310Y-105440549D01*
X168642295Y-105442677D01*
X168628860Y-105444000D01*
X167065140Y-105444000D01*
X167051705Y-105442677D01*
X167044690Y-105440549D01*
X167038224Y-105437092D01*
X167032558Y-105432442D01*
X167027908Y-105426776D01*
X167024451Y-105420310D01*
X167022323Y-105413295D01*
X167021000Y-105399860D01*
X167021000Y-105086140D01*
X167022323Y-105072705D01*
X167024451Y-105065691D01*
X167031810Y-105051923D01*
X167041187Y-105029284D01*
X167045967Y-105005251D01*
X167045967Y-104980747D01*
X167041186Y-104956714D01*
X167031810Y-104934077D01*
X167024451Y-104920309D01*
X167022323Y-104913295D01*
X167021000Y-104899860D01*
X167021000Y-104586140D01*
X167022323Y-104572705D01*
X167024451Y-104565691D01*
X167031810Y-104551923D01*
X167041187Y-104529284D01*
X167045967Y-104505251D01*
X167045967Y-104480747D01*
X167041186Y-104456714D01*
X167031810Y-104434077D01*
X167024451Y-104420309D01*
X167022323Y-104413295D01*
X167021000Y-104399860D01*
X167021000Y-104086140D01*
X167022323Y-104072705D01*
X167024451Y-104065691D01*
X167031810Y-104051923D01*
X167041187Y-104029284D01*
X167045967Y-104005251D01*
X167045967Y-103980747D01*
X167041186Y-103956714D01*
X167031810Y-103934077D01*
X167024451Y-103920309D01*
X167022323Y-103913295D01*
X167021000Y-103899860D01*
X167021000Y-103586140D01*
X167022323Y-103572705D01*
X167024451Y-103565691D01*
X167031810Y-103551923D01*
X167041187Y-103529284D01*
X167045967Y-103505251D01*
X167045967Y-103480747D01*
X167041186Y-103456714D01*
X167031810Y-103434077D01*
X167024451Y-103420309D01*
X167022323Y-103413295D01*
X167021000Y-103399860D01*
X167021000Y-103086140D01*
X167022323Y-103072705D01*
X167024451Y-103065691D01*
X167031810Y-103051923D01*
X167041187Y-103029284D01*
X167045967Y-103005251D01*
X167045967Y-102980747D01*
X167041186Y-102956714D01*
X167031810Y-102934077D01*
X167024451Y-102920309D01*
X167022323Y-102913295D01*
X167021000Y-102899860D01*
X167021000Y-102586140D01*
X167022323Y-102572705D01*
X167024451Y-102565691D01*
X167031810Y-102551923D01*
X167041187Y-102529284D01*
X167045967Y-102505251D01*
X167045967Y-102480747D01*
X167041186Y-102456714D01*
X167031810Y-102434077D01*
X167024451Y-102420309D01*
X167022323Y-102413295D01*
X167021000Y-102399860D01*
X167021000Y-102086140D01*
X167022323Y-102072705D01*
X167024451Y-102065691D01*
X167031810Y-102051923D01*
X167041187Y-102029284D01*
X167045967Y-102005251D01*
X167045967Y-101980747D01*
X167041186Y-101956714D01*
X167031810Y-101934077D01*
X167024451Y-101920309D01*
X167022323Y-101913295D01*
X167021000Y-101899860D01*
X167021000Y-101586140D01*
X167022323Y-101572705D01*
X167024451Y-101565691D01*
X167031810Y-101551923D01*
X167041187Y-101529284D01*
X167045967Y-101505251D01*
X167045967Y-101480747D01*
X167041186Y-101456714D01*
X167031810Y-101434077D01*
X167024451Y-101420309D01*
X167022323Y-101413295D01*
X167021000Y-101399860D01*
X167021000Y-101086140D01*
X167022323Y-101072705D01*
X167024451Y-101065691D01*
X167031810Y-101051923D01*
X167041187Y-101029284D01*
X167045967Y-101005251D01*
X167045967Y-100980747D01*
X167041186Y-100956714D01*
X167031810Y-100934077D01*
X167024451Y-100920309D01*
X167022323Y-100913295D01*
X167021000Y-100899860D01*
X167021000Y-100586140D01*
X167022323Y-100572705D01*
X167024451Y-100565691D01*
X167031810Y-100551923D01*
X167041187Y-100529284D01*
X167045967Y-100505251D01*
X167045967Y-100480747D01*
X167041186Y-100456714D01*
X167031810Y-100434077D01*
X167024451Y-100420309D01*
X167022323Y-100413295D01*
X167021000Y-100399860D01*
X167021000Y-100086140D01*
X167022323Y-100072705D01*
X167024451Y-100065691D01*
X167031810Y-100051923D01*
X167041187Y-100029284D01*
X167045967Y-100005251D01*
X167045967Y-99980747D01*
X167041186Y-99956714D01*
X167031810Y-99934077D01*
X167024451Y-99920309D01*
X167022323Y-99913295D01*
X167021000Y-99899860D01*
X167021000Y-99586140D01*
X167022323Y-99572705D01*
X167024451Y-99565691D01*
X167031810Y-99551923D01*
X167041187Y-99529284D01*
X167045967Y-99505251D01*
X167045967Y-99480747D01*
X167041186Y-99456714D01*
X167031810Y-99434077D01*
X167024451Y-99420309D01*
X167022323Y-99413295D01*
X167021000Y-99399860D01*
X167021000Y-99086140D01*
X167022323Y-99072705D01*
X167024451Y-99065691D01*
X167031810Y-99051923D01*
X167041187Y-99029284D01*
X167045967Y-99005251D01*
X167045967Y-98980747D01*
X167041186Y-98956714D01*
X167031810Y-98934077D01*
X167024451Y-98920309D01*
X167022323Y-98913295D01*
X167021000Y-98899860D01*
X167021000Y-98586140D01*
X167022323Y-98572705D01*
X167024451Y-98565691D01*
X167031810Y-98551923D01*
X167041187Y-98529284D01*
X167045967Y-98505251D01*
X167045967Y-98480747D01*
X167041186Y-98456714D01*
X167031810Y-98434077D01*
X167024451Y-98420309D01*
X167022323Y-98413295D01*
X167021000Y-98399860D01*
X167021000Y-98086140D01*
X167022323Y-98072705D01*
X167024451Y-98065691D01*
X167031810Y-98051923D01*
X167041187Y-98029284D01*
X167045967Y-98005251D01*
X167045967Y-97980747D01*
X167041186Y-97956714D01*
X167031810Y-97934077D01*
X167024451Y-97920309D01*
X167022323Y-97913295D01*
X167021000Y-97899860D01*
X167021000Y-97586140D01*
X167022323Y-97572705D01*
X167024451Y-97565690D01*
X167027908Y-97559224D01*
X167032558Y-97553558D01*
X167038224Y-97548908D01*
X167044690Y-97545451D01*
X167051705Y-97543323D01*
X167065140Y-97542000D01*
X168628860Y-97542000D01*
X168642295Y-97543323D01*
X168642295Y-97543323D01*
G37*
G36*
X150986443Y-103245519D02*
G01*
X151052627Y-103252037D01*
X151222466Y-103303557D01*
X151378991Y-103387222D01*
X151402285Y-103406339D01*
X151516186Y-103499814D01*
X151592892Y-103593282D01*
X151628778Y-103637009D01*
X151712443Y-103793534D01*
X151763963Y-103963373D01*
X151781359Y-104140000D01*
X151763963Y-104316627D01*
X151712443Y-104486466D01*
X151628778Y-104642991D01*
X151599448Y-104678729D01*
X151516186Y-104780186D01*
X151415145Y-104863107D01*
X151378991Y-104892778D01*
X151222466Y-104976443D01*
X151052627Y-105027963D01*
X150986442Y-105034482D01*
X150920260Y-105041000D01*
X150831740Y-105041000D01*
X150765557Y-105034481D01*
X150699373Y-105027963D01*
X150529534Y-104976443D01*
X150373009Y-104892778D01*
X150336855Y-104863107D01*
X150235814Y-104780186D01*
X150152552Y-104678729D01*
X150123222Y-104642991D01*
X150039557Y-104486466D01*
X149988037Y-104316627D01*
X149970641Y-104140000D01*
X149988037Y-103963373D01*
X150039557Y-103793534D01*
X150123222Y-103637009D01*
X150159108Y-103593282D01*
X150235814Y-103499814D01*
X150349715Y-103406339D01*
X150373009Y-103387222D01*
X150529534Y-103303557D01*
X150699373Y-103252037D01*
X150765558Y-103245518D01*
X150831740Y-103239000D01*
X150920260Y-103239000D01*
X150986443Y-103245519D01*
X150986443Y-103245519D01*
G37*
G36*
X148446443Y-103245519D02*
G01*
X148512627Y-103252037D01*
X148682466Y-103303557D01*
X148838991Y-103387222D01*
X148862285Y-103406339D01*
X148976186Y-103499814D01*
X149052892Y-103593282D01*
X149088778Y-103637009D01*
X149172443Y-103793534D01*
X149223963Y-103963373D01*
X149241359Y-104140000D01*
X149223963Y-104316627D01*
X149172443Y-104486466D01*
X149088778Y-104642991D01*
X149059448Y-104678729D01*
X148976186Y-104780186D01*
X148875145Y-104863107D01*
X148838991Y-104892778D01*
X148682466Y-104976443D01*
X148512627Y-105027963D01*
X148446442Y-105034482D01*
X148380260Y-105041000D01*
X148291740Y-105041000D01*
X148225557Y-105034481D01*
X148159373Y-105027963D01*
X147989534Y-104976443D01*
X147833009Y-104892778D01*
X147796855Y-104863107D01*
X147695814Y-104780186D01*
X147612552Y-104678729D01*
X147583222Y-104642991D01*
X147499557Y-104486466D01*
X147448037Y-104316627D01*
X147430641Y-104140000D01*
X147448037Y-103963373D01*
X147499557Y-103793534D01*
X147583222Y-103637009D01*
X147619108Y-103593282D01*
X147695814Y-103499814D01*
X147809715Y-103406339D01*
X147833009Y-103387222D01*
X147989534Y-103303557D01*
X148159373Y-103252037D01*
X148225558Y-103245518D01*
X148291740Y-103239000D01*
X148380260Y-103239000D01*
X148446443Y-103245519D01*
X148446443Y-103245519D01*
G37*
G36*
X163957000Y-104264000D02*
G01*
X160655000Y-104264000D01*
X160655000Y-103762000D01*
X163957000Y-103762000D01*
X163957000Y-104264000D01*
X163957000Y-104264000D01*
G37*
G36*
X221631000Y-103881000D02*
G01*
X220329000Y-103881000D01*
X220329000Y-102879000D01*
X221631000Y-102879000D01*
X221631000Y-103881000D01*
X221631000Y-103881000D01*
G37*
G36*
X202581000Y-103881000D02*
G01*
X201279000Y-103881000D01*
X201279000Y-102879000D01*
X202581000Y-102879000D01*
X202581000Y-103881000D01*
X202581000Y-103881000D01*
G37*
G36*
X158830674Y-102366465D02*
G01*
X158868367Y-102377899D01*
X158903103Y-102396466D01*
X158933548Y-102421452D01*
X158958534Y-102451897D01*
X158977101Y-102486633D01*
X158988535Y-102524326D01*
X158993000Y-102569661D01*
X158993000Y-103406339D01*
X158988535Y-103451674D01*
X158977101Y-103489367D01*
X158958534Y-103524103D01*
X158933548Y-103554548D01*
X158903103Y-103579534D01*
X158868367Y-103598101D01*
X158830674Y-103609535D01*
X158785339Y-103614000D01*
X157698661Y-103614000D01*
X157653326Y-103609535D01*
X157615633Y-103598101D01*
X157580897Y-103579534D01*
X157550452Y-103554548D01*
X157525466Y-103524103D01*
X157506899Y-103489367D01*
X157495465Y-103451674D01*
X157491000Y-103406339D01*
X157491000Y-102569661D01*
X157495465Y-102524326D01*
X157506899Y-102486633D01*
X157525466Y-102451897D01*
X157550452Y-102421452D01*
X157580897Y-102396466D01*
X157615633Y-102377899D01*
X157653326Y-102366465D01*
X157698661Y-102362000D01*
X158785339Y-102362000D01*
X158830674Y-102366465D01*
X158830674Y-102366465D01*
G37*
G36*
X191198205Y-99598881D02*
G01*
X191203645Y-99599000D01*
X191290828Y-99599000D01*
X191307097Y-99602236D01*
X191325956Y-99604515D01*
X191342532Y-99605246D01*
X191427223Y-99626010D01*
X191432518Y-99627184D01*
X191518027Y-99644193D01*
X191533362Y-99650545D01*
X191551401Y-99656455D01*
X191567521Y-99660407D01*
X191646504Y-99697280D01*
X191651494Y-99699477D01*
X191732045Y-99732842D01*
X191745841Y-99742060D01*
X191762393Y-99751382D01*
X191777426Y-99758400D01*
X191847694Y-99809971D01*
X191852192Y-99813122D01*
X191924656Y-99861541D01*
X191936383Y-99873268D01*
X191950809Y-99885648D01*
X191964179Y-99895461D01*
X192012246Y-99947963D01*
X192023021Y-99959733D01*
X192026829Y-99963714D01*
X192088459Y-100025344D01*
X192097674Y-100039135D01*
X192109396Y-100054078D01*
X192120605Y-100066321D01*
X192165799Y-100140874D01*
X192168746Y-100145501D01*
X192217158Y-100217955D01*
X192223505Y-100233277D01*
X192232092Y-100250231D01*
X192240691Y-100264417D01*
X192270478Y-100346368D01*
X192272452Y-100351448D01*
X192305807Y-100431973D01*
X192306678Y-100436350D01*
X192309041Y-100448233D01*
X192314158Y-100466542D01*
X192319825Y-100482134D01*
X192333055Y-100568345D01*
X192334001Y-100573713D01*
X192351000Y-100659173D01*
X192351000Y-100675752D01*
X192352444Y-100694692D01*
X192354963Y-100711104D01*
X192351120Y-100798249D01*
X192351000Y-100803689D01*
X192351000Y-100890825D01*
X192347766Y-100907083D01*
X192345488Y-100925941D01*
X192344756Y-100942531D01*
X192323988Y-101027237D01*
X192322812Y-101032537D01*
X192305807Y-101118027D01*
X192299457Y-101133357D01*
X192293549Y-101151393D01*
X192289595Y-101167520D01*
X192252711Y-101246526D01*
X192250511Y-101251523D01*
X192217158Y-101332045D01*
X192207944Y-101345835D01*
X192198622Y-101362387D01*
X192191602Y-101377424D01*
X192140011Y-101447720D01*
X192136866Y-101452210D01*
X192088461Y-101524654D01*
X192031460Y-101581655D01*
X192026811Y-101586563D01*
X191527990Y-102142500D01*
X190701723Y-103063376D01*
X190573679Y-103180602D01*
X190477345Y-103239000D01*
X190375583Y-103300689D01*
X190157866Y-103379823D01*
X189928895Y-103414961D01*
X189697470Y-103404754D01*
X189472481Y-103349593D01*
X189391797Y-103311926D01*
X189262579Y-103251602D01*
X189165838Y-103180602D01*
X189075823Y-103114539D01*
X188997771Y-103029284D01*
X188919398Y-102943679D01*
X188837564Y-102808685D01*
X188799311Y-102745583D01*
X188720177Y-102527866D01*
X188685039Y-102298895D01*
X188695246Y-102067470D01*
X188750407Y-101842481D01*
X188801972Y-101732028D01*
X188848398Y-101632580D01*
X188869344Y-101604040D01*
X188951114Y-101492622D01*
X189713896Y-100642500D01*
X190237787Y-100058621D01*
X190248681Y-100044589D01*
X190261539Y-100025346D01*
X190318573Y-99968312D01*
X190323223Y-99963403D01*
X190338278Y-99946624D01*
X190359701Y-99927011D01*
X190363682Y-99923203D01*
X190425346Y-99861539D01*
X190439143Y-99852320D01*
X190454102Y-99840585D01*
X190466321Y-99829398D01*
X190498385Y-99809961D01*
X190540830Y-99784231D01*
X190545421Y-99781308D01*
X190617955Y-99732842D01*
X190633300Y-99726486D01*
X190650248Y-99717901D01*
X190664416Y-99709312D01*
X190664417Y-99709312D01*
X190664418Y-99709311D01*
X190746312Y-99679545D01*
X190751410Y-99677563D01*
X190831973Y-99644193D01*
X190848252Y-99640955D01*
X190866542Y-99635844D01*
X190882135Y-99630177D01*
X190968300Y-99616954D01*
X190973663Y-99616009D01*
X191059173Y-99599000D01*
X191075766Y-99599000D01*
X191094709Y-99597555D01*
X191111106Y-99595039D01*
X191198205Y-99598881D01*
X191198205Y-99598881D01*
G37*
G36*
X210248205Y-99598881D02*
G01*
X210253645Y-99599000D01*
X210340828Y-99599000D01*
X210357097Y-99602236D01*
X210375956Y-99604515D01*
X210392532Y-99605246D01*
X210477223Y-99626010D01*
X210482518Y-99627184D01*
X210568027Y-99644193D01*
X210583362Y-99650545D01*
X210601401Y-99656455D01*
X210617521Y-99660407D01*
X210696504Y-99697280D01*
X210701494Y-99699477D01*
X210782045Y-99732842D01*
X210795841Y-99742060D01*
X210812393Y-99751382D01*
X210827426Y-99758400D01*
X210897694Y-99809971D01*
X210902192Y-99813122D01*
X210974656Y-99861541D01*
X210986383Y-99873268D01*
X211000809Y-99885648D01*
X211014179Y-99895461D01*
X211062246Y-99947963D01*
X211073021Y-99959733D01*
X211076829Y-99963714D01*
X211138459Y-100025344D01*
X211147674Y-100039135D01*
X211159396Y-100054078D01*
X211170605Y-100066321D01*
X211215799Y-100140874D01*
X211218746Y-100145501D01*
X211267158Y-100217955D01*
X211273505Y-100233277D01*
X211282092Y-100250231D01*
X211290691Y-100264417D01*
X211320478Y-100346368D01*
X211322452Y-100351448D01*
X211355807Y-100431973D01*
X211356678Y-100436350D01*
X211359041Y-100448233D01*
X211364158Y-100466542D01*
X211369825Y-100482134D01*
X211383055Y-100568345D01*
X211384001Y-100573713D01*
X211401000Y-100659173D01*
X211401000Y-100675752D01*
X211402444Y-100694692D01*
X211404963Y-100711104D01*
X211401120Y-100798249D01*
X211401000Y-100803689D01*
X211401000Y-100890825D01*
X211397766Y-100907083D01*
X211395488Y-100925941D01*
X211394756Y-100942531D01*
X211373988Y-101027237D01*
X211372812Y-101032537D01*
X211355807Y-101118027D01*
X211349457Y-101133357D01*
X211343549Y-101151393D01*
X211339595Y-101167520D01*
X211302711Y-101246526D01*
X211300511Y-101251523D01*
X211267158Y-101332045D01*
X211257944Y-101345835D01*
X211248622Y-101362387D01*
X211241602Y-101377424D01*
X211190011Y-101447720D01*
X211186866Y-101452210D01*
X211138461Y-101524654D01*
X211081460Y-101581655D01*
X211076811Y-101586563D01*
X210577990Y-102142500D01*
X209751723Y-103063376D01*
X209623679Y-103180602D01*
X209527345Y-103239000D01*
X209425583Y-103300689D01*
X209207866Y-103379823D01*
X208978895Y-103414961D01*
X208747470Y-103404754D01*
X208522481Y-103349593D01*
X208441797Y-103311926D01*
X208312579Y-103251602D01*
X208215838Y-103180602D01*
X208125823Y-103114539D01*
X208047771Y-103029284D01*
X207969398Y-102943679D01*
X207887564Y-102808685D01*
X207849311Y-102745583D01*
X207770177Y-102527866D01*
X207735039Y-102298895D01*
X207745246Y-102067470D01*
X207800407Y-101842481D01*
X207851972Y-101732028D01*
X207898398Y-101632580D01*
X207919344Y-101604040D01*
X208001114Y-101492622D01*
X208763896Y-100642500D01*
X209287787Y-100058621D01*
X209298681Y-100044589D01*
X209311539Y-100025346D01*
X209368573Y-99968312D01*
X209373223Y-99963403D01*
X209388278Y-99946624D01*
X209409701Y-99927011D01*
X209413682Y-99923203D01*
X209475346Y-99861539D01*
X209489143Y-99852320D01*
X209504102Y-99840585D01*
X209516321Y-99829398D01*
X209548385Y-99809961D01*
X209590830Y-99784231D01*
X209595421Y-99781308D01*
X209667955Y-99732842D01*
X209683300Y-99726486D01*
X209700248Y-99717901D01*
X209714416Y-99709312D01*
X209714417Y-99709312D01*
X209714418Y-99709311D01*
X209796312Y-99679545D01*
X209801410Y-99677563D01*
X209881973Y-99644193D01*
X209898252Y-99640955D01*
X209916542Y-99635844D01*
X209932135Y-99630177D01*
X210018300Y-99616954D01*
X210023663Y-99616009D01*
X210109173Y-99599000D01*
X210125766Y-99599000D01*
X210144709Y-99597555D01*
X210161106Y-99595039D01*
X210248205Y-99598881D01*
X210248205Y-99598881D01*
G37*
G36*
X163957000Y-103064000D02*
G01*
X160655000Y-103064000D01*
X160655000Y-102562000D01*
X163957000Y-102562000D01*
X163957000Y-103064000D01*
X163957000Y-103064000D01*
G37*
G36*
X150986443Y-100705519D02*
G01*
X151052627Y-100712037D01*
X151222466Y-100763557D01*
X151378991Y-100847222D01*
X151407964Y-100871000D01*
X151516186Y-100959814D01*
X151573199Y-101029286D01*
X151628778Y-101097009D01*
X151712443Y-101253534D01*
X151763963Y-101423373D01*
X151781359Y-101600000D01*
X151763963Y-101776627D01*
X151712443Y-101946466D01*
X151628778Y-102102991D01*
X151599448Y-102138729D01*
X151516186Y-102240186D01*
X151414729Y-102323448D01*
X151378991Y-102352778D01*
X151378989Y-102352779D01*
X151226893Y-102434077D01*
X151222466Y-102436443D01*
X151052627Y-102487963D01*
X150986442Y-102494482D01*
X150920260Y-102501000D01*
X150831740Y-102501000D01*
X150765558Y-102494482D01*
X150699373Y-102487963D01*
X150529534Y-102436443D01*
X150525108Y-102434077D01*
X150373011Y-102352779D01*
X150373009Y-102352778D01*
X150337271Y-102323448D01*
X150235814Y-102240186D01*
X150152552Y-102138729D01*
X150123222Y-102102991D01*
X150039557Y-101946466D01*
X149988037Y-101776627D01*
X149970641Y-101600000D01*
X149988037Y-101423373D01*
X150039557Y-101253534D01*
X150123222Y-101097009D01*
X150178801Y-101029286D01*
X150235814Y-100959814D01*
X150344036Y-100871000D01*
X150373009Y-100847222D01*
X150529534Y-100763557D01*
X150699373Y-100712037D01*
X150765557Y-100705519D01*
X150831740Y-100699000D01*
X150920260Y-100699000D01*
X150986443Y-100705519D01*
X150986443Y-100705519D01*
G37*
G36*
X148446443Y-100705519D02*
G01*
X148512627Y-100712037D01*
X148682466Y-100763557D01*
X148838991Y-100847222D01*
X148867964Y-100871000D01*
X148976186Y-100959814D01*
X149033199Y-101029286D01*
X149088778Y-101097009D01*
X149172443Y-101253534D01*
X149223963Y-101423373D01*
X149241359Y-101600000D01*
X149223963Y-101776627D01*
X149172443Y-101946466D01*
X149088778Y-102102991D01*
X149059448Y-102138729D01*
X148976186Y-102240186D01*
X148874729Y-102323448D01*
X148838991Y-102352778D01*
X148838989Y-102352779D01*
X148686893Y-102434077D01*
X148682466Y-102436443D01*
X148512627Y-102487963D01*
X148446442Y-102494482D01*
X148380260Y-102501000D01*
X148291740Y-102501000D01*
X148225558Y-102494482D01*
X148159373Y-102487963D01*
X147989534Y-102436443D01*
X147985108Y-102434077D01*
X147833011Y-102352779D01*
X147833009Y-102352778D01*
X147797271Y-102323448D01*
X147695814Y-102240186D01*
X147612552Y-102138729D01*
X147583222Y-102102991D01*
X147499557Y-101946466D01*
X147448037Y-101776627D01*
X147430641Y-101600000D01*
X147448037Y-101423373D01*
X147499557Y-101253534D01*
X147583222Y-101097009D01*
X147638801Y-101029286D01*
X147695814Y-100959814D01*
X147804036Y-100871000D01*
X147833009Y-100847222D01*
X147989534Y-100763557D01*
X148159373Y-100712037D01*
X148225557Y-100705519D01*
X148291740Y-100699000D01*
X148380260Y-100699000D01*
X148446443Y-100705519D01*
X148446443Y-100705519D01*
G37*
G36*
X215353127Y-98517261D02*
G01*
X215373900Y-98519000D01*
X215380827Y-98519000D01*
X215475754Y-98537882D01*
X215479348Y-98538542D01*
X215574730Y-98554624D01*
X215581203Y-98557085D01*
X215601228Y-98562841D01*
X215608027Y-98564193D01*
X215661012Y-98586140D01*
X215697443Y-98601230D01*
X215700844Y-98602581D01*
X215791255Y-98636961D01*
X215797127Y-98640640D01*
X215815636Y-98650187D01*
X215822045Y-98652842D01*
X215902563Y-98706642D01*
X215905554Y-98708578D01*
X215987557Y-98759959D01*
X215992584Y-98764700D01*
X216008896Y-98777691D01*
X216014652Y-98781537D01*
X216083110Y-98849995D01*
X216085689Y-98852499D01*
X216156090Y-98918889D01*
X216160095Y-98924519D01*
X216173559Y-98940444D01*
X216178459Y-98945344D01*
X216229491Y-99021718D01*
X216232244Y-99025839D01*
X216234291Y-99028807D01*
X216290380Y-99107645D01*
X216293214Y-99113958D01*
X216303308Y-99132193D01*
X216307158Y-99137955D01*
X216344220Y-99227430D01*
X216345624Y-99230685D01*
X216385265Y-99318973D01*
X216386815Y-99325725D01*
X216393152Y-99345562D01*
X216395807Y-99351973D01*
X216413728Y-99442069D01*
X216414692Y-99446917D01*
X216415438Y-99450401D01*
X216437098Y-99544751D01*
X216437242Y-99549650D01*
X216437300Y-99551654D01*
X216439647Y-99572370D01*
X216441000Y-99579174D01*
X216441000Y-99675986D01*
X216441053Y-99679584D01*
X216442188Y-99718277D01*
X216441295Y-99731225D01*
X216441000Y-99739797D01*
X216441000Y-99810826D01*
X216435081Y-99840585D01*
X216434604Y-99842979D01*
X216432500Y-99858750D01*
X216394238Y-100413545D01*
X216365376Y-100584730D01*
X216283038Y-100801255D01*
X216160041Y-100997557D01*
X216001111Y-101166090D01*
X215812355Y-101300380D01*
X215601027Y-101395265D01*
X215375249Y-101447098D01*
X215143698Y-101453889D01*
X215143697Y-101453889D01*
X215098012Y-101446186D01*
X214915270Y-101415376D01*
X214698745Y-101333038D01*
X214502443Y-101210041D01*
X214333910Y-101051111D01*
X214199620Y-100862355D01*
X214104735Y-100651027D01*
X214052902Y-100425249D01*
X214047812Y-100251723D01*
X214088704Y-99658794D01*
X214089000Y-99650196D01*
X214089000Y-99579175D01*
X214092219Y-99562991D01*
X214107888Y-99484219D01*
X214108544Y-99480645D01*
X214112579Y-99456714D01*
X214124624Y-99385270D01*
X214127085Y-99378799D01*
X214132842Y-99358767D01*
X214134193Y-99351974D01*
X214137703Y-99343500D01*
X214171264Y-99262476D01*
X214172553Y-99259230D01*
X214206962Y-99168745D01*
X214210636Y-99162881D01*
X214220187Y-99144365D01*
X214222842Y-99137955D01*
X214276657Y-99057415D01*
X214278577Y-99054449D01*
X214329959Y-98972443D01*
X214334711Y-98967404D01*
X214347689Y-98951107D01*
X214351537Y-98945348D01*
X214419993Y-98876892D01*
X214422546Y-98874262D01*
X214443023Y-98852548D01*
X214488889Y-98803910D01*
X214494521Y-98799903D01*
X214510447Y-98786438D01*
X214515346Y-98781539D01*
X214595824Y-98727766D01*
X214598806Y-98725710D01*
X214677645Y-98669620D01*
X214683955Y-98666787D01*
X214702194Y-98656691D01*
X214707951Y-98652844D01*
X214707954Y-98652843D01*
X214707955Y-98652842D01*
X214797429Y-98615781D01*
X214800687Y-98614375D01*
X214888973Y-98574735D01*
X214895725Y-98573185D01*
X214915562Y-98566848D01*
X214921973Y-98564193D01*
X215016899Y-98545311D01*
X215020446Y-98544551D01*
X215114751Y-98522901D01*
X215117130Y-98522831D01*
X215121665Y-98522698D01*
X215142381Y-98520351D01*
X215149174Y-98519000D01*
X215245959Y-98519000D01*
X215249584Y-98518947D01*
X215346302Y-98516110D01*
X215353127Y-98517261D01*
X215353127Y-98517261D01*
G37*
G36*
X196303127Y-98517261D02*
G01*
X196323900Y-98519000D01*
X196330827Y-98519000D01*
X196425754Y-98537882D01*
X196429348Y-98538542D01*
X196524730Y-98554624D01*
X196531203Y-98557085D01*
X196551228Y-98562841D01*
X196558027Y-98564193D01*
X196611012Y-98586140D01*
X196647443Y-98601230D01*
X196650844Y-98602581D01*
X196741255Y-98636961D01*
X196747127Y-98640640D01*
X196765636Y-98650187D01*
X196772045Y-98652842D01*
X196852563Y-98706642D01*
X196855554Y-98708578D01*
X196937557Y-98759959D01*
X196942584Y-98764700D01*
X196958896Y-98777691D01*
X196964652Y-98781537D01*
X197033110Y-98849995D01*
X197035689Y-98852499D01*
X197106090Y-98918889D01*
X197110095Y-98924519D01*
X197123559Y-98940444D01*
X197128459Y-98945344D01*
X197179491Y-99021718D01*
X197182244Y-99025839D01*
X197184291Y-99028807D01*
X197240380Y-99107645D01*
X197243214Y-99113958D01*
X197253308Y-99132193D01*
X197257158Y-99137955D01*
X197294220Y-99227430D01*
X197295624Y-99230685D01*
X197335265Y-99318973D01*
X197336815Y-99325725D01*
X197343152Y-99345562D01*
X197345807Y-99351973D01*
X197363728Y-99442069D01*
X197364692Y-99446917D01*
X197365438Y-99450401D01*
X197387098Y-99544751D01*
X197387242Y-99549650D01*
X197387300Y-99551654D01*
X197389647Y-99572370D01*
X197391000Y-99579174D01*
X197391000Y-99675986D01*
X197391053Y-99679584D01*
X197392188Y-99718277D01*
X197391295Y-99731225D01*
X197391000Y-99739797D01*
X197391000Y-99810826D01*
X197385081Y-99840585D01*
X197384604Y-99842979D01*
X197382500Y-99858750D01*
X197344238Y-100413545D01*
X197315376Y-100584730D01*
X197233038Y-100801255D01*
X197110041Y-100997557D01*
X196951111Y-101166090D01*
X196762355Y-101300380D01*
X196551027Y-101395265D01*
X196325249Y-101447098D01*
X196093698Y-101453889D01*
X196093697Y-101453889D01*
X196048012Y-101446186D01*
X195865270Y-101415376D01*
X195648745Y-101333038D01*
X195452443Y-101210041D01*
X195283910Y-101051111D01*
X195149620Y-100862355D01*
X195054735Y-100651027D01*
X195002902Y-100425249D01*
X194997812Y-100251723D01*
X195038704Y-99658794D01*
X195039000Y-99650196D01*
X195039000Y-99579175D01*
X195042219Y-99562991D01*
X195057888Y-99484219D01*
X195058544Y-99480645D01*
X195062579Y-99456714D01*
X195074624Y-99385270D01*
X195077085Y-99378799D01*
X195082842Y-99358767D01*
X195084193Y-99351974D01*
X195087703Y-99343500D01*
X195121264Y-99262476D01*
X195122553Y-99259230D01*
X195156962Y-99168745D01*
X195160636Y-99162881D01*
X195170187Y-99144365D01*
X195172842Y-99137955D01*
X195226657Y-99057415D01*
X195228577Y-99054449D01*
X195279959Y-98972443D01*
X195284711Y-98967404D01*
X195297689Y-98951107D01*
X195301537Y-98945348D01*
X195369993Y-98876892D01*
X195372546Y-98874262D01*
X195393023Y-98852548D01*
X195438889Y-98803910D01*
X195444521Y-98799903D01*
X195460447Y-98786438D01*
X195465346Y-98781539D01*
X195545824Y-98727766D01*
X195548806Y-98725710D01*
X195627645Y-98669620D01*
X195633955Y-98666787D01*
X195652194Y-98656691D01*
X195657951Y-98652844D01*
X195657954Y-98652843D01*
X195657955Y-98652842D01*
X195747429Y-98615781D01*
X195750687Y-98614375D01*
X195838973Y-98574735D01*
X195845725Y-98573185D01*
X195865562Y-98566848D01*
X195871973Y-98564193D01*
X195966899Y-98545311D01*
X195970446Y-98544551D01*
X196064751Y-98522901D01*
X196067130Y-98522831D01*
X196071665Y-98522698D01*
X196092381Y-98520351D01*
X196099174Y-98519000D01*
X196195959Y-98519000D01*
X196199584Y-98518947D01*
X196296302Y-98516110D01*
X196303127Y-98517261D01*
X196303127Y-98517261D01*
G37*
G36*
X157565000Y-100383000D02*
G01*
X155463000Y-100383000D01*
X155463000Y-98781000D01*
X157565000Y-98781000D01*
X157565000Y-100383000D01*
X157565000Y-100383000D01*
G37*
G36*
X154512674Y-98946465D02*
G01*
X154550367Y-98957899D01*
X154585103Y-98976466D01*
X154615548Y-99001452D01*
X154640534Y-99031897D01*
X154659101Y-99066633D01*
X154670535Y-99104326D01*
X154675000Y-99149661D01*
X154675000Y-99986339D01*
X154670535Y-100031674D01*
X154659101Y-100069367D01*
X154640534Y-100104103D01*
X154615548Y-100134548D01*
X154585103Y-100159534D01*
X154550367Y-100178101D01*
X154512674Y-100189535D01*
X154467339Y-100194000D01*
X153380661Y-100194000D01*
X153335326Y-100189535D01*
X153297633Y-100178101D01*
X153262897Y-100159534D01*
X153232452Y-100134548D01*
X153207466Y-100104103D01*
X153188899Y-100069367D01*
X153177465Y-100031674D01*
X153173000Y-99986339D01*
X153173000Y-99149661D01*
X153177465Y-99104326D01*
X153188899Y-99066633D01*
X153207466Y-99031897D01*
X153232452Y-99001452D01*
X153262897Y-98976466D01*
X153297633Y-98957899D01*
X153335326Y-98946465D01*
X153380661Y-98942000D01*
X154467339Y-98942000D01*
X154512674Y-98946465D01*
X154512674Y-98946465D01*
G37*
G36*
X148446443Y-98165519D02*
G01*
X148512627Y-98172037D01*
X148682466Y-98223557D01*
X148838991Y-98307222D01*
X148874729Y-98336552D01*
X148976186Y-98419814D01*
X149026193Y-98480749D01*
X149088778Y-98557009D01*
X149172443Y-98713534D01*
X149223963Y-98883373D01*
X149241359Y-99060000D01*
X149223963Y-99236627D01*
X149178872Y-99385272D01*
X149172442Y-99406468D01*
X149156470Y-99436350D01*
X149088778Y-99562991D01*
X149069780Y-99586140D01*
X148976186Y-99700186D01*
X148874729Y-99783448D01*
X148838991Y-99812778D01*
X148682466Y-99896443D01*
X148512627Y-99947963D01*
X148446443Y-99954481D01*
X148380260Y-99961000D01*
X148291740Y-99961000D01*
X148225557Y-99954481D01*
X148159373Y-99947963D01*
X147989534Y-99896443D01*
X147833009Y-99812778D01*
X147797271Y-99783448D01*
X147695814Y-99700186D01*
X147602220Y-99586140D01*
X147583222Y-99562991D01*
X147515530Y-99436350D01*
X147499558Y-99406468D01*
X147493128Y-99385272D01*
X147448037Y-99236627D01*
X147430641Y-99060000D01*
X147448037Y-98883373D01*
X147499557Y-98713534D01*
X147583222Y-98557009D01*
X147645807Y-98480749D01*
X147695814Y-98419814D01*
X147797271Y-98336552D01*
X147833009Y-98307222D01*
X147989534Y-98223557D01*
X148159373Y-98172037D01*
X148225557Y-98165519D01*
X148291740Y-98159000D01*
X148380260Y-98159000D01*
X148446443Y-98165519D01*
X148446443Y-98165519D01*
G37*
G36*
X150986443Y-98165519D02*
G01*
X151052627Y-98172037D01*
X151222466Y-98223557D01*
X151378991Y-98307222D01*
X151414729Y-98336552D01*
X151516186Y-98419814D01*
X151566193Y-98480749D01*
X151628778Y-98557009D01*
X151712443Y-98713534D01*
X151763963Y-98883373D01*
X151781359Y-99060000D01*
X151763963Y-99236627D01*
X151718872Y-99385272D01*
X151712442Y-99406468D01*
X151696470Y-99436350D01*
X151628778Y-99562991D01*
X151609780Y-99586140D01*
X151516186Y-99700186D01*
X151414729Y-99783448D01*
X151378991Y-99812778D01*
X151222466Y-99896443D01*
X151052627Y-99947963D01*
X150986443Y-99954481D01*
X150920260Y-99961000D01*
X150831740Y-99961000D01*
X150765557Y-99954481D01*
X150699373Y-99947963D01*
X150529534Y-99896443D01*
X150373009Y-99812778D01*
X150337271Y-99783448D01*
X150235814Y-99700186D01*
X150142220Y-99586140D01*
X150123222Y-99562991D01*
X150055530Y-99436350D01*
X150039558Y-99406468D01*
X150033128Y-99385272D01*
X149988037Y-99236627D01*
X149970641Y-99060000D01*
X149988037Y-98883373D01*
X150039557Y-98713534D01*
X150123222Y-98557009D01*
X150185807Y-98480749D01*
X150235814Y-98419814D01*
X150337271Y-98336552D01*
X150373009Y-98307222D01*
X150529534Y-98223557D01*
X150699373Y-98172037D01*
X150765557Y-98165519D01*
X150831740Y-98159000D01*
X150920260Y-98159000D01*
X150986443Y-98165519D01*
X150986443Y-98165519D01*
G37*
G36*
X163865000Y-99233000D02*
G01*
X161763000Y-99233000D01*
X161763000Y-95331000D01*
X163865000Y-95331000D01*
X163865000Y-99233000D01*
X163865000Y-99233000D01*
G37*
G36*
X154512674Y-96896465D02*
G01*
X154550367Y-96907899D01*
X154585103Y-96926466D01*
X154615548Y-96951452D01*
X154640534Y-96981897D01*
X154659101Y-97016633D01*
X154670535Y-97054326D01*
X154675000Y-97099661D01*
X154675000Y-97936339D01*
X154670535Y-97981674D01*
X154659101Y-98019367D01*
X154640534Y-98054103D01*
X154615548Y-98084548D01*
X154585103Y-98109534D01*
X154550367Y-98128101D01*
X154512674Y-98139535D01*
X154467339Y-98144000D01*
X153380661Y-98144000D01*
X153335326Y-98139535D01*
X153297633Y-98128101D01*
X153262897Y-98109534D01*
X153232452Y-98084548D01*
X153207466Y-98054103D01*
X153188899Y-98019367D01*
X153177465Y-97981674D01*
X153173000Y-97936339D01*
X153173000Y-97099661D01*
X153177465Y-97054326D01*
X153188899Y-97016633D01*
X153207466Y-96981897D01*
X153232452Y-96951452D01*
X153262897Y-96926466D01*
X153297633Y-96907899D01*
X153335326Y-96896465D01*
X153380661Y-96892000D01*
X154467339Y-96892000D01*
X154512674Y-96896465D01*
X154512674Y-96896465D01*
G37*
G36*
X157565000Y-98083000D02*
G01*
X155463000Y-98083000D01*
X155463000Y-96481000D01*
X157565000Y-96481000D01*
X157565000Y-98083000D01*
X157565000Y-98083000D01*
G37*
G36*
X184738674Y-96669465D02*
G01*
X184776367Y-96680899D01*
X184811103Y-96699466D01*
X184841548Y-96724452D01*
X184866534Y-96754897D01*
X184885101Y-96789633D01*
X184896535Y-96827326D01*
X184901000Y-96872661D01*
X184901000Y-97709339D01*
X184896535Y-97754674D01*
X184885101Y-97792367D01*
X184866534Y-97827103D01*
X184841548Y-97857548D01*
X184811103Y-97882534D01*
X184776367Y-97901101D01*
X184738674Y-97912535D01*
X184693339Y-97917000D01*
X183606661Y-97917000D01*
X183561326Y-97912535D01*
X183523633Y-97901101D01*
X183488897Y-97882534D01*
X183458452Y-97857548D01*
X183433466Y-97827103D01*
X183414899Y-97792367D01*
X183403465Y-97754674D01*
X183399000Y-97709339D01*
X183399000Y-96872661D01*
X183403465Y-96827326D01*
X183414899Y-96789633D01*
X183433466Y-96754897D01*
X183458452Y-96724452D01*
X183488897Y-96699466D01*
X183523633Y-96680899D01*
X183561326Y-96669465D01*
X183606661Y-96665000D01*
X184693339Y-96665000D01*
X184738674Y-96669465D01*
X184738674Y-96669465D01*
G37*
G36*
X150986442Y-95625518D02*
G01*
X151052627Y-95632037D01*
X151222466Y-95683557D01*
X151378991Y-95767222D01*
X151398216Y-95783000D01*
X151516186Y-95879814D01*
X151599448Y-95981271D01*
X151628778Y-96017009D01*
X151712443Y-96173534D01*
X151763963Y-96343373D01*
X151781359Y-96520000D01*
X151763963Y-96696627D01*
X151712443Y-96866466D01*
X151628778Y-97022991D01*
X151603062Y-97054326D01*
X151516186Y-97160186D01*
X151414729Y-97243448D01*
X151378991Y-97272778D01*
X151222466Y-97356443D01*
X151052627Y-97407963D01*
X150986442Y-97414482D01*
X150920260Y-97421000D01*
X150831740Y-97421000D01*
X150765558Y-97414482D01*
X150699373Y-97407963D01*
X150529534Y-97356443D01*
X150373009Y-97272778D01*
X150337271Y-97243448D01*
X150235814Y-97160186D01*
X150148938Y-97054326D01*
X150123222Y-97022991D01*
X150039557Y-96866466D01*
X149988037Y-96696627D01*
X149970641Y-96520000D01*
X149988037Y-96343373D01*
X150039557Y-96173534D01*
X150123222Y-96017009D01*
X150152552Y-95981271D01*
X150235814Y-95879814D01*
X150353784Y-95783000D01*
X150373009Y-95767222D01*
X150529534Y-95683557D01*
X150699373Y-95632037D01*
X150765558Y-95625518D01*
X150831740Y-95619000D01*
X150920260Y-95619000D01*
X150986442Y-95625518D01*
X150986442Y-95625518D01*
G37*
G36*
X148446442Y-95625518D02*
G01*
X148512627Y-95632037D01*
X148682466Y-95683557D01*
X148838991Y-95767222D01*
X148858216Y-95783000D01*
X148976186Y-95879814D01*
X149059448Y-95981271D01*
X149088778Y-96017009D01*
X149172443Y-96173534D01*
X149223963Y-96343373D01*
X149241359Y-96520000D01*
X149223963Y-96696627D01*
X149172443Y-96866466D01*
X149088778Y-97022991D01*
X149063062Y-97054326D01*
X148976186Y-97160186D01*
X148874729Y-97243448D01*
X148838991Y-97272778D01*
X148682466Y-97356443D01*
X148512627Y-97407963D01*
X148446442Y-97414482D01*
X148380260Y-97421000D01*
X148291740Y-97421000D01*
X148225558Y-97414482D01*
X148159373Y-97407963D01*
X147989534Y-97356443D01*
X147833009Y-97272778D01*
X147797271Y-97243448D01*
X147695814Y-97160186D01*
X147608938Y-97054326D01*
X147583222Y-97022991D01*
X147499557Y-96866466D01*
X147448037Y-96696627D01*
X147430641Y-96520000D01*
X147448037Y-96343373D01*
X147499557Y-96173534D01*
X147583222Y-96017009D01*
X147612552Y-95981271D01*
X147695814Y-95879814D01*
X147813784Y-95783000D01*
X147833009Y-95767222D01*
X147989534Y-95683557D01*
X148159373Y-95632037D01*
X148225558Y-95625518D01*
X148291740Y-95619000D01*
X148380260Y-95619000D01*
X148446442Y-95625518D01*
X148446442Y-95625518D01*
G37*
G36*
X169942295Y-94993323D02*
G01*
X169949309Y-94995451D01*
X169963077Y-95002810D01*
X169985716Y-95012187D01*
X170009749Y-95016967D01*
X170034253Y-95016967D01*
X170058286Y-95012186D01*
X170080923Y-95002810D01*
X170094691Y-94995451D01*
X170101705Y-94993323D01*
X170115140Y-94992000D01*
X170428860Y-94992000D01*
X170442295Y-94993323D01*
X170449309Y-94995451D01*
X170463077Y-95002810D01*
X170485716Y-95012187D01*
X170509749Y-95016967D01*
X170534253Y-95016967D01*
X170558286Y-95012186D01*
X170580923Y-95002810D01*
X170594691Y-94995451D01*
X170601705Y-94993323D01*
X170615140Y-94992000D01*
X170928860Y-94992000D01*
X170942295Y-94993323D01*
X170949309Y-94995451D01*
X170963077Y-95002810D01*
X170985716Y-95012187D01*
X171009749Y-95016967D01*
X171034253Y-95016967D01*
X171058286Y-95012186D01*
X171080923Y-95002810D01*
X171094691Y-94995451D01*
X171101705Y-94993323D01*
X171115140Y-94992000D01*
X171428860Y-94992000D01*
X171442295Y-94993323D01*
X171449309Y-94995451D01*
X171463077Y-95002810D01*
X171485716Y-95012187D01*
X171509749Y-95016967D01*
X171534253Y-95016967D01*
X171558286Y-95012186D01*
X171580923Y-95002810D01*
X171594691Y-94995451D01*
X171601705Y-94993323D01*
X171615140Y-94992000D01*
X171928860Y-94992000D01*
X171942295Y-94993323D01*
X171949309Y-94995451D01*
X171963077Y-95002810D01*
X171985716Y-95012187D01*
X172009749Y-95016967D01*
X172034253Y-95016967D01*
X172058286Y-95012186D01*
X172080923Y-95002810D01*
X172094691Y-94995451D01*
X172101705Y-94993323D01*
X172115140Y-94992000D01*
X172428860Y-94992000D01*
X172442295Y-94993323D01*
X172449309Y-94995451D01*
X172463077Y-95002810D01*
X172485716Y-95012187D01*
X172509749Y-95016967D01*
X172534253Y-95016967D01*
X172558286Y-95012186D01*
X172580923Y-95002810D01*
X172594691Y-94995451D01*
X172601705Y-94993323D01*
X172615140Y-94992000D01*
X172928860Y-94992000D01*
X172942295Y-94993323D01*
X172949309Y-94995451D01*
X172963077Y-95002810D01*
X172985716Y-95012187D01*
X173009749Y-95016967D01*
X173034253Y-95016967D01*
X173058286Y-95012186D01*
X173080923Y-95002810D01*
X173094691Y-94995451D01*
X173101705Y-94993323D01*
X173115140Y-94992000D01*
X173428860Y-94992000D01*
X173442295Y-94993323D01*
X173449309Y-94995451D01*
X173463077Y-95002810D01*
X173485716Y-95012187D01*
X173509749Y-95016967D01*
X173534253Y-95016967D01*
X173558286Y-95012186D01*
X173580923Y-95002810D01*
X173594691Y-94995451D01*
X173601705Y-94993323D01*
X173615140Y-94992000D01*
X173928860Y-94992000D01*
X173942295Y-94993323D01*
X173949309Y-94995451D01*
X173963077Y-95002810D01*
X173985716Y-95012187D01*
X174009749Y-95016967D01*
X174034253Y-95016967D01*
X174058286Y-95012186D01*
X174080923Y-95002810D01*
X174094691Y-94995451D01*
X174101705Y-94993323D01*
X174115140Y-94992000D01*
X174428860Y-94992000D01*
X174442295Y-94993323D01*
X174449309Y-94995451D01*
X174463077Y-95002810D01*
X174485716Y-95012187D01*
X174509749Y-95016967D01*
X174534253Y-95016967D01*
X174558286Y-95012186D01*
X174580923Y-95002810D01*
X174594691Y-94995451D01*
X174601705Y-94993323D01*
X174615140Y-94992000D01*
X174928860Y-94992000D01*
X174942295Y-94993323D01*
X174949309Y-94995451D01*
X174963077Y-95002810D01*
X174985716Y-95012187D01*
X175009749Y-95016967D01*
X175034253Y-95016967D01*
X175058286Y-95012186D01*
X175080923Y-95002810D01*
X175094691Y-94995451D01*
X175101705Y-94993323D01*
X175115140Y-94992000D01*
X175428860Y-94992000D01*
X175442295Y-94993323D01*
X175449309Y-94995451D01*
X175463077Y-95002810D01*
X175485716Y-95012187D01*
X175509749Y-95016967D01*
X175534253Y-95016967D01*
X175558286Y-95012186D01*
X175580923Y-95002810D01*
X175594691Y-94995451D01*
X175601705Y-94993323D01*
X175615140Y-94992000D01*
X175928860Y-94992000D01*
X175942295Y-94993323D01*
X175949309Y-94995451D01*
X175963077Y-95002810D01*
X175985716Y-95012187D01*
X176009749Y-95016967D01*
X176034253Y-95016967D01*
X176058286Y-95012186D01*
X176080923Y-95002810D01*
X176094691Y-94995451D01*
X176101705Y-94993323D01*
X176115140Y-94992000D01*
X176428860Y-94992000D01*
X176442295Y-94993323D01*
X176449309Y-94995451D01*
X176463077Y-95002810D01*
X176485716Y-95012187D01*
X176509749Y-95016967D01*
X176534253Y-95016967D01*
X176558286Y-95012186D01*
X176580923Y-95002810D01*
X176594691Y-94995451D01*
X176601705Y-94993323D01*
X176615140Y-94992000D01*
X176928860Y-94992000D01*
X176942295Y-94993323D01*
X176949309Y-94995451D01*
X176963077Y-95002810D01*
X176985716Y-95012187D01*
X177009749Y-95016967D01*
X177034253Y-95016967D01*
X177058286Y-95012186D01*
X177080923Y-95002810D01*
X177094691Y-94995451D01*
X177101705Y-94993323D01*
X177115140Y-94992000D01*
X177428860Y-94992000D01*
X177442295Y-94993323D01*
X177449310Y-94995451D01*
X177455776Y-94998908D01*
X177461442Y-95003558D01*
X177466092Y-95009224D01*
X177469549Y-95015690D01*
X177471677Y-95022705D01*
X177473000Y-95036140D01*
X177473000Y-96599860D01*
X177471677Y-96613295D01*
X177469549Y-96620310D01*
X177466092Y-96626776D01*
X177461442Y-96632442D01*
X177455776Y-96637092D01*
X177449310Y-96640549D01*
X177442295Y-96642677D01*
X177428860Y-96644000D01*
X177115140Y-96644000D01*
X177101705Y-96642677D01*
X177094691Y-96640549D01*
X177080923Y-96633190D01*
X177058284Y-96623813D01*
X177034251Y-96619033D01*
X177009747Y-96619033D01*
X176985714Y-96623814D01*
X176963077Y-96633190D01*
X176949309Y-96640549D01*
X176942295Y-96642677D01*
X176928860Y-96644000D01*
X176615140Y-96644000D01*
X176601705Y-96642677D01*
X176594691Y-96640549D01*
X176580923Y-96633190D01*
X176558284Y-96623813D01*
X176534251Y-96619033D01*
X176509747Y-96619033D01*
X176485714Y-96623814D01*
X176463077Y-96633190D01*
X176449309Y-96640549D01*
X176442295Y-96642677D01*
X176428860Y-96644000D01*
X176115140Y-96644000D01*
X176101705Y-96642677D01*
X176094691Y-96640549D01*
X176080923Y-96633190D01*
X176058284Y-96623813D01*
X176034251Y-96619033D01*
X176009747Y-96619033D01*
X175985714Y-96623814D01*
X175963077Y-96633190D01*
X175949309Y-96640549D01*
X175942295Y-96642677D01*
X175928860Y-96644000D01*
X175615140Y-96644000D01*
X175601705Y-96642677D01*
X175594691Y-96640549D01*
X175580923Y-96633190D01*
X175558284Y-96623813D01*
X175534251Y-96619033D01*
X175509747Y-96619033D01*
X175485714Y-96623814D01*
X175463077Y-96633190D01*
X175449309Y-96640549D01*
X175442295Y-96642677D01*
X175428860Y-96644000D01*
X175115140Y-96644000D01*
X175101705Y-96642677D01*
X175094691Y-96640549D01*
X175080923Y-96633190D01*
X175058284Y-96623813D01*
X175034251Y-96619033D01*
X175009747Y-96619033D01*
X174985714Y-96623814D01*
X174963077Y-96633190D01*
X174949309Y-96640549D01*
X174942295Y-96642677D01*
X174928860Y-96644000D01*
X174615140Y-96644000D01*
X174601705Y-96642677D01*
X174594691Y-96640549D01*
X174580923Y-96633190D01*
X174558284Y-96623813D01*
X174534251Y-96619033D01*
X174509747Y-96619033D01*
X174485714Y-96623814D01*
X174463077Y-96633190D01*
X174449309Y-96640549D01*
X174442295Y-96642677D01*
X174428860Y-96644000D01*
X174115140Y-96644000D01*
X174101705Y-96642677D01*
X174094691Y-96640549D01*
X174080923Y-96633190D01*
X174058284Y-96623813D01*
X174034251Y-96619033D01*
X174009747Y-96619033D01*
X173985714Y-96623814D01*
X173963077Y-96633190D01*
X173949309Y-96640549D01*
X173942295Y-96642677D01*
X173928860Y-96644000D01*
X173615140Y-96644000D01*
X173601705Y-96642677D01*
X173594691Y-96640549D01*
X173580923Y-96633190D01*
X173558284Y-96623813D01*
X173534251Y-96619033D01*
X173509747Y-96619033D01*
X173485714Y-96623814D01*
X173463077Y-96633190D01*
X173449309Y-96640549D01*
X173442295Y-96642677D01*
X173428860Y-96644000D01*
X173115140Y-96644000D01*
X173101705Y-96642677D01*
X173094691Y-96640549D01*
X173080923Y-96633190D01*
X173058284Y-96623813D01*
X173034251Y-96619033D01*
X173009747Y-96619033D01*
X172985714Y-96623814D01*
X172963077Y-96633190D01*
X172949309Y-96640549D01*
X172942295Y-96642677D01*
X172928860Y-96644000D01*
X172615140Y-96644000D01*
X172601705Y-96642677D01*
X172594691Y-96640549D01*
X172580923Y-96633190D01*
X172558284Y-96623813D01*
X172534251Y-96619033D01*
X172509747Y-96619033D01*
X172485714Y-96623814D01*
X172463077Y-96633190D01*
X172449309Y-96640549D01*
X172442295Y-96642677D01*
X172428860Y-96644000D01*
X172115140Y-96644000D01*
X172101705Y-96642677D01*
X172094691Y-96640549D01*
X172080923Y-96633190D01*
X172058284Y-96623813D01*
X172034251Y-96619033D01*
X172009747Y-96619033D01*
X171985714Y-96623814D01*
X171963077Y-96633190D01*
X171949309Y-96640549D01*
X171942295Y-96642677D01*
X171928860Y-96644000D01*
X171615140Y-96644000D01*
X171601705Y-96642677D01*
X171594691Y-96640549D01*
X171580923Y-96633190D01*
X171558284Y-96623813D01*
X171534251Y-96619033D01*
X171509747Y-96619033D01*
X171485714Y-96623814D01*
X171463077Y-96633190D01*
X171449309Y-96640549D01*
X171442295Y-96642677D01*
X171428860Y-96644000D01*
X171115140Y-96644000D01*
X171101705Y-96642677D01*
X171094691Y-96640549D01*
X171080923Y-96633190D01*
X171058284Y-96623813D01*
X171034251Y-96619033D01*
X171009747Y-96619033D01*
X170985714Y-96623814D01*
X170963077Y-96633190D01*
X170949309Y-96640549D01*
X170942295Y-96642677D01*
X170928860Y-96644000D01*
X170615140Y-96644000D01*
X170601705Y-96642677D01*
X170594691Y-96640549D01*
X170580923Y-96633190D01*
X170558284Y-96623813D01*
X170534251Y-96619033D01*
X170509747Y-96619033D01*
X170485714Y-96623814D01*
X170463077Y-96633190D01*
X170449309Y-96640549D01*
X170442295Y-96642677D01*
X170428860Y-96644000D01*
X170115140Y-96644000D01*
X170101705Y-96642677D01*
X170094691Y-96640549D01*
X170080923Y-96633190D01*
X170058284Y-96623813D01*
X170034251Y-96619033D01*
X170009747Y-96619033D01*
X169985714Y-96623814D01*
X169963077Y-96633190D01*
X169949309Y-96640549D01*
X169942295Y-96642677D01*
X169928860Y-96644000D01*
X169615140Y-96644000D01*
X169601705Y-96642677D01*
X169594690Y-96640549D01*
X169588224Y-96637092D01*
X169582558Y-96632442D01*
X169577908Y-96626776D01*
X169574451Y-96620310D01*
X169572323Y-96613295D01*
X169571000Y-96599860D01*
X169571000Y-95036140D01*
X169572323Y-95022705D01*
X169574451Y-95015690D01*
X169577908Y-95009224D01*
X169582558Y-95003558D01*
X169588224Y-94998908D01*
X169594690Y-94995451D01*
X169601705Y-94993323D01*
X169615140Y-94992000D01*
X169928860Y-94992000D01*
X169942295Y-94993323D01*
X169942295Y-94993323D01*
G37*
G36*
X184738674Y-94619465D02*
G01*
X184776367Y-94630899D01*
X184811103Y-94649466D01*
X184841548Y-94674452D01*
X184866534Y-94704897D01*
X184885101Y-94739633D01*
X184896535Y-94777326D01*
X184901000Y-94822661D01*
X184901000Y-95659339D01*
X184896535Y-95704674D01*
X184885101Y-95742367D01*
X184866534Y-95777103D01*
X184841548Y-95807548D01*
X184811103Y-95832534D01*
X184776367Y-95851101D01*
X184738674Y-95862535D01*
X184693339Y-95867000D01*
X183606661Y-95867000D01*
X183561326Y-95862535D01*
X183523633Y-95851101D01*
X183488897Y-95832534D01*
X183458452Y-95807548D01*
X183433466Y-95777103D01*
X183414899Y-95742367D01*
X183403465Y-95704674D01*
X183399000Y-95659339D01*
X183399000Y-94822661D01*
X183403465Y-94777326D01*
X183414899Y-94739633D01*
X183433466Y-94704897D01*
X183458452Y-94674452D01*
X183488897Y-94649466D01*
X183523633Y-94630899D01*
X183561326Y-94619465D01*
X183606661Y-94615000D01*
X184693339Y-94615000D01*
X184738674Y-94619465D01*
X184738674Y-94619465D01*
G37*
G36*
X157565000Y-95783000D02*
G01*
X155463000Y-95783000D01*
X155463000Y-94181000D01*
X157565000Y-94181000D01*
X157565000Y-95783000D01*
X157565000Y-95783000D01*
G37*
G36*
X150986443Y-93085519D02*
G01*
X151052627Y-93092037D01*
X151222466Y-93143557D01*
X151378991Y-93227222D01*
X151414729Y-93256552D01*
X151516186Y-93339814D01*
X151599448Y-93441271D01*
X151628778Y-93477009D01*
X151712443Y-93633534D01*
X151763963Y-93803373D01*
X151781359Y-93980000D01*
X151763963Y-94156627D01*
X151712443Y-94326466D01*
X151628778Y-94482991D01*
X151599448Y-94518729D01*
X151516186Y-94620186D01*
X151425367Y-94694718D01*
X151378991Y-94732778D01*
X151222466Y-94816443D01*
X151052627Y-94867963D01*
X150986443Y-94874481D01*
X150920260Y-94881000D01*
X150831740Y-94881000D01*
X150765557Y-94874481D01*
X150699373Y-94867963D01*
X150529534Y-94816443D01*
X150373009Y-94732778D01*
X150326633Y-94694718D01*
X150235814Y-94620186D01*
X150152552Y-94518729D01*
X150123222Y-94482991D01*
X150039557Y-94326466D01*
X149988037Y-94156627D01*
X149970641Y-93980000D01*
X149988037Y-93803373D01*
X150039557Y-93633534D01*
X150123222Y-93477009D01*
X150152552Y-93441271D01*
X150235814Y-93339814D01*
X150337271Y-93256552D01*
X150373009Y-93227222D01*
X150529534Y-93143557D01*
X150699373Y-93092037D01*
X150765557Y-93085519D01*
X150831740Y-93079000D01*
X150920260Y-93079000D01*
X150986443Y-93085519D01*
X150986443Y-93085519D01*
G37*
G36*
X148446443Y-93085519D02*
G01*
X148512627Y-93092037D01*
X148682466Y-93143557D01*
X148838991Y-93227222D01*
X148874729Y-93256552D01*
X148976186Y-93339814D01*
X149059448Y-93441271D01*
X149088778Y-93477009D01*
X149172443Y-93633534D01*
X149223963Y-93803373D01*
X149241359Y-93980000D01*
X149223963Y-94156627D01*
X149172443Y-94326466D01*
X149088778Y-94482991D01*
X149059448Y-94518729D01*
X148976186Y-94620186D01*
X148885367Y-94694718D01*
X148838991Y-94732778D01*
X148682466Y-94816443D01*
X148512627Y-94867963D01*
X148446443Y-94874481D01*
X148380260Y-94881000D01*
X148291740Y-94881000D01*
X148225557Y-94874481D01*
X148159373Y-94867963D01*
X147989534Y-94816443D01*
X147833009Y-94732778D01*
X147786633Y-94694718D01*
X147695814Y-94620186D01*
X147612552Y-94518729D01*
X147583222Y-94482991D01*
X147499557Y-94326466D01*
X147448037Y-94156627D01*
X147430641Y-93980000D01*
X147448037Y-93803373D01*
X147499557Y-93633534D01*
X147583222Y-93477009D01*
X147612552Y-93441271D01*
X147695814Y-93339814D01*
X147797271Y-93256552D01*
X147833009Y-93227222D01*
X147989534Y-93143557D01*
X148159373Y-93092037D01*
X148225557Y-93085519D01*
X148291740Y-93079000D01*
X148380260Y-93079000D01*
X148446443Y-93085519D01*
X148446443Y-93085519D01*
G37*
G36*
X169391674Y-92471465D02*
G01*
X169429367Y-92482899D01*
X169464103Y-92501466D01*
X169494548Y-92526452D01*
X169519534Y-92556897D01*
X169538101Y-92591633D01*
X169549535Y-92629326D01*
X169554000Y-92674661D01*
X169554000Y-93761339D01*
X169549535Y-93806674D01*
X169538101Y-93844367D01*
X169519534Y-93879103D01*
X169494548Y-93909548D01*
X169464103Y-93934534D01*
X169429367Y-93953101D01*
X169391674Y-93964535D01*
X169346339Y-93969000D01*
X168509661Y-93969000D01*
X168464326Y-93964535D01*
X168426633Y-93953101D01*
X168391897Y-93934534D01*
X168361452Y-93909548D01*
X168336466Y-93879103D01*
X168317899Y-93844367D01*
X168306465Y-93806674D01*
X168302000Y-93761339D01*
X168302000Y-92674661D01*
X168306465Y-92629326D01*
X168317899Y-92591633D01*
X168336466Y-92556897D01*
X168361452Y-92526452D01*
X168391897Y-92501466D01*
X168426633Y-92482899D01*
X168464326Y-92471465D01*
X168509661Y-92467000D01*
X169346339Y-92467000D01*
X169391674Y-92471465D01*
X169391674Y-92471465D01*
G37*
G36*
X167341674Y-92471465D02*
G01*
X167379367Y-92482899D01*
X167414103Y-92501466D01*
X167444548Y-92526452D01*
X167469534Y-92556897D01*
X167488101Y-92591633D01*
X167499535Y-92629326D01*
X167504000Y-92674661D01*
X167504000Y-93761339D01*
X167499535Y-93806674D01*
X167488101Y-93844367D01*
X167469534Y-93879103D01*
X167444548Y-93909548D01*
X167414103Y-93934534D01*
X167379367Y-93953101D01*
X167341674Y-93964535D01*
X167296339Y-93969000D01*
X166459661Y-93969000D01*
X166414326Y-93964535D01*
X166376633Y-93953101D01*
X166341897Y-93934534D01*
X166311452Y-93909548D01*
X166286466Y-93879103D01*
X166267899Y-93844367D01*
X166256465Y-93806674D01*
X166252000Y-93761339D01*
X166252000Y-92674661D01*
X166256465Y-92629326D01*
X166267899Y-92591633D01*
X166286466Y-92556897D01*
X166311452Y-92526452D01*
X166341897Y-92501466D01*
X166376633Y-92482899D01*
X166414326Y-92471465D01*
X166459661Y-92467000D01*
X167296339Y-92467000D01*
X167341674Y-92471465D01*
X167341674Y-92471465D01*
G37*
G36*
X162640674Y-92106465D02*
G01*
X162678367Y-92117899D01*
X162713103Y-92136466D01*
X162743548Y-92161452D01*
X162768534Y-92191897D01*
X162787101Y-92226633D01*
X162798535Y-92264326D01*
X162803000Y-92309661D01*
X162803000Y-93146339D01*
X162798535Y-93191674D01*
X162787101Y-93229367D01*
X162768534Y-93264103D01*
X162743548Y-93294548D01*
X162713103Y-93319534D01*
X162678367Y-93338101D01*
X162640674Y-93349535D01*
X162595339Y-93354000D01*
X161508661Y-93354000D01*
X161463326Y-93349535D01*
X161425633Y-93338101D01*
X161390897Y-93319534D01*
X161360452Y-93294548D01*
X161335466Y-93264103D01*
X161316899Y-93229367D01*
X161305465Y-93191674D01*
X161301000Y-93146339D01*
X161301000Y-92309661D01*
X161305465Y-92264326D01*
X161316899Y-92226633D01*
X161335466Y-92191897D01*
X161360452Y-92161452D01*
X161390897Y-92136466D01*
X161425633Y-92117899D01*
X161463326Y-92106465D01*
X161508661Y-92102000D01*
X162595339Y-92102000D01*
X162640674Y-92106465D01*
X162640674Y-92106465D01*
G37*
G36*
X157239562Y-91369681D02*
G01*
X157274481Y-91380274D01*
X157306663Y-91397476D01*
X157334873Y-91420627D01*
X157358024Y-91448837D01*
X157375226Y-91481019D01*
X157385819Y-91515938D01*
X157390000Y-91558395D01*
X157390000Y-92699605D01*
X157385819Y-92742062D01*
X157375226Y-92776981D01*
X157358024Y-92809163D01*
X157334873Y-92837373D01*
X157306663Y-92860524D01*
X157274481Y-92877726D01*
X157239562Y-92888319D01*
X157197105Y-92892500D01*
X155730895Y-92892500D01*
X155688438Y-92888319D01*
X155653519Y-92877726D01*
X155621337Y-92860524D01*
X155593127Y-92837373D01*
X155569976Y-92809163D01*
X155552774Y-92776981D01*
X155542181Y-92742062D01*
X155538000Y-92699605D01*
X155538000Y-91558395D01*
X155542181Y-91515938D01*
X155552774Y-91481019D01*
X155569976Y-91448837D01*
X155593127Y-91420627D01*
X155621337Y-91397476D01*
X155653519Y-91380274D01*
X155688438Y-91369681D01*
X155730895Y-91365500D01*
X157197105Y-91365500D01*
X157239562Y-91369681D01*
X157239562Y-91369681D01*
G37*
G36*
X181436674Y-91122215D02*
G01*
X181474367Y-91133649D01*
X181509103Y-91152216D01*
X181539548Y-91177202D01*
X181564534Y-91207647D01*
X181583101Y-91242383D01*
X181594535Y-91280076D01*
X181599000Y-91325411D01*
X181599000Y-92162089D01*
X181594535Y-92207424D01*
X181583101Y-92245117D01*
X181564534Y-92279853D01*
X181539548Y-92310298D01*
X181509103Y-92335284D01*
X181474367Y-92353851D01*
X181436674Y-92365285D01*
X181391339Y-92369750D01*
X180304661Y-92369750D01*
X180259326Y-92365285D01*
X180221633Y-92353851D01*
X180186897Y-92335284D01*
X180156452Y-92310298D01*
X180131466Y-92279853D01*
X180112899Y-92245117D01*
X180101465Y-92207424D01*
X180097000Y-92162089D01*
X180097000Y-91325411D01*
X180101465Y-91280076D01*
X180112899Y-91242383D01*
X180131466Y-91207647D01*
X180156452Y-91177202D01*
X180186897Y-91152216D01*
X180221633Y-91133649D01*
X180259326Y-91122215D01*
X180304661Y-91117750D01*
X181391339Y-91117750D01*
X181436674Y-91122215D01*
X181436674Y-91122215D01*
G37*
G36*
X150986443Y-90545519D02*
G01*
X151052627Y-90552037D01*
X151222466Y-90603557D01*
X151378991Y-90687222D01*
X151414729Y-90716552D01*
X151516186Y-90799814D01*
X151576618Y-90873452D01*
X151628778Y-90937009D01*
X151712443Y-91093534D01*
X151763963Y-91263373D01*
X151781359Y-91440000D01*
X151763963Y-91616627D01*
X151717457Y-91769936D01*
X151712442Y-91786468D01*
X151680127Y-91846925D01*
X151628778Y-91942991D01*
X151601603Y-91976103D01*
X151516186Y-92080186D01*
X151417162Y-92161452D01*
X151378991Y-92192778D01*
X151351590Y-92207424D01*
X151274205Y-92248788D01*
X151222466Y-92276443D01*
X151052627Y-92327963D01*
X150986443Y-92334481D01*
X150920260Y-92341000D01*
X150831740Y-92341000D01*
X150765557Y-92334481D01*
X150699373Y-92327963D01*
X150529534Y-92276443D01*
X150477796Y-92248788D01*
X150400410Y-92207424D01*
X150373009Y-92192778D01*
X150334838Y-92161452D01*
X150235814Y-92080186D01*
X150150397Y-91976103D01*
X150123222Y-91942991D01*
X150071873Y-91846925D01*
X150039558Y-91786468D01*
X150034543Y-91769936D01*
X149988037Y-91616627D01*
X149970641Y-91440000D01*
X149988037Y-91263373D01*
X150039557Y-91093534D01*
X150123222Y-90937009D01*
X150175382Y-90873452D01*
X150235814Y-90799814D01*
X150337271Y-90716552D01*
X150373009Y-90687222D01*
X150529534Y-90603557D01*
X150699373Y-90552037D01*
X150765557Y-90545519D01*
X150831740Y-90539000D01*
X150920260Y-90539000D01*
X150986443Y-90545519D01*
X150986443Y-90545519D01*
G37*
G36*
X148446443Y-90545519D02*
G01*
X148512627Y-90552037D01*
X148682466Y-90603557D01*
X148838991Y-90687222D01*
X148874729Y-90716552D01*
X148976186Y-90799814D01*
X149036618Y-90873452D01*
X149088778Y-90937009D01*
X149172443Y-91093534D01*
X149223963Y-91263373D01*
X149241359Y-91440000D01*
X149223963Y-91616627D01*
X149177457Y-91769936D01*
X149172442Y-91786468D01*
X149140127Y-91846925D01*
X149088778Y-91942991D01*
X149061603Y-91976103D01*
X148976186Y-92080186D01*
X148877162Y-92161452D01*
X148838991Y-92192778D01*
X148811590Y-92207424D01*
X148734205Y-92248788D01*
X148682466Y-92276443D01*
X148512627Y-92327963D01*
X148446443Y-92334481D01*
X148380260Y-92341000D01*
X148291740Y-92341000D01*
X148225557Y-92334481D01*
X148159373Y-92327963D01*
X147989534Y-92276443D01*
X147937796Y-92248788D01*
X147860410Y-92207424D01*
X147833009Y-92192778D01*
X147794838Y-92161452D01*
X147695814Y-92080186D01*
X147610397Y-91976103D01*
X147583222Y-91942991D01*
X147531873Y-91846925D01*
X147499558Y-91786468D01*
X147494543Y-91769936D01*
X147448037Y-91616627D01*
X147430641Y-91440000D01*
X147448037Y-91263373D01*
X147499557Y-91093534D01*
X147583222Y-90937009D01*
X147635382Y-90873452D01*
X147695814Y-90799814D01*
X147797271Y-90716552D01*
X147833009Y-90687222D01*
X147989534Y-90603557D01*
X148159373Y-90552037D01*
X148225557Y-90545519D01*
X148291740Y-90539000D01*
X148380260Y-90539000D01*
X148446443Y-90545519D01*
X148446443Y-90545519D01*
G37*
G36*
X171276674Y-90818465D02*
G01*
X171314367Y-90829899D01*
X171349103Y-90848466D01*
X171379548Y-90873452D01*
X171404534Y-90903897D01*
X171423101Y-90938633D01*
X171434535Y-90976326D01*
X171439000Y-91021661D01*
X171439000Y-91858339D01*
X171434535Y-91903674D01*
X171423101Y-91941367D01*
X171404534Y-91976103D01*
X171379548Y-92006548D01*
X171349103Y-92031534D01*
X171314367Y-92050101D01*
X171276674Y-92061535D01*
X171231339Y-92066000D01*
X170144661Y-92066000D01*
X170099326Y-92061535D01*
X170061633Y-92050101D01*
X170026897Y-92031534D01*
X169996452Y-92006548D01*
X169971466Y-91976103D01*
X169952899Y-91941367D01*
X169941465Y-91903674D01*
X169937000Y-91858339D01*
X169937000Y-91021661D01*
X169941465Y-90976326D01*
X169952899Y-90938633D01*
X169971466Y-90903897D01*
X169996452Y-90873452D01*
X170026897Y-90848466D01*
X170061633Y-90829899D01*
X170099326Y-90818465D01*
X170144661Y-90814000D01*
X171231339Y-90814000D01*
X171276674Y-90818465D01*
X171276674Y-90818465D01*
G37*
G36*
X178134674Y-90818465D02*
G01*
X178172367Y-90829899D01*
X178207103Y-90848466D01*
X178237548Y-90873452D01*
X178262534Y-90903897D01*
X178281101Y-90938633D01*
X178292535Y-90976326D01*
X178297000Y-91021661D01*
X178297000Y-91858339D01*
X178292535Y-91903674D01*
X178281101Y-91941367D01*
X178262534Y-91976103D01*
X178237548Y-92006548D01*
X178207103Y-92031534D01*
X178172367Y-92050101D01*
X178134674Y-92061535D01*
X178089339Y-92066000D01*
X177002661Y-92066000D01*
X176957326Y-92061535D01*
X176919633Y-92050101D01*
X176884897Y-92031534D01*
X176854452Y-92006548D01*
X176829466Y-91976103D01*
X176810899Y-91941367D01*
X176799465Y-91903674D01*
X176795000Y-91858339D01*
X176795000Y-91021661D01*
X176799465Y-90976326D01*
X176810899Y-90938633D01*
X176829466Y-90903897D01*
X176854452Y-90873452D01*
X176884897Y-90848466D01*
X176919633Y-90829899D01*
X176957326Y-90818465D01*
X177002661Y-90814000D01*
X178089339Y-90814000D01*
X178134674Y-90818465D01*
X178134674Y-90818465D01*
G37*
G36*
X174832674Y-90818465D02*
G01*
X174870367Y-90829899D01*
X174905103Y-90848466D01*
X174935548Y-90873452D01*
X174960534Y-90903897D01*
X174979101Y-90938633D01*
X174990535Y-90976326D01*
X174995000Y-91021661D01*
X174995000Y-91858339D01*
X174990535Y-91903674D01*
X174979101Y-91941367D01*
X174960534Y-91976103D01*
X174935548Y-92006548D01*
X174905103Y-92031534D01*
X174870367Y-92050101D01*
X174832674Y-92061535D01*
X174787339Y-92066000D01*
X173700661Y-92066000D01*
X173655326Y-92061535D01*
X173617633Y-92050101D01*
X173582897Y-92031534D01*
X173552452Y-92006548D01*
X173527466Y-91976103D01*
X173508899Y-91941367D01*
X173497465Y-91903674D01*
X173493000Y-91858339D01*
X173493000Y-91021661D01*
X173497465Y-90976326D01*
X173508899Y-90938633D01*
X173527466Y-90903897D01*
X173552452Y-90873452D01*
X173582897Y-90848466D01*
X173617633Y-90829899D01*
X173655326Y-90818465D01*
X173700661Y-90814000D01*
X174787339Y-90814000D01*
X174832674Y-90818465D01*
X174832674Y-90818465D01*
G37*
G36*
X195948500Y-91808500D02*
G01*
X193941500Y-91808500D01*
X193941500Y-89801500D01*
X195948500Y-89801500D01*
X195948500Y-91808500D01*
X195948500Y-91808500D01*
G37*
G36*
X192531425Y-89806988D02*
G01*
X192697710Y-89840063D01*
X192880336Y-89915709D01*
X193044694Y-90025530D01*
X193184470Y-90165306D01*
X193294291Y-90329664D01*
X193369937Y-90512290D01*
X193408500Y-90706164D01*
X193408500Y-90903836D01*
X193369937Y-91097710D01*
X193294291Y-91280336D01*
X193184470Y-91444694D01*
X193044694Y-91584470D01*
X192880336Y-91694291D01*
X192697710Y-91769937D01*
X192531425Y-91803012D01*
X192503837Y-91808500D01*
X192306163Y-91808500D01*
X192278575Y-91803012D01*
X192112290Y-91769937D01*
X191929664Y-91694291D01*
X191765306Y-91584470D01*
X191625530Y-91444694D01*
X191515709Y-91280336D01*
X191440063Y-91097710D01*
X191401500Y-90903836D01*
X191401500Y-90706164D01*
X191440063Y-90512290D01*
X191515709Y-90329664D01*
X191625530Y-90165306D01*
X191765306Y-90025530D01*
X191929664Y-89915709D01*
X192112290Y-89840063D01*
X192278575Y-89806988D01*
X192306163Y-89801500D01*
X192503837Y-89801500D01*
X192531425Y-89806988D01*
X192531425Y-89806988D01*
G37*
G36*
X211581425Y-89806988D02*
G01*
X211747710Y-89840063D01*
X211930336Y-89915709D01*
X212094694Y-90025530D01*
X212234470Y-90165306D01*
X212344291Y-90329664D01*
X212419937Y-90512290D01*
X212458500Y-90706164D01*
X212458500Y-90903836D01*
X212419937Y-91097710D01*
X212344291Y-91280336D01*
X212234470Y-91444694D01*
X212094694Y-91584470D01*
X211930336Y-91694291D01*
X211747710Y-91769937D01*
X211581425Y-91803012D01*
X211553837Y-91808500D01*
X211356163Y-91808500D01*
X211328575Y-91803012D01*
X211162290Y-91769937D01*
X210979664Y-91694291D01*
X210815306Y-91584470D01*
X210675530Y-91444694D01*
X210565709Y-91280336D01*
X210490063Y-91097710D01*
X210451500Y-90903836D01*
X210451500Y-90706164D01*
X210490063Y-90512290D01*
X210565709Y-90329664D01*
X210675530Y-90165306D01*
X210815306Y-90025530D01*
X210979664Y-89915709D01*
X211162290Y-89840063D01*
X211328575Y-89806988D01*
X211356163Y-89801500D01*
X211553837Y-89801500D01*
X211581425Y-89806988D01*
X211581425Y-89806988D01*
G37*
G36*
X214998500Y-91808500D02*
G01*
X212991500Y-91808500D01*
X212991500Y-89801500D01*
X214998500Y-89801500D01*
X214998500Y-91808500D01*
X214998500Y-91808500D01*
G37*
G36*
X167849674Y-90185465D02*
G01*
X167887367Y-90196899D01*
X167922103Y-90215466D01*
X167952548Y-90240452D01*
X167977534Y-90270897D01*
X167996101Y-90305633D01*
X168007535Y-90343326D01*
X168012000Y-90388661D01*
X168012000Y-91475339D01*
X168007535Y-91520674D01*
X167996101Y-91558367D01*
X167977534Y-91593103D01*
X167952548Y-91623548D01*
X167922103Y-91648534D01*
X167887367Y-91667101D01*
X167849674Y-91678535D01*
X167804339Y-91683000D01*
X166967661Y-91683000D01*
X166922326Y-91678535D01*
X166884633Y-91667101D01*
X166849897Y-91648534D01*
X166819452Y-91623548D01*
X166794466Y-91593103D01*
X166775899Y-91558367D01*
X166764465Y-91520674D01*
X166760000Y-91475339D01*
X166760000Y-90388661D01*
X166764465Y-90343326D01*
X166775899Y-90305633D01*
X166794466Y-90270897D01*
X166819452Y-90240452D01*
X166849897Y-90215466D01*
X166884633Y-90196899D01*
X166922326Y-90185465D01*
X166967661Y-90181000D01*
X167804339Y-90181000D01*
X167849674Y-90185465D01*
X167849674Y-90185465D01*
G37*
G36*
X165799674Y-90185465D02*
G01*
X165837367Y-90196899D01*
X165872103Y-90215466D01*
X165902548Y-90240452D01*
X165927534Y-90270897D01*
X165946101Y-90305633D01*
X165957535Y-90343326D01*
X165962000Y-90388661D01*
X165962000Y-91475339D01*
X165957535Y-91520674D01*
X165946101Y-91558367D01*
X165927534Y-91593103D01*
X165902548Y-91623548D01*
X165872103Y-91648534D01*
X165837367Y-91667101D01*
X165799674Y-91678535D01*
X165754339Y-91683000D01*
X164917661Y-91683000D01*
X164872326Y-91678535D01*
X164834633Y-91667101D01*
X164799897Y-91648534D01*
X164769452Y-91623548D01*
X164744466Y-91593103D01*
X164725899Y-91558367D01*
X164714465Y-91520674D01*
X164710000Y-91475339D01*
X164710000Y-90388661D01*
X164714465Y-90343326D01*
X164725899Y-90305633D01*
X164744466Y-90270897D01*
X164769452Y-90240452D01*
X164799897Y-90215466D01*
X164834633Y-90196899D01*
X164872326Y-90185465D01*
X164917661Y-90181000D01*
X165754339Y-90181000D01*
X165799674Y-90185465D01*
X165799674Y-90185465D01*
G37*
G36*
X162640674Y-90056465D02*
G01*
X162678367Y-90067899D01*
X162713103Y-90086466D01*
X162743548Y-90111452D01*
X162768534Y-90141897D01*
X162787101Y-90176633D01*
X162798535Y-90214326D01*
X162803000Y-90259661D01*
X162803000Y-91096339D01*
X162798535Y-91141674D01*
X162787101Y-91179367D01*
X162768534Y-91214103D01*
X162743548Y-91244548D01*
X162713103Y-91269534D01*
X162678367Y-91288101D01*
X162640674Y-91299535D01*
X162595339Y-91304000D01*
X161508661Y-91304000D01*
X161463326Y-91299535D01*
X161425633Y-91288101D01*
X161390897Y-91269534D01*
X161360452Y-91244548D01*
X161335466Y-91214103D01*
X161316899Y-91179367D01*
X161305465Y-91141674D01*
X161301000Y-91096339D01*
X161301000Y-90259661D01*
X161305465Y-90214326D01*
X161316899Y-90176633D01*
X161335466Y-90141897D01*
X161360452Y-90111452D01*
X161390897Y-90086466D01*
X161425633Y-90067899D01*
X161463326Y-90056465D01*
X161508661Y-90052000D01*
X162595339Y-90052000D01*
X162640674Y-90056465D01*
X162640674Y-90056465D01*
G37*
G36*
X181436674Y-89072215D02*
G01*
X181474367Y-89083649D01*
X181509103Y-89102216D01*
X181539548Y-89127202D01*
X181564534Y-89157647D01*
X181583101Y-89192383D01*
X181594535Y-89230076D01*
X181599000Y-89275411D01*
X181599000Y-90112089D01*
X181594535Y-90157424D01*
X181583101Y-90195117D01*
X181564534Y-90229853D01*
X181539548Y-90260298D01*
X181509103Y-90285284D01*
X181474367Y-90303851D01*
X181436674Y-90315285D01*
X181391339Y-90319750D01*
X180304661Y-90319750D01*
X180259326Y-90315285D01*
X180221633Y-90303851D01*
X180186897Y-90285284D01*
X180156452Y-90260298D01*
X180131466Y-90229853D01*
X180112899Y-90195117D01*
X180101465Y-90157424D01*
X180097000Y-90112089D01*
X180097000Y-89275411D01*
X180101465Y-89230076D01*
X180112899Y-89192383D01*
X180131466Y-89157647D01*
X180156452Y-89127202D01*
X180186897Y-89102216D01*
X180221633Y-89083649D01*
X180259326Y-89072215D01*
X180304661Y-89067750D01*
X181391339Y-89067750D01*
X181436674Y-89072215D01*
X181436674Y-89072215D01*
G37*
G36*
X178134674Y-88768465D02*
G01*
X178172367Y-88779899D01*
X178207103Y-88798466D01*
X178237548Y-88823452D01*
X178262534Y-88853897D01*
X178281101Y-88888633D01*
X178292535Y-88926326D01*
X178297000Y-88971661D01*
X178297000Y-89808339D01*
X178292535Y-89853674D01*
X178281101Y-89891367D01*
X178262534Y-89926103D01*
X178237548Y-89956548D01*
X178207103Y-89981534D01*
X178172367Y-90000101D01*
X178134674Y-90011535D01*
X178089339Y-90016000D01*
X177002661Y-90016000D01*
X176957326Y-90011535D01*
X176919633Y-90000101D01*
X176884897Y-89981534D01*
X176854452Y-89956548D01*
X176829466Y-89926103D01*
X176810899Y-89891367D01*
X176799465Y-89853674D01*
X176795000Y-89808339D01*
X176795000Y-88971661D01*
X176799465Y-88926326D01*
X176810899Y-88888633D01*
X176829466Y-88853897D01*
X176854452Y-88823452D01*
X176884897Y-88798466D01*
X176919633Y-88779899D01*
X176957326Y-88768465D01*
X177002661Y-88764000D01*
X178089339Y-88764000D01*
X178134674Y-88768465D01*
X178134674Y-88768465D01*
G37*
G36*
X174832674Y-88768465D02*
G01*
X174870367Y-88779899D01*
X174905103Y-88798466D01*
X174935548Y-88823452D01*
X174960534Y-88853897D01*
X174979101Y-88888633D01*
X174990535Y-88926326D01*
X174995000Y-88971661D01*
X174995000Y-89808339D01*
X174990535Y-89853674D01*
X174979101Y-89891367D01*
X174960534Y-89926103D01*
X174935548Y-89956548D01*
X174905103Y-89981534D01*
X174870367Y-90000101D01*
X174832674Y-90011535D01*
X174787339Y-90016000D01*
X173700661Y-90016000D01*
X173655326Y-90011535D01*
X173617633Y-90000101D01*
X173582897Y-89981534D01*
X173552452Y-89956548D01*
X173527466Y-89926103D01*
X173508899Y-89891367D01*
X173497465Y-89853674D01*
X173493000Y-89808339D01*
X173493000Y-88971661D01*
X173497465Y-88926326D01*
X173508899Y-88888633D01*
X173527466Y-88853897D01*
X173552452Y-88823452D01*
X173582897Y-88798466D01*
X173617633Y-88779899D01*
X173655326Y-88768465D01*
X173700661Y-88764000D01*
X174787339Y-88764000D01*
X174832674Y-88768465D01*
X174832674Y-88768465D01*
G37*
G36*
X171276674Y-88768465D02*
G01*
X171314367Y-88779899D01*
X171349103Y-88798466D01*
X171379548Y-88823452D01*
X171404534Y-88853897D01*
X171423101Y-88888633D01*
X171434535Y-88926326D01*
X171439000Y-88971661D01*
X171439000Y-89808339D01*
X171434535Y-89853674D01*
X171423101Y-89891367D01*
X171404534Y-89926103D01*
X171379548Y-89956548D01*
X171349103Y-89981534D01*
X171314367Y-90000101D01*
X171276674Y-90011535D01*
X171231339Y-90016000D01*
X170144661Y-90016000D01*
X170099326Y-90011535D01*
X170061633Y-90000101D01*
X170026897Y-89981534D01*
X169996452Y-89956548D01*
X169971466Y-89926103D01*
X169952899Y-89891367D01*
X169941465Y-89853674D01*
X169937000Y-89808339D01*
X169937000Y-88971661D01*
X169941465Y-88926326D01*
X169952899Y-88888633D01*
X169971466Y-88853897D01*
X169996452Y-88823452D01*
X170026897Y-88798466D01*
X170061633Y-88779899D01*
X170099326Y-88768465D01*
X170144661Y-88764000D01*
X171231339Y-88764000D01*
X171276674Y-88768465D01*
X171276674Y-88768465D01*
G37*
G36*
X157239562Y-88394681D02*
G01*
X157274481Y-88405274D01*
X157306663Y-88422476D01*
X157334873Y-88445627D01*
X157358024Y-88473837D01*
X157375226Y-88506019D01*
X157385819Y-88540938D01*
X157390000Y-88583395D01*
X157390000Y-89724605D01*
X157385819Y-89767062D01*
X157375226Y-89801981D01*
X157358024Y-89834163D01*
X157334873Y-89862373D01*
X157306663Y-89885524D01*
X157274481Y-89902726D01*
X157239562Y-89913319D01*
X157197105Y-89917500D01*
X155730895Y-89917500D01*
X155688438Y-89913319D01*
X155653519Y-89902726D01*
X155621337Y-89885524D01*
X155593127Y-89862373D01*
X155569976Y-89834163D01*
X155552774Y-89801981D01*
X155542181Y-89767062D01*
X155538000Y-89724605D01*
X155538000Y-88583395D01*
X155542181Y-88540938D01*
X155552774Y-88506019D01*
X155569976Y-88473837D01*
X155593127Y-88445627D01*
X155621337Y-88422476D01*
X155653519Y-88405274D01*
X155688438Y-88394681D01*
X155730895Y-88390500D01*
X157197105Y-88390500D01*
X157239562Y-88394681D01*
X157239562Y-88394681D01*
G37*
G36*
X148446443Y-88005519D02*
G01*
X148512627Y-88012037D01*
X148682466Y-88063557D01*
X148838991Y-88147222D01*
X148863301Y-88167173D01*
X148976186Y-88259814D01*
X149059448Y-88361271D01*
X149088778Y-88397009D01*
X149172443Y-88553534D01*
X149223963Y-88723373D01*
X149241359Y-88900000D01*
X149223963Y-89076627D01*
X149172443Y-89246466D01*
X149172442Y-89246468D01*
X149140032Y-89307103D01*
X149088778Y-89402991D01*
X149059448Y-89438729D01*
X148976186Y-89540186D01*
X148874729Y-89623448D01*
X148838991Y-89652778D01*
X148682466Y-89736443D01*
X148512627Y-89787963D01*
X148446443Y-89794481D01*
X148380260Y-89801000D01*
X148291740Y-89801000D01*
X148225557Y-89794481D01*
X148159373Y-89787963D01*
X147989534Y-89736443D01*
X147833009Y-89652778D01*
X147797271Y-89623448D01*
X147695814Y-89540186D01*
X147612552Y-89438729D01*
X147583222Y-89402991D01*
X147531968Y-89307103D01*
X147499558Y-89246468D01*
X147499557Y-89246466D01*
X147448037Y-89076627D01*
X147430641Y-88900000D01*
X147448037Y-88723373D01*
X147499557Y-88553534D01*
X147583222Y-88397009D01*
X147612552Y-88361271D01*
X147695814Y-88259814D01*
X147808699Y-88167173D01*
X147833009Y-88147222D01*
X147989534Y-88063557D01*
X148159373Y-88012037D01*
X148225557Y-88005519D01*
X148291740Y-87999000D01*
X148380260Y-87999000D01*
X148446443Y-88005519D01*
X148446443Y-88005519D01*
G37*
G36*
X150986443Y-88005519D02*
G01*
X151052627Y-88012037D01*
X151222466Y-88063557D01*
X151378991Y-88147222D01*
X151403301Y-88167173D01*
X151516186Y-88259814D01*
X151599448Y-88361271D01*
X151628778Y-88397009D01*
X151712443Y-88553534D01*
X151763963Y-88723373D01*
X151781359Y-88900000D01*
X151763963Y-89076627D01*
X151712443Y-89246466D01*
X151712442Y-89246468D01*
X151680032Y-89307103D01*
X151628778Y-89402991D01*
X151599448Y-89438729D01*
X151516186Y-89540186D01*
X151414729Y-89623448D01*
X151378991Y-89652778D01*
X151222466Y-89736443D01*
X151052627Y-89787963D01*
X150986443Y-89794481D01*
X150920260Y-89801000D01*
X150831740Y-89801000D01*
X150765557Y-89794481D01*
X150699373Y-89787963D01*
X150529534Y-89736443D01*
X150373009Y-89652778D01*
X150337271Y-89623448D01*
X150235814Y-89540186D01*
X150152552Y-89438729D01*
X150123222Y-89402991D01*
X150071968Y-89307103D01*
X150039558Y-89246468D01*
X150039557Y-89246466D01*
X149988037Y-89076627D01*
X149970641Y-88900000D01*
X149988037Y-88723373D01*
X150039557Y-88553534D01*
X150123222Y-88397009D01*
X150152552Y-88361271D01*
X150235814Y-88259814D01*
X150348699Y-88167173D01*
X150373009Y-88147222D01*
X150529534Y-88063557D01*
X150699373Y-88012037D01*
X150765557Y-88005519D01*
X150831740Y-87999000D01*
X150920260Y-87999000D01*
X150986443Y-88005519D01*
X150986443Y-88005519D01*
G37*
G36*
X163785674Y-87899465D02*
G01*
X163823367Y-87910899D01*
X163858103Y-87929466D01*
X163888548Y-87954452D01*
X163913534Y-87984897D01*
X163932101Y-88019633D01*
X163943535Y-88057326D01*
X163948000Y-88102661D01*
X163948000Y-89189339D01*
X163943535Y-89234674D01*
X163932101Y-89272367D01*
X163913534Y-89307103D01*
X163888548Y-89337548D01*
X163858103Y-89362534D01*
X163823367Y-89381101D01*
X163785674Y-89392535D01*
X163740339Y-89397000D01*
X162903661Y-89397000D01*
X162858326Y-89392535D01*
X162820633Y-89381101D01*
X162785897Y-89362534D01*
X162755452Y-89337548D01*
X162730466Y-89307103D01*
X162711899Y-89272367D01*
X162700465Y-89234674D01*
X162696000Y-89189339D01*
X162696000Y-88102661D01*
X162700465Y-88057326D01*
X162711899Y-88019633D01*
X162730466Y-87984897D01*
X162755452Y-87954452D01*
X162785897Y-87929466D01*
X162820633Y-87910899D01*
X162858326Y-87899465D01*
X162903661Y-87895000D01*
X163740339Y-87895000D01*
X163785674Y-87899465D01*
X163785674Y-87899465D01*
G37*
G36*
X161735674Y-87899465D02*
G01*
X161773367Y-87910899D01*
X161808103Y-87929466D01*
X161838548Y-87954452D01*
X161863534Y-87984897D01*
X161882101Y-88019633D01*
X161893535Y-88057326D01*
X161898000Y-88102661D01*
X161898000Y-89189339D01*
X161893535Y-89234674D01*
X161882101Y-89272367D01*
X161863534Y-89307103D01*
X161838548Y-89337548D01*
X161808103Y-89362534D01*
X161773367Y-89381101D01*
X161735674Y-89392535D01*
X161690339Y-89397000D01*
X160853661Y-89397000D01*
X160808326Y-89392535D01*
X160770633Y-89381101D01*
X160735897Y-89362534D01*
X160705452Y-89337548D01*
X160680466Y-89307103D01*
X160661899Y-89272367D01*
X160650465Y-89234674D01*
X160646000Y-89189339D01*
X160646000Y-88102661D01*
X160650465Y-88057326D01*
X160661899Y-88019633D01*
X160680466Y-87984897D01*
X160705452Y-87954452D01*
X160735897Y-87929466D01*
X160770633Y-87910899D01*
X160808326Y-87899465D01*
X160853661Y-87895000D01*
X161690339Y-87895000D01*
X161735674Y-87899465D01*
X161735674Y-87899465D01*
G37*
G36*
X167849674Y-87899465D02*
G01*
X167887367Y-87910899D01*
X167922103Y-87929466D01*
X167952548Y-87954452D01*
X167977534Y-87984897D01*
X167996101Y-88019633D01*
X168007535Y-88057326D01*
X168012000Y-88102661D01*
X168012000Y-89189339D01*
X168007535Y-89234674D01*
X167996101Y-89272367D01*
X167977534Y-89307103D01*
X167952548Y-89337548D01*
X167922103Y-89362534D01*
X167887367Y-89381101D01*
X167849674Y-89392535D01*
X167804339Y-89397000D01*
X166967661Y-89397000D01*
X166922326Y-89392535D01*
X166884633Y-89381101D01*
X166849897Y-89362534D01*
X166819452Y-89337548D01*
X166794466Y-89307103D01*
X166775899Y-89272367D01*
X166764465Y-89234674D01*
X166760000Y-89189339D01*
X166760000Y-88102661D01*
X166764465Y-88057326D01*
X166775899Y-88019633D01*
X166794466Y-87984897D01*
X166819452Y-87954452D01*
X166849897Y-87929466D01*
X166884633Y-87910899D01*
X166922326Y-87899465D01*
X166967661Y-87895000D01*
X167804339Y-87895000D01*
X167849674Y-87899465D01*
X167849674Y-87899465D01*
G37*
G36*
X165799674Y-87899465D02*
G01*
X165837367Y-87910899D01*
X165872103Y-87929466D01*
X165902548Y-87954452D01*
X165927534Y-87984897D01*
X165946101Y-88019633D01*
X165957535Y-88057326D01*
X165962000Y-88102661D01*
X165962000Y-89189339D01*
X165957535Y-89234674D01*
X165946101Y-89272367D01*
X165927534Y-89307103D01*
X165902548Y-89337548D01*
X165872103Y-89362534D01*
X165837367Y-89381101D01*
X165799674Y-89392535D01*
X165754339Y-89397000D01*
X164917661Y-89397000D01*
X164872326Y-89392535D01*
X164834633Y-89381101D01*
X164799897Y-89362534D01*
X164769452Y-89337548D01*
X164744466Y-89307103D01*
X164725899Y-89272367D01*
X164714465Y-89234674D01*
X164710000Y-89189339D01*
X164710000Y-88102661D01*
X164714465Y-88057326D01*
X164725899Y-88019633D01*
X164744466Y-87984897D01*
X164769452Y-87954452D01*
X164799897Y-87929466D01*
X164834633Y-87910899D01*
X164872326Y-87899465D01*
X164917661Y-87895000D01*
X165754339Y-87895000D01*
X165799674Y-87899465D01*
X165799674Y-87899465D01*
G37*
G36*
X202581000Y-88131000D02*
G01*
X201279000Y-88131000D01*
X201279000Y-87129000D01*
X202581000Y-87129000D01*
X202581000Y-88131000D01*
X202581000Y-88131000D01*
G37*
G36*
X183468674Y-86754465D02*
G01*
X183506367Y-86765899D01*
X183541103Y-86784466D01*
X183571548Y-86809452D01*
X183596534Y-86839897D01*
X183615101Y-86874633D01*
X183626535Y-86912326D01*
X183631000Y-86957661D01*
X183631000Y-87794339D01*
X183626535Y-87839674D01*
X183615101Y-87877367D01*
X183596534Y-87912103D01*
X183571548Y-87942548D01*
X183541103Y-87967534D01*
X183506367Y-87986101D01*
X183468674Y-87997535D01*
X183423339Y-88002000D01*
X182336661Y-88002000D01*
X182291326Y-87997535D01*
X182253633Y-87986101D01*
X182218897Y-87967534D01*
X182188452Y-87942548D01*
X182163466Y-87912103D01*
X182144899Y-87877367D01*
X182133465Y-87839674D01*
X182129000Y-87794339D01*
X182129000Y-86957661D01*
X182133465Y-86912326D01*
X182144899Y-86874633D01*
X182163466Y-86839897D01*
X182188452Y-86809452D01*
X182218897Y-86784466D01*
X182253633Y-86765899D01*
X182291326Y-86754465D01*
X182336661Y-86750000D01*
X183423339Y-86750000D01*
X183468674Y-86754465D01*
X183468674Y-86754465D01*
G37*
G36*
X186592874Y-86652865D02*
G01*
X186630567Y-86664299D01*
X186665303Y-86682866D01*
X186695748Y-86707852D01*
X186720734Y-86738297D01*
X186739301Y-86773033D01*
X186750735Y-86810726D01*
X186755200Y-86856061D01*
X186755200Y-87692739D01*
X186750735Y-87738074D01*
X186739301Y-87775767D01*
X186720734Y-87810503D01*
X186695748Y-87840948D01*
X186665303Y-87865934D01*
X186630567Y-87884501D01*
X186592874Y-87895935D01*
X186547539Y-87900400D01*
X185460861Y-87900400D01*
X185415526Y-87895935D01*
X185377833Y-87884501D01*
X185343097Y-87865934D01*
X185312652Y-87840948D01*
X185287666Y-87810503D01*
X185269099Y-87775767D01*
X185257665Y-87738074D01*
X185253200Y-87692739D01*
X185253200Y-86856061D01*
X185257665Y-86810726D01*
X185269099Y-86773033D01*
X185287666Y-86738297D01*
X185312652Y-86707852D01*
X185343097Y-86682866D01*
X185377833Y-86664299D01*
X185415526Y-86652865D01*
X185460861Y-86648400D01*
X186547539Y-86648400D01*
X186592874Y-86652865D01*
X186592874Y-86652865D01*
G37*
G36*
X221631000Y-87876000D02*
G01*
X220329000Y-87876000D01*
X220329000Y-86874000D01*
X221631000Y-86874000D01*
X221631000Y-87876000D01*
X221631000Y-87876000D01*
G37*
G36*
X194271474Y-83758684D02*
G01*
X194480141Y-83845117D01*
X194643623Y-83912833D01*
X194978548Y-84136623D01*
X195263377Y-84421452D01*
X195487167Y-84756377D01*
X195534468Y-84870573D01*
X195641316Y-85128526D01*
X195719900Y-85523594D01*
X195719900Y-85926406D01*
X195641316Y-86321474D01*
X195590451Y-86444272D01*
X195487167Y-86693623D01*
X195263377Y-87028548D01*
X194978548Y-87313377D01*
X194643623Y-87537167D01*
X194489474Y-87601017D01*
X194271474Y-87691316D01*
X193876406Y-87769900D01*
X193473594Y-87769900D01*
X193078526Y-87691316D01*
X192860526Y-87601017D01*
X192706377Y-87537167D01*
X192371452Y-87313377D01*
X192086623Y-87028548D01*
X191862833Y-86693623D01*
X191759549Y-86444272D01*
X191708684Y-86321474D01*
X191630100Y-85926406D01*
X191630100Y-85523594D01*
X191708684Y-85128526D01*
X191815532Y-84870573D01*
X191862833Y-84756377D01*
X192086623Y-84421452D01*
X192371452Y-84136623D01*
X192706377Y-83912833D01*
X192869859Y-83845117D01*
X193078526Y-83758684D01*
X193473594Y-83680100D01*
X193876406Y-83680100D01*
X194271474Y-83758684D01*
X194271474Y-83758684D01*
G37*
G36*
X213321474Y-83758684D02*
G01*
X213530141Y-83845117D01*
X213693623Y-83912833D01*
X214028548Y-84136623D01*
X214313377Y-84421452D01*
X214537167Y-84756377D01*
X214584468Y-84870573D01*
X214691316Y-85128526D01*
X214769900Y-85523594D01*
X214769900Y-85926406D01*
X214691316Y-86321474D01*
X214640451Y-86444272D01*
X214537167Y-86693623D01*
X214313377Y-87028548D01*
X214028548Y-87313377D01*
X213693623Y-87537167D01*
X213539474Y-87601017D01*
X213321474Y-87691316D01*
X212926406Y-87769900D01*
X212523594Y-87769900D01*
X212128526Y-87691316D01*
X211910526Y-87601017D01*
X211756377Y-87537167D01*
X211421452Y-87313377D01*
X211136623Y-87028548D01*
X210912833Y-86693623D01*
X210809549Y-86444272D01*
X210758684Y-86321474D01*
X210680100Y-85926406D01*
X210680100Y-85523594D01*
X210758684Y-85128526D01*
X210865532Y-84870573D01*
X210912833Y-84756377D01*
X211136623Y-84421452D01*
X211421452Y-84136623D01*
X211756377Y-83912833D01*
X211919859Y-83845117D01*
X212128526Y-83758684D01*
X212523594Y-83680100D01*
X212926406Y-83680100D01*
X213321474Y-83758684D01*
X213321474Y-83758684D01*
G37*
G36*
X159114442Y-85465518D02*
G01*
X159180627Y-85472037D01*
X159350466Y-85523557D01*
X159506991Y-85607222D01*
X159542729Y-85636552D01*
X159644186Y-85719814D01*
X159702563Y-85790948D01*
X159756778Y-85857009D01*
X159840443Y-86013534D01*
X159891963Y-86183373D01*
X159909359Y-86360000D01*
X159891963Y-86536627D01*
X159840443Y-86706466D01*
X159756778Y-86862991D01*
X159733032Y-86891925D01*
X159644186Y-87000186D01*
X159565049Y-87065131D01*
X159506991Y-87112778D01*
X159350466Y-87196443D01*
X159180627Y-87247963D01*
X159114442Y-87254482D01*
X159048260Y-87261000D01*
X158959740Y-87261000D01*
X158893558Y-87254482D01*
X158827373Y-87247963D01*
X158657534Y-87196443D01*
X158501009Y-87112778D01*
X158442951Y-87065131D01*
X158363814Y-87000186D01*
X158274968Y-86891925D01*
X158251222Y-86862991D01*
X158167557Y-86706466D01*
X158116037Y-86536627D01*
X158098641Y-86360000D01*
X158116037Y-86183373D01*
X158167557Y-86013534D01*
X158251222Y-85857009D01*
X158305437Y-85790948D01*
X158363814Y-85719814D01*
X158465271Y-85636552D01*
X158501009Y-85607222D01*
X158657534Y-85523557D01*
X158827373Y-85472037D01*
X158893558Y-85465518D01*
X158959740Y-85459000D01*
X159048260Y-85459000D01*
X159114442Y-85465518D01*
X159114442Y-85465518D01*
G37*
G36*
X150986442Y-85465518D02*
G01*
X151052627Y-85472037D01*
X151222466Y-85523557D01*
X151378991Y-85607222D01*
X151414729Y-85636552D01*
X151516186Y-85719814D01*
X151574563Y-85790948D01*
X151628778Y-85857009D01*
X151712443Y-86013534D01*
X151763963Y-86183373D01*
X151781359Y-86360000D01*
X151763963Y-86536627D01*
X151712443Y-86706466D01*
X151628778Y-86862991D01*
X151605032Y-86891925D01*
X151516186Y-87000186D01*
X151437049Y-87065131D01*
X151378991Y-87112778D01*
X151222466Y-87196443D01*
X151052627Y-87247963D01*
X150986442Y-87254482D01*
X150920260Y-87261000D01*
X150831740Y-87261000D01*
X150765558Y-87254482D01*
X150699373Y-87247963D01*
X150529534Y-87196443D01*
X150373009Y-87112778D01*
X150314951Y-87065131D01*
X150235814Y-87000186D01*
X150146968Y-86891925D01*
X150123222Y-86862991D01*
X150039557Y-86706466D01*
X149988037Y-86536627D01*
X149970641Y-86360000D01*
X149988037Y-86183373D01*
X150039557Y-86013534D01*
X150123222Y-85857009D01*
X150177437Y-85790948D01*
X150235814Y-85719814D01*
X150337271Y-85636552D01*
X150373009Y-85607222D01*
X150529534Y-85523557D01*
X150699373Y-85472037D01*
X150765558Y-85465518D01*
X150831740Y-85459000D01*
X150920260Y-85459000D01*
X150986442Y-85465518D01*
X150986442Y-85465518D01*
G37*
G36*
X148446442Y-85465518D02*
G01*
X148512627Y-85472037D01*
X148682466Y-85523557D01*
X148838991Y-85607222D01*
X148874729Y-85636552D01*
X148976186Y-85719814D01*
X149034563Y-85790948D01*
X149088778Y-85857009D01*
X149172443Y-86013534D01*
X149223963Y-86183373D01*
X149241359Y-86360000D01*
X149223963Y-86536627D01*
X149172443Y-86706466D01*
X149088778Y-86862991D01*
X149065032Y-86891925D01*
X148976186Y-87000186D01*
X148897049Y-87065131D01*
X148838991Y-87112778D01*
X148682466Y-87196443D01*
X148512627Y-87247963D01*
X148446442Y-87254482D01*
X148380260Y-87261000D01*
X148291740Y-87261000D01*
X148225558Y-87254482D01*
X148159373Y-87247963D01*
X147989534Y-87196443D01*
X147833009Y-87112778D01*
X147774951Y-87065131D01*
X147695814Y-87000186D01*
X147606968Y-86891925D01*
X147583222Y-86862991D01*
X147499557Y-86706466D01*
X147448037Y-86536627D01*
X147430641Y-86360000D01*
X147448037Y-86183373D01*
X147499557Y-86013534D01*
X147583222Y-85857009D01*
X147637437Y-85790948D01*
X147695814Y-85719814D01*
X147797271Y-85636552D01*
X147833009Y-85607222D01*
X147989534Y-85523557D01*
X148159373Y-85472037D01*
X148225558Y-85465518D01*
X148291740Y-85459000D01*
X148380260Y-85459000D01*
X148446442Y-85465518D01*
X148446442Y-85465518D01*
G37*
G36*
X178826174Y-85613465D02*
G01*
X178863867Y-85624899D01*
X178898603Y-85643466D01*
X178929048Y-85668452D01*
X178954034Y-85698897D01*
X178972601Y-85733633D01*
X178984035Y-85771326D01*
X178988500Y-85816661D01*
X178988500Y-86903339D01*
X178984035Y-86948674D01*
X178972601Y-86986367D01*
X178954034Y-87021103D01*
X178929048Y-87051548D01*
X178898603Y-87076534D01*
X178863867Y-87095101D01*
X178826174Y-87106535D01*
X178780839Y-87111000D01*
X177944161Y-87111000D01*
X177898826Y-87106535D01*
X177861133Y-87095101D01*
X177826397Y-87076534D01*
X177795952Y-87051548D01*
X177770966Y-87021103D01*
X177752399Y-86986367D01*
X177740965Y-86948674D01*
X177736500Y-86903339D01*
X177736500Y-85816661D01*
X177740965Y-85771326D01*
X177752399Y-85733633D01*
X177770966Y-85698897D01*
X177795952Y-85668452D01*
X177826397Y-85643466D01*
X177861133Y-85624899D01*
X177898826Y-85613465D01*
X177944161Y-85609000D01*
X178780839Y-85609000D01*
X178826174Y-85613465D01*
X178826174Y-85613465D01*
G37*
G36*
X174526174Y-85613465D02*
G01*
X174563867Y-85624899D01*
X174598603Y-85643466D01*
X174629048Y-85668452D01*
X174654034Y-85698897D01*
X174672601Y-85733633D01*
X174684035Y-85771326D01*
X174688500Y-85816661D01*
X174688500Y-86903339D01*
X174684035Y-86948674D01*
X174672601Y-86986367D01*
X174654034Y-87021103D01*
X174629048Y-87051548D01*
X174598603Y-87076534D01*
X174563867Y-87095101D01*
X174526174Y-87106535D01*
X174480839Y-87111000D01*
X173644161Y-87111000D01*
X173598826Y-87106535D01*
X173561133Y-87095101D01*
X173526397Y-87076534D01*
X173495952Y-87051548D01*
X173470966Y-87021103D01*
X173452399Y-86986367D01*
X173440965Y-86948674D01*
X173436500Y-86903339D01*
X173436500Y-85816661D01*
X173440965Y-85771326D01*
X173452399Y-85733633D01*
X173470966Y-85698897D01*
X173495952Y-85668452D01*
X173526397Y-85643466D01*
X173561133Y-85624899D01*
X173598826Y-85613465D01*
X173644161Y-85609000D01*
X174480839Y-85609000D01*
X174526174Y-85613465D01*
X174526174Y-85613465D01*
G37*
G36*
X172476174Y-85613465D02*
G01*
X172513867Y-85624899D01*
X172548603Y-85643466D01*
X172579048Y-85668452D01*
X172604034Y-85698897D01*
X172622601Y-85733633D01*
X172634035Y-85771326D01*
X172638500Y-85816661D01*
X172638500Y-86903339D01*
X172634035Y-86948674D01*
X172622601Y-86986367D01*
X172604034Y-87021103D01*
X172579048Y-87051548D01*
X172548603Y-87076534D01*
X172513867Y-87095101D01*
X172476174Y-87106535D01*
X172430839Y-87111000D01*
X171594161Y-87111000D01*
X171548826Y-87106535D01*
X171511133Y-87095101D01*
X171476397Y-87076534D01*
X171445952Y-87051548D01*
X171420966Y-87021103D01*
X171402399Y-86986367D01*
X171390965Y-86948674D01*
X171386500Y-86903339D01*
X171386500Y-85816661D01*
X171390965Y-85771326D01*
X171402399Y-85733633D01*
X171420966Y-85698897D01*
X171445952Y-85668452D01*
X171476397Y-85643466D01*
X171511133Y-85624899D01*
X171548826Y-85613465D01*
X171594161Y-85609000D01*
X172430839Y-85609000D01*
X172476174Y-85613465D01*
X172476174Y-85613465D01*
G37*
G36*
X167858674Y-85613465D02*
G01*
X167896367Y-85624899D01*
X167931103Y-85643466D01*
X167961548Y-85668452D01*
X167986534Y-85698897D01*
X168005101Y-85733633D01*
X168016535Y-85771326D01*
X168021000Y-85816661D01*
X168021000Y-86903339D01*
X168016535Y-86948674D01*
X168005101Y-86986367D01*
X167986534Y-87021103D01*
X167961548Y-87051548D01*
X167931103Y-87076534D01*
X167896367Y-87095101D01*
X167858674Y-87106535D01*
X167813339Y-87111000D01*
X166976661Y-87111000D01*
X166931326Y-87106535D01*
X166893633Y-87095101D01*
X166858897Y-87076534D01*
X166828452Y-87051548D01*
X166803466Y-87021103D01*
X166784899Y-86986367D01*
X166773465Y-86948674D01*
X166769000Y-86903339D01*
X166769000Y-85816661D01*
X166773465Y-85771326D01*
X166784899Y-85733633D01*
X166803466Y-85698897D01*
X166828452Y-85668452D01*
X166858897Y-85643466D01*
X166893633Y-85624899D01*
X166931326Y-85613465D01*
X166976661Y-85609000D01*
X167813339Y-85609000D01*
X167858674Y-85613465D01*
X167858674Y-85613465D01*
G37*
G36*
X165808674Y-85613465D02*
G01*
X165846367Y-85624899D01*
X165881103Y-85643466D01*
X165911548Y-85668452D01*
X165936534Y-85698897D01*
X165955101Y-85733633D01*
X165966535Y-85771326D01*
X165971000Y-85816661D01*
X165971000Y-86903339D01*
X165966535Y-86948674D01*
X165955101Y-86986367D01*
X165936534Y-87021103D01*
X165911548Y-87051548D01*
X165881103Y-87076534D01*
X165846367Y-87095101D01*
X165808674Y-87106535D01*
X165763339Y-87111000D01*
X164926661Y-87111000D01*
X164881326Y-87106535D01*
X164843633Y-87095101D01*
X164808897Y-87076534D01*
X164778452Y-87051548D01*
X164753466Y-87021103D01*
X164734899Y-86986367D01*
X164723465Y-86948674D01*
X164719000Y-86903339D01*
X164719000Y-85816661D01*
X164723465Y-85771326D01*
X164734899Y-85733633D01*
X164753466Y-85698897D01*
X164778452Y-85668452D01*
X164808897Y-85643466D01*
X164843633Y-85624899D01*
X164881326Y-85613465D01*
X164926661Y-85609000D01*
X165763339Y-85609000D01*
X165808674Y-85613465D01*
X165808674Y-85613465D01*
G37*
G36*
X180876174Y-85613465D02*
G01*
X180913867Y-85624899D01*
X180948603Y-85643466D01*
X180979048Y-85668452D01*
X181004034Y-85698897D01*
X181022601Y-85733633D01*
X181034035Y-85771326D01*
X181038500Y-85816661D01*
X181038500Y-86903339D01*
X181034035Y-86948674D01*
X181022601Y-86986367D01*
X181004034Y-87021103D01*
X180979048Y-87051548D01*
X180948603Y-87076534D01*
X180913867Y-87095101D01*
X180876174Y-87106535D01*
X180830839Y-87111000D01*
X179994161Y-87111000D01*
X179948826Y-87106535D01*
X179911133Y-87095101D01*
X179876397Y-87076534D01*
X179845952Y-87051548D01*
X179820966Y-87021103D01*
X179802399Y-86986367D01*
X179790965Y-86948674D01*
X179786500Y-86903339D01*
X179786500Y-85816661D01*
X179790965Y-85771326D01*
X179802399Y-85733633D01*
X179820966Y-85698897D01*
X179845952Y-85668452D01*
X179876397Y-85643466D01*
X179911133Y-85624899D01*
X179948826Y-85613465D01*
X179994161Y-85609000D01*
X180830839Y-85609000D01*
X180876174Y-85613465D01*
X180876174Y-85613465D01*
G37*
G36*
X207915104Y-84834585D02*
G01*
X208083626Y-84904389D01*
X208235291Y-85005728D01*
X208364272Y-85134709D01*
X208465611Y-85286374D01*
X208535415Y-85454896D01*
X208571000Y-85633797D01*
X208571000Y-85816203D01*
X208535415Y-85995104D01*
X208465611Y-86163626D01*
X208364272Y-86315291D01*
X208235291Y-86444272D01*
X208083626Y-86545611D01*
X207915104Y-86615415D01*
X207736203Y-86651000D01*
X207553797Y-86651000D01*
X207374896Y-86615415D01*
X207206374Y-86545611D01*
X207054709Y-86444272D01*
X206925728Y-86315291D01*
X206824389Y-86163626D01*
X206754585Y-85995104D01*
X206719000Y-85816203D01*
X206719000Y-85633797D01*
X206754585Y-85454896D01*
X206824389Y-85286374D01*
X206925728Y-85134709D01*
X207054709Y-85005728D01*
X207206374Y-84904389D01*
X207374896Y-84834585D01*
X207553797Y-84799000D01*
X207736203Y-84799000D01*
X207915104Y-84834585D01*
X207915104Y-84834585D01*
G37*
G36*
X199025104Y-84834585D02*
G01*
X199193626Y-84904389D01*
X199345291Y-85005728D01*
X199474272Y-85134709D01*
X199575611Y-85286374D01*
X199645415Y-85454896D01*
X199681000Y-85633797D01*
X199681000Y-85816203D01*
X199645415Y-85995104D01*
X199575611Y-86163626D01*
X199474272Y-86315291D01*
X199345291Y-86444272D01*
X199193626Y-86545611D01*
X199025104Y-86615415D01*
X198846203Y-86651000D01*
X198663797Y-86651000D01*
X198484896Y-86615415D01*
X198316374Y-86545611D01*
X198164709Y-86444272D01*
X198035728Y-86315291D01*
X197934389Y-86163626D01*
X197864585Y-85995104D01*
X197829000Y-85816203D01*
X197829000Y-85633797D01*
X197864585Y-85454896D01*
X197934389Y-85286374D01*
X198035728Y-85134709D01*
X198164709Y-85005728D01*
X198316374Y-84904389D01*
X198484896Y-84834585D01*
X198663797Y-84799000D01*
X198846203Y-84799000D01*
X199025104Y-84834585D01*
X199025104Y-84834585D01*
G37*
G36*
X188865104Y-84834585D02*
G01*
X189033626Y-84904389D01*
X189185291Y-85005728D01*
X189314272Y-85134709D01*
X189415611Y-85286374D01*
X189485415Y-85454896D01*
X189521000Y-85633797D01*
X189521000Y-85816203D01*
X189485415Y-85995104D01*
X189415611Y-86163626D01*
X189314272Y-86315291D01*
X189185291Y-86444272D01*
X189033626Y-86545611D01*
X188865104Y-86615415D01*
X188686203Y-86651000D01*
X188503797Y-86651000D01*
X188324896Y-86615415D01*
X188156374Y-86545611D01*
X188004709Y-86444272D01*
X187875728Y-86315291D01*
X187774389Y-86163626D01*
X187704585Y-85995104D01*
X187669000Y-85816203D01*
X187669000Y-85633797D01*
X187704585Y-85454896D01*
X187774389Y-85286374D01*
X187875728Y-85134709D01*
X188004709Y-85005728D01*
X188156374Y-84904389D01*
X188324896Y-84834585D01*
X188503797Y-84799000D01*
X188686203Y-84799000D01*
X188865104Y-84834585D01*
X188865104Y-84834585D01*
G37*
G36*
X218075104Y-84834585D02*
G01*
X218243626Y-84904389D01*
X218395291Y-85005728D01*
X218524272Y-85134709D01*
X218625611Y-85286374D01*
X218695415Y-85454896D01*
X218731000Y-85633797D01*
X218731000Y-85816203D01*
X218695415Y-85995104D01*
X218625611Y-86163626D01*
X218524272Y-86315291D01*
X218395291Y-86444272D01*
X218243626Y-86545611D01*
X218075104Y-86615415D01*
X217896203Y-86651000D01*
X217713797Y-86651000D01*
X217534896Y-86615415D01*
X217366374Y-86545611D01*
X217214709Y-86444272D01*
X217085728Y-86315291D01*
X216984389Y-86163626D01*
X216914585Y-85995104D01*
X216879000Y-85816203D01*
X216879000Y-85633797D01*
X216914585Y-85454896D01*
X216984389Y-85286374D01*
X217085728Y-85134709D01*
X217214709Y-85005728D01*
X217366374Y-84904389D01*
X217534896Y-84834585D01*
X217713797Y-84799000D01*
X217896203Y-84799000D01*
X218075104Y-84834585D01*
X218075104Y-84834585D01*
G37*
G36*
X183468674Y-84704465D02*
G01*
X183506367Y-84715899D01*
X183541103Y-84734466D01*
X183571548Y-84759452D01*
X183596534Y-84789897D01*
X183615101Y-84824633D01*
X183626535Y-84862326D01*
X183631000Y-84907661D01*
X183631000Y-85744339D01*
X183626535Y-85789674D01*
X183615101Y-85827367D01*
X183596534Y-85862103D01*
X183571548Y-85892548D01*
X183541103Y-85917534D01*
X183506367Y-85936101D01*
X183468674Y-85947535D01*
X183423339Y-85952000D01*
X182336661Y-85952000D01*
X182291326Y-85947535D01*
X182253633Y-85936101D01*
X182218897Y-85917534D01*
X182188452Y-85892548D01*
X182163466Y-85862103D01*
X182144899Y-85827367D01*
X182133465Y-85789674D01*
X182129000Y-85744339D01*
X182129000Y-84907661D01*
X182133465Y-84862326D01*
X182144899Y-84824633D01*
X182163466Y-84789897D01*
X182188452Y-84759452D01*
X182218897Y-84734466D01*
X182253633Y-84715899D01*
X182291326Y-84704465D01*
X182336661Y-84700000D01*
X183423339Y-84700000D01*
X183468674Y-84704465D01*
X183468674Y-84704465D01*
G37*
G36*
X186592874Y-84602865D02*
G01*
X186630567Y-84614299D01*
X186665303Y-84632866D01*
X186695748Y-84657852D01*
X186720734Y-84688297D01*
X186739301Y-84723033D01*
X186750735Y-84760726D01*
X186755200Y-84806061D01*
X186755200Y-85642739D01*
X186750735Y-85688074D01*
X186739301Y-85725767D01*
X186720734Y-85760503D01*
X186695748Y-85790948D01*
X186665303Y-85815934D01*
X186630567Y-85834501D01*
X186592874Y-85845935D01*
X186547539Y-85850400D01*
X185460861Y-85850400D01*
X185415526Y-85845935D01*
X185377833Y-85834501D01*
X185343097Y-85815934D01*
X185312652Y-85790948D01*
X185287666Y-85760503D01*
X185269099Y-85725767D01*
X185257665Y-85688074D01*
X185253200Y-85642739D01*
X185253200Y-84806061D01*
X185257665Y-84760726D01*
X185269099Y-84723033D01*
X185287666Y-84688297D01*
X185312652Y-84657852D01*
X185343097Y-84632866D01*
X185377833Y-84614299D01*
X185415526Y-84602865D01*
X185460861Y-84598400D01*
X186547539Y-84598400D01*
X186592874Y-84602865D01*
X186592874Y-84602865D01*
G37*
G36*
X202581000Y-84831000D02*
G01*
X201279000Y-84831000D01*
X201279000Y-83829000D01*
X202581000Y-83829000D01*
X202581000Y-84831000D01*
X202581000Y-84831000D01*
G37*
G36*
X150985351Y-82925411D02*
G01*
X151052627Y-82932037D01*
X151222466Y-82983557D01*
X151378991Y-83067222D01*
X151408575Y-83091501D01*
X151516186Y-83179814D01*
X151599448Y-83281271D01*
X151628778Y-83317009D01*
X151712443Y-83473534D01*
X151763963Y-83643373D01*
X151781359Y-83820000D01*
X151763963Y-83996627D01*
X151712443Y-84166466D01*
X151628778Y-84322991D01*
X151623171Y-84329823D01*
X151516186Y-84460186D01*
X151414729Y-84543448D01*
X151378991Y-84572778D01*
X151222466Y-84656443D01*
X151052627Y-84707963D01*
X150986443Y-84714481D01*
X150920260Y-84721000D01*
X150831740Y-84721000D01*
X150765557Y-84714481D01*
X150699373Y-84707963D01*
X150529534Y-84656443D01*
X150373009Y-84572778D01*
X150337271Y-84543448D01*
X150235814Y-84460186D01*
X150128829Y-84329823D01*
X150123222Y-84322991D01*
X150039557Y-84166466D01*
X149988037Y-83996627D01*
X149970641Y-83820000D01*
X149988037Y-83643373D01*
X150039557Y-83473534D01*
X150123222Y-83317009D01*
X150152552Y-83281271D01*
X150235814Y-83179814D01*
X150343425Y-83091501D01*
X150373009Y-83067222D01*
X150529534Y-82983557D01*
X150699373Y-82932037D01*
X150766649Y-82925411D01*
X150831740Y-82919000D01*
X150920260Y-82919000D01*
X150985351Y-82925411D01*
X150985351Y-82925411D01*
G37*
G36*
X148445351Y-82925411D02*
G01*
X148512627Y-82932037D01*
X148682466Y-82983557D01*
X148838991Y-83067222D01*
X148868575Y-83091501D01*
X148976186Y-83179814D01*
X149059448Y-83281271D01*
X149088778Y-83317009D01*
X149172443Y-83473534D01*
X149223963Y-83643373D01*
X149241359Y-83820000D01*
X149223963Y-83996627D01*
X149172443Y-84166466D01*
X149088778Y-84322991D01*
X149083171Y-84329823D01*
X148976186Y-84460186D01*
X148874729Y-84543448D01*
X148838991Y-84572778D01*
X148682466Y-84656443D01*
X148512627Y-84707963D01*
X148446443Y-84714481D01*
X148380260Y-84721000D01*
X148291740Y-84721000D01*
X148225557Y-84714481D01*
X148159373Y-84707963D01*
X147989534Y-84656443D01*
X147833009Y-84572778D01*
X147797271Y-84543448D01*
X147695814Y-84460186D01*
X147588829Y-84329823D01*
X147583222Y-84322991D01*
X147499557Y-84166466D01*
X147448037Y-83996627D01*
X147430641Y-83820000D01*
X147448037Y-83643373D01*
X147499557Y-83473534D01*
X147583222Y-83317009D01*
X147612552Y-83281271D01*
X147695814Y-83179814D01*
X147803425Y-83091501D01*
X147833009Y-83067222D01*
X147989534Y-82983557D01*
X148159373Y-82932037D01*
X148226649Y-82925411D01*
X148291740Y-82919000D01*
X148380260Y-82919000D01*
X148445351Y-82925411D01*
X148445351Y-82925411D01*
G37*
G36*
X159113351Y-82925411D02*
G01*
X159180627Y-82932037D01*
X159350466Y-82983557D01*
X159506991Y-83067222D01*
X159536575Y-83091501D01*
X159644186Y-83179814D01*
X159727448Y-83281271D01*
X159756778Y-83317009D01*
X159840443Y-83473534D01*
X159891963Y-83643373D01*
X159909359Y-83820000D01*
X159891963Y-83996627D01*
X159840443Y-84166466D01*
X159756778Y-84322991D01*
X159751171Y-84329823D01*
X159644186Y-84460186D01*
X159542729Y-84543448D01*
X159506991Y-84572778D01*
X159350466Y-84656443D01*
X159180627Y-84707963D01*
X159114443Y-84714481D01*
X159048260Y-84721000D01*
X158959740Y-84721000D01*
X158893557Y-84714481D01*
X158827373Y-84707963D01*
X158657534Y-84656443D01*
X158501009Y-84572778D01*
X158465271Y-84543448D01*
X158363814Y-84460186D01*
X158256829Y-84329823D01*
X158251222Y-84322991D01*
X158167557Y-84166466D01*
X158116037Y-83996627D01*
X158098641Y-83820000D01*
X158116037Y-83643373D01*
X158167557Y-83473534D01*
X158251222Y-83317009D01*
X158280552Y-83281271D01*
X158363814Y-83179814D01*
X158471425Y-83091501D01*
X158501009Y-83067222D01*
X158657534Y-82983557D01*
X158827373Y-82932037D01*
X158894649Y-82925411D01*
X158959740Y-82919000D01*
X159048260Y-82919000D01*
X159113351Y-82925411D01*
X159113351Y-82925411D01*
G37*
G36*
X221631000Y-84576000D02*
G01*
X220329000Y-84576000D01*
X220329000Y-83574000D01*
X221631000Y-83574000D01*
X221631000Y-84576000D01*
X221631000Y-84576000D01*
G37*
G36*
X191198205Y-80548881D02*
G01*
X191203645Y-80549000D01*
X191290828Y-80549000D01*
X191307097Y-80552236D01*
X191325956Y-80554515D01*
X191342532Y-80555246D01*
X191427223Y-80576010D01*
X191432518Y-80577184D01*
X191518027Y-80594193D01*
X191533362Y-80600545D01*
X191551401Y-80606455D01*
X191567521Y-80610407D01*
X191646504Y-80647280D01*
X191651494Y-80649477D01*
X191732045Y-80682842D01*
X191745841Y-80692060D01*
X191762393Y-80701382D01*
X191777426Y-80708400D01*
X191847694Y-80759971D01*
X191852192Y-80763122D01*
X191924656Y-80811541D01*
X191936383Y-80823268D01*
X191950809Y-80835648D01*
X191964179Y-80845461D01*
X192002049Y-80886825D01*
X192023021Y-80909733D01*
X192026829Y-80913714D01*
X192088459Y-80975344D01*
X192097674Y-80989135D01*
X192109396Y-81004078D01*
X192120605Y-81016321D01*
X192165799Y-81090874D01*
X192168746Y-81095501D01*
X192217158Y-81167955D01*
X192223505Y-81183277D01*
X192232092Y-81200231D01*
X192240691Y-81214417D01*
X192270478Y-81296368D01*
X192272452Y-81301448D01*
X192305807Y-81381973D01*
X192307102Y-81388481D01*
X192309041Y-81398233D01*
X192314158Y-81416542D01*
X192319825Y-81432134D01*
X192333055Y-81518345D01*
X192334001Y-81523713D01*
X192351000Y-81609173D01*
X192351000Y-81625752D01*
X192352444Y-81644692D01*
X192354963Y-81661104D01*
X192351120Y-81748249D01*
X192351000Y-81753689D01*
X192351000Y-81840825D01*
X192347766Y-81857083D01*
X192345488Y-81875941D01*
X192344756Y-81892531D01*
X192323988Y-81977237D01*
X192322812Y-81982537D01*
X192305807Y-82068027D01*
X192299457Y-82083357D01*
X192293549Y-82101393D01*
X192289595Y-82117520D01*
X192252711Y-82196526D01*
X192250511Y-82201523D01*
X192217158Y-82282045D01*
X192207944Y-82295835D01*
X192198622Y-82312387D01*
X192191602Y-82327424D01*
X192140011Y-82397720D01*
X192136866Y-82402210D01*
X192088461Y-82474654D01*
X192031460Y-82531655D01*
X192026811Y-82536563D01*
X191688084Y-82914075D01*
X190701723Y-84013376D01*
X190573679Y-84130602D01*
X190514517Y-84166466D01*
X190375583Y-84250689D01*
X190157866Y-84329823D01*
X189928895Y-84364961D01*
X189697470Y-84354754D01*
X189472481Y-84299593D01*
X189367727Y-84250689D01*
X189262579Y-84201602D01*
X189165838Y-84130602D01*
X189075823Y-84064539D01*
X188984955Y-83965285D01*
X188919398Y-83893679D01*
X188837564Y-83758685D01*
X188799311Y-83695583D01*
X188720177Y-83477866D01*
X188685039Y-83248895D01*
X188695246Y-83017470D01*
X188750407Y-82792481D01*
X188801972Y-82682028D01*
X188848398Y-82582580D01*
X188848400Y-82582577D01*
X188951114Y-82442622D01*
X189652340Y-81661104D01*
X190237787Y-81008621D01*
X190248681Y-80994589D01*
X190261539Y-80975346D01*
X190318573Y-80918312D01*
X190323223Y-80913403D01*
X190338278Y-80896624D01*
X190359701Y-80877011D01*
X190363682Y-80873203D01*
X190425346Y-80811539D01*
X190439143Y-80802320D01*
X190454102Y-80790585D01*
X190466321Y-80779398D01*
X190502202Y-80757647D01*
X190540830Y-80734231D01*
X190545421Y-80731308D01*
X190617955Y-80682842D01*
X190633300Y-80676486D01*
X190650248Y-80667901D01*
X190664416Y-80659312D01*
X190664417Y-80659312D01*
X190664418Y-80659311D01*
X190746312Y-80629545D01*
X190751410Y-80627563D01*
X190831973Y-80594193D01*
X190848252Y-80590955D01*
X190866542Y-80585844D01*
X190882135Y-80580177D01*
X190968300Y-80566954D01*
X190973663Y-80566009D01*
X191059173Y-80549000D01*
X191075766Y-80549000D01*
X191094709Y-80547555D01*
X191111106Y-80545039D01*
X191198205Y-80548881D01*
X191198205Y-80548881D01*
G37*
G36*
X210248205Y-80548881D02*
G01*
X210253645Y-80549000D01*
X210340828Y-80549000D01*
X210357097Y-80552236D01*
X210375956Y-80554515D01*
X210392532Y-80555246D01*
X210477223Y-80576010D01*
X210482518Y-80577184D01*
X210568027Y-80594193D01*
X210583362Y-80600545D01*
X210601401Y-80606455D01*
X210617521Y-80610407D01*
X210696504Y-80647280D01*
X210701494Y-80649477D01*
X210782045Y-80682842D01*
X210795841Y-80692060D01*
X210812393Y-80701382D01*
X210827426Y-80708400D01*
X210897694Y-80759971D01*
X210902192Y-80763122D01*
X210974656Y-80811541D01*
X210986383Y-80823268D01*
X211000809Y-80835648D01*
X211014179Y-80845461D01*
X211052049Y-80886825D01*
X211073021Y-80909733D01*
X211076829Y-80913714D01*
X211138459Y-80975344D01*
X211147674Y-80989135D01*
X211159396Y-81004078D01*
X211170605Y-81016321D01*
X211215799Y-81090874D01*
X211218746Y-81095501D01*
X211267158Y-81167955D01*
X211273505Y-81183277D01*
X211282092Y-81200231D01*
X211290691Y-81214417D01*
X211320478Y-81296368D01*
X211322452Y-81301448D01*
X211355807Y-81381973D01*
X211357102Y-81388481D01*
X211359041Y-81398233D01*
X211364158Y-81416542D01*
X211369825Y-81432134D01*
X211383055Y-81518345D01*
X211384001Y-81523713D01*
X211401000Y-81609173D01*
X211401000Y-81625752D01*
X211402444Y-81644692D01*
X211404963Y-81661104D01*
X211401120Y-81748249D01*
X211401000Y-81753689D01*
X211401000Y-81840825D01*
X211397766Y-81857083D01*
X211395488Y-81875941D01*
X211394756Y-81892531D01*
X211373988Y-81977237D01*
X211372812Y-81982537D01*
X211355807Y-82068027D01*
X211349457Y-82083357D01*
X211343549Y-82101393D01*
X211339595Y-82117520D01*
X211302711Y-82196526D01*
X211300511Y-82201523D01*
X211267158Y-82282045D01*
X211257944Y-82295835D01*
X211248622Y-82312387D01*
X211241602Y-82327424D01*
X211190011Y-82397720D01*
X211186866Y-82402210D01*
X211138461Y-82474654D01*
X211081460Y-82531655D01*
X211076811Y-82536563D01*
X210738084Y-82914075D01*
X209751723Y-84013376D01*
X209623679Y-84130602D01*
X209564517Y-84166466D01*
X209425583Y-84250689D01*
X209207866Y-84329823D01*
X208978895Y-84364961D01*
X208747470Y-84354754D01*
X208522481Y-84299593D01*
X208417727Y-84250689D01*
X208312579Y-84201602D01*
X208215838Y-84130602D01*
X208125823Y-84064539D01*
X208034955Y-83965285D01*
X207969398Y-83893679D01*
X207887564Y-83758685D01*
X207849311Y-83695583D01*
X207770177Y-83477866D01*
X207735039Y-83248895D01*
X207745246Y-83017470D01*
X207800407Y-82792481D01*
X207851972Y-82682028D01*
X207898398Y-82582580D01*
X207898400Y-82582577D01*
X208001114Y-82442622D01*
X208702340Y-81661104D01*
X209287787Y-81008621D01*
X209298681Y-80994589D01*
X209311539Y-80975346D01*
X209368573Y-80918312D01*
X209373223Y-80913403D01*
X209388278Y-80896624D01*
X209409701Y-80877011D01*
X209413682Y-80873203D01*
X209475346Y-80811539D01*
X209489143Y-80802320D01*
X209504102Y-80790585D01*
X209516321Y-80779398D01*
X209552202Y-80757647D01*
X209590830Y-80734231D01*
X209595421Y-80731308D01*
X209667955Y-80682842D01*
X209683300Y-80676486D01*
X209700248Y-80667901D01*
X209714416Y-80659312D01*
X209714417Y-80659312D01*
X209714418Y-80659311D01*
X209796312Y-80629545D01*
X209801410Y-80627563D01*
X209881973Y-80594193D01*
X209898252Y-80590955D01*
X209916542Y-80585844D01*
X209932135Y-80580177D01*
X210018300Y-80566954D01*
X210023663Y-80566009D01*
X210109173Y-80549000D01*
X210125766Y-80549000D01*
X210144709Y-80547555D01*
X210161106Y-80545039D01*
X210248205Y-80548881D01*
X210248205Y-80548881D01*
G37*
G36*
X166958674Y-82722215D02*
G01*
X166996367Y-82733649D01*
X167031103Y-82752216D01*
X167061548Y-82777202D01*
X167086534Y-82807647D01*
X167105101Y-82842383D01*
X167116535Y-82880076D01*
X167121000Y-82925411D01*
X167121000Y-83762089D01*
X167116535Y-83807424D01*
X167105101Y-83845117D01*
X167086534Y-83879853D01*
X167061548Y-83910298D01*
X167031103Y-83935284D01*
X166996367Y-83953851D01*
X166958674Y-83965285D01*
X166913339Y-83969750D01*
X165826661Y-83969750D01*
X165781326Y-83965285D01*
X165743633Y-83953851D01*
X165708897Y-83935284D01*
X165678452Y-83910298D01*
X165653466Y-83879853D01*
X165634899Y-83845117D01*
X165623465Y-83807424D01*
X165619000Y-83762089D01*
X165619000Y-82925411D01*
X165623465Y-82880076D01*
X165634899Y-82842383D01*
X165653466Y-82807647D01*
X165678452Y-82777202D01*
X165708897Y-82752216D01*
X165743633Y-82733649D01*
X165781326Y-82722215D01*
X165826661Y-82717750D01*
X166913339Y-82717750D01*
X166958674Y-82722215D01*
X166958674Y-82722215D01*
G37*
G36*
X163402674Y-82699465D02*
G01*
X163440367Y-82710899D01*
X163475103Y-82729466D01*
X163505548Y-82754452D01*
X163530534Y-82784897D01*
X163549101Y-82819633D01*
X163560535Y-82857326D01*
X163565000Y-82902661D01*
X163565000Y-83739339D01*
X163560535Y-83784674D01*
X163549101Y-83822367D01*
X163530534Y-83857103D01*
X163505548Y-83887548D01*
X163475103Y-83912534D01*
X163440367Y-83931101D01*
X163402674Y-83942535D01*
X163357339Y-83947000D01*
X162270661Y-83947000D01*
X162225326Y-83942535D01*
X162187633Y-83931101D01*
X162152897Y-83912534D01*
X162122452Y-83887548D01*
X162097466Y-83857103D01*
X162078899Y-83822367D01*
X162067465Y-83784674D01*
X162063000Y-83739339D01*
X162063000Y-82902661D01*
X162067465Y-82857326D01*
X162078899Y-82819633D01*
X162097466Y-82784897D01*
X162122452Y-82754452D01*
X162152897Y-82729466D01*
X162187633Y-82710899D01*
X162225326Y-82699465D01*
X162270661Y-82695000D01*
X163357339Y-82695000D01*
X163402674Y-82699465D01*
X163402674Y-82699465D01*
G37*
G36*
X179090000Y-83786000D02*
G01*
X171938000Y-83786000D01*
X171938000Y-82534000D01*
X179090000Y-82534000D01*
X179090000Y-83786000D01*
X179090000Y-83786000D01*
G37*
G36*
X181197015Y-81356973D02*
G01*
X181300879Y-81388479D01*
X181312435Y-81394656D01*
X181396600Y-81439643D01*
X181480501Y-81508499D01*
X181549357Y-81592400D01*
X181585995Y-81660945D01*
X181600521Y-81688121D01*
X181632027Y-81791985D01*
X181640000Y-81872933D01*
X181640000Y-82727067D01*
X181632027Y-82808015D01*
X181600521Y-82911879D01*
X181549356Y-83007600D01*
X181480501Y-83091501D01*
X181411645Y-83148009D01*
X181396599Y-83160357D01*
X181360197Y-83179814D01*
X181300878Y-83211521D01*
X181197014Y-83243027D01*
X181089000Y-83253666D01*
X180980985Y-83243027D01*
X180877121Y-83211521D01*
X180817804Y-83179815D01*
X180781401Y-83160357D01*
X180768643Y-83149887D01*
X180697499Y-83091501D01*
X180628644Y-83007600D01*
X180615793Y-82983557D01*
X180590814Y-82936825D01*
X180577479Y-82911878D01*
X180545973Y-82808014D01*
X180538000Y-82727066D01*
X180538000Y-81872933D01*
X180545303Y-81798788D01*
X180545973Y-81791984D01*
X180565085Y-81728983D01*
X180577480Y-81688121D01*
X180599152Y-81647577D01*
X180628644Y-81592400D01*
X180697500Y-81508499D01*
X180781401Y-81439643D01*
X180865566Y-81394656D01*
X180877122Y-81388479D01*
X180980986Y-81356973D01*
X181089000Y-81346334D01*
X181197015Y-81356973D01*
X181197015Y-81356973D01*
G37*
G36*
X170047015Y-81356973D02*
G01*
X170150879Y-81388479D01*
X170162435Y-81394656D01*
X170246600Y-81439643D01*
X170330501Y-81508499D01*
X170399357Y-81592400D01*
X170435995Y-81660945D01*
X170450521Y-81688121D01*
X170482027Y-81791985D01*
X170490000Y-81872933D01*
X170490000Y-82727067D01*
X170482027Y-82808015D01*
X170450521Y-82911879D01*
X170399356Y-83007600D01*
X170330501Y-83091501D01*
X170261645Y-83148009D01*
X170246599Y-83160357D01*
X170210197Y-83179814D01*
X170150878Y-83211521D01*
X170047014Y-83243027D01*
X169939000Y-83253666D01*
X169830985Y-83243027D01*
X169727121Y-83211521D01*
X169667804Y-83179815D01*
X169631401Y-83160357D01*
X169618643Y-83149887D01*
X169547499Y-83091501D01*
X169478644Y-83007600D01*
X169465793Y-82983557D01*
X169440814Y-82936825D01*
X169427479Y-82911878D01*
X169395973Y-82808014D01*
X169388000Y-82727066D01*
X169388000Y-81872933D01*
X169395303Y-81798788D01*
X169395973Y-81791984D01*
X169415085Y-81728983D01*
X169427480Y-81688121D01*
X169449152Y-81647577D01*
X169478644Y-81592400D01*
X169547500Y-81508499D01*
X169631401Y-81439643D01*
X169715566Y-81394656D01*
X169727122Y-81388479D01*
X169830986Y-81356973D01*
X169939000Y-81346334D01*
X170047015Y-81356973D01*
X170047015Y-81356973D01*
G37*
G36*
X215353127Y-79467261D02*
G01*
X215373900Y-79469000D01*
X215380827Y-79469000D01*
X215475754Y-79487882D01*
X215479348Y-79488542D01*
X215574730Y-79504624D01*
X215581203Y-79507085D01*
X215601228Y-79512841D01*
X215608027Y-79514193D01*
X215670414Y-79540034D01*
X215697443Y-79551230D01*
X215700844Y-79552581D01*
X215791255Y-79586961D01*
X215797127Y-79590640D01*
X215815636Y-79600187D01*
X215822045Y-79602842D01*
X215902563Y-79656642D01*
X215905554Y-79658578D01*
X215987557Y-79709959D01*
X215992584Y-79714700D01*
X216008896Y-79727691D01*
X216014652Y-79731537D01*
X216083110Y-79799995D01*
X216085689Y-79802499D01*
X216156090Y-79868889D01*
X216160095Y-79874519D01*
X216173559Y-79890444D01*
X216178459Y-79895344D01*
X216232244Y-79975839D01*
X216234291Y-79978807D01*
X216290380Y-80057645D01*
X216293214Y-80063958D01*
X216303308Y-80082193D01*
X216307158Y-80087955D01*
X216344220Y-80177430D01*
X216345624Y-80180685D01*
X216385265Y-80268973D01*
X216386815Y-80275725D01*
X216393152Y-80295562D01*
X216395807Y-80301973D01*
X216414692Y-80396917D01*
X216415438Y-80400401D01*
X216437098Y-80494751D01*
X216437098Y-80494754D01*
X216437300Y-80501654D01*
X216439647Y-80522370D01*
X216441000Y-80529174D01*
X216441000Y-80625986D01*
X216441053Y-80629584D01*
X216442188Y-80668277D01*
X216441295Y-80681225D01*
X216441000Y-80689797D01*
X216441000Y-80760826D01*
X216435081Y-80790585D01*
X216434604Y-80792979D01*
X216432500Y-80808750D01*
X216394238Y-81363545D01*
X216365376Y-81534730D01*
X216283038Y-81751255D01*
X216160041Y-81947557D01*
X216001111Y-82116090D01*
X215812355Y-82250380D01*
X215601027Y-82345265D01*
X215375249Y-82397098D01*
X215143698Y-82403889D01*
X215143697Y-82403889D01*
X215098012Y-82396186D01*
X214915270Y-82365376D01*
X214698745Y-82283038D01*
X214502443Y-82160041D01*
X214333910Y-82001111D01*
X214199620Y-81812355D01*
X214104735Y-81601027D01*
X214052902Y-81375249D01*
X214047812Y-81201723D01*
X214088704Y-80608794D01*
X214089000Y-80600196D01*
X214089000Y-80529175D01*
X214089388Y-80527222D01*
X214107888Y-80434219D01*
X214108544Y-80430645D01*
X214114231Y-80396917D01*
X214124624Y-80335270D01*
X214127085Y-80328799D01*
X214132842Y-80308767D01*
X214134193Y-80301974D01*
X214136843Y-80295576D01*
X214171264Y-80212476D01*
X214172553Y-80209230D01*
X214206962Y-80118745D01*
X214210636Y-80112881D01*
X214220187Y-80094365D01*
X214222842Y-80087955D01*
X214276657Y-80007415D01*
X214278577Y-80004449D01*
X214329959Y-79922443D01*
X214334711Y-79917404D01*
X214347689Y-79901107D01*
X214351537Y-79895348D01*
X214419993Y-79826892D01*
X214422546Y-79824262D01*
X214443023Y-79802548D01*
X214488889Y-79753910D01*
X214494521Y-79749903D01*
X214510447Y-79736438D01*
X214515346Y-79731539D01*
X214595824Y-79677766D01*
X214598806Y-79675710D01*
X214677645Y-79619620D01*
X214683955Y-79616787D01*
X214702194Y-79606691D01*
X214707951Y-79602844D01*
X214707954Y-79602843D01*
X214707955Y-79602842D01*
X214797429Y-79565781D01*
X214800687Y-79564375D01*
X214888973Y-79524735D01*
X214895725Y-79523185D01*
X214915562Y-79516848D01*
X214921973Y-79514193D01*
X215016899Y-79495311D01*
X215020446Y-79494551D01*
X215114751Y-79472901D01*
X215117130Y-79472831D01*
X215121665Y-79472698D01*
X215142381Y-79470351D01*
X215149174Y-79469000D01*
X215245959Y-79469000D01*
X215249584Y-79468947D01*
X215346302Y-79466110D01*
X215353127Y-79467261D01*
X215353127Y-79467261D01*
G37*
G36*
X196303127Y-79467261D02*
G01*
X196323900Y-79469000D01*
X196330827Y-79469000D01*
X196425754Y-79487882D01*
X196429348Y-79488542D01*
X196524730Y-79504624D01*
X196531203Y-79507085D01*
X196551228Y-79512841D01*
X196558027Y-79514193D01*
X196620414Y-79540034D01*
X196647443Y-79551230D01*
X196650844Y-79552581D01*
X196741255Y-79586961D01*
X196747127Y-79590640D01*
X196765636Y-79600187D01*
X196772045Y-79602842D01*
X196852563Y-79656642D01*
X196855554Y-79658578D01*
X196937557Y-79709959D01*
X196942584Y-79714700D01*
X196958896Y-79727691D01*
X196964652Y-79731537D01*
X197033110Y-79799995D01*
X197035689Y-79802499D01*
X197106090Y-79868889D01*
X197110095Y-79874519D01*
X197123559Y-79890444D01*
X197128459Y-79895344D01*
X197182244Y-79975839D01*
X197184291Y-79978807D01*
X197240380Y-80057645D01*
X197243214Y-80063958D01*
X197253308Y-80082193D01*
X197257158Y-80087955D01*
X197294220Y-80177430D01*
X197295624Y-80180685D01*
X197335265Y-80268973D01*
X197336815Y-80275725D01*
X197343152Y-80295562D01*
X197345807Y-80301973D01*
X197364692Y-80396917D01*
X197365438Y-80400401D01*
X197387098Y-80494751D01*
X197387098Y-80494754D01*
X197387300Y-80501654D01*
X197389647Y-80522370D01*
X197391000Y-80529174D01*
X197391000Y-80625986D01*
X197391053Y-80629584D01*
X197392188Y-80668277D01*
X197391295Y-80681225D01*
X197391000Y-80689797D01*
X197391000Y-80760826D01*
X197385081Y-80790585D01*
X197384604Y-80792979D01*
X197382500Y-80808750D01*
X197344238Y-81363545D01*
X197315376Y-81534730D01*
X197233038Y-81751255D01*
X197110041Y-81947557D01*
X196951111Y-82116090D01*
X196762355Y-82250380D01*
X196551027Y-82345265D01*
X196325249Y-82397098D01*
X196093698Y-82403889D01*
X196093697Y-82403889D01*
X196048012Y-82396186D01*
X195865270Y-82365376D01*
X195648745Y-82283038D01*
X195452443Y-82160041D01*
X195283910Y-82001111D01*
X195149620Y-81812355D01*
X195054735Y-81601027D01*
X195002902Y-81375249D01*
X194997812Y-81201723D01*
X195038704Y-80608794D01*
X195039000Y-80600196D01*
X195039000Y-80529175D01*
X195039388Y-80527222D01*
X195057888Y-80434219D01*
X195058544Y-80430645D01*
X195064231Y-80396917D01*
X195074624Y-80335270D01*
X195077085Y-80328799D01*
X195082842Y-80308767D01*
X195084193Y-80301974D01*
X195086843Y-80295576D01*
X195121264Y-80212476D01*
X195122553Y-80209230D01*
X195156962Y-80118745D01*
X195160636Y-80112881D01*
X195170187Y-80094365D01*
X195172842Y-80087955D01*
X195226657Y-80007415D01*
X195228577Y-80004449D01*
X195279959Y-79922443D01*
X195284711Y-79917404D01*
X195297689Y-79901107D01*
X195301537Y-79895348D01*
X195369993Y-79826892D01*
X195372546Y-79824262D01*
X195393023Y-79802548D01*
X195438889Y-79753910D01*
X195444521Y-79749903D01*
X195460447Y-79736438D01*
X195465346Y-79731539D01*
X195545824Y-79677766D01*
X195548806Y-79675710D01*
X195627645Y-79619620D01*
X195633955Y-79616787D01*
X195652194Y-79606691D01*
X195657951Y-79602844D01*
X195657954Y-79602843D01*
X195657955Y-79602842D01*
X195747429Y-79565781D01*
X195750687Y-79564375D01*
X195838973Y-79524735D01*
X195845725Y-79523185D01*
X195865562Y-79516848D01*
X195871973Y-79514193D01*
X195966899Y-79495311D01*
X195970446Y-79494551D01*
X196064751Y-79472901D01*
X196067130Y-79472831D01*
X196071665Y-79472698D01*
X196092381Y-79470351D01*
X196099174Y-79469000D01*
X196195959Y-79469000D01*
X196199584Y-79468947D01*
X196296302Y-79466110D01*
X196303127Y-79467261D01*
X196303127Y-79467261D01*
G37*
G36*
X159114442Y-80385518D02*
G01*
X159180627Y-80392037D01*
X159350466Y-80443557D01*
X159506991Y-80527222D01*
X159509374Y-80529178D01*
X159644186Y-80639814D01*
X159721680Y-80734242D01*
X159756778Y-80777009D01*
X159840443Y-80933534D01*
X159891963Y-81103373D01*
X159909359Y-81280000D01*
X159891963Y-81456627D01*
X159840443Y-81626466D01*
X159756778Y-81782991D01*
X159732681Y-81812353D01*
X159644186Y-81920186D01*
X159574731Y-81977185D01*
X159506991Y-82032778D01*
X159506989Y-82032779D01*
X159351127Y-82116090D01*
X159350466Y-82116443D01*
X159180627Y-82167963D01*
X159114443Y-82174481D01*
X159048260Y-82181000D01*
X158959740Y-82181000D01*
X158893557Y-82174481D01*
X158827373Y-82167963D01*
X158657534Y-82116443D01*
X158656874Y-82116090D01*
X158501011Y-82032779D01*
X158501009Y-82032778D01*
X158433269Y-81977185D01*
X158363814Y-81920186D01*
X158275319Y-81812353D01*
X158251222Y-81782991D01*
X158167557Y-81626466D01*
X158116037Y-81456627D01*
X158098641Y-81280000D01*
X158116037Y-81103373D01*
X158167557Y-80933534D01*
X158251222Y-80777009D01*
X158286320Y-80734242D01*
X158363814Y-80639814D01*
X158498626Y-80529178D01*
X158501009Y-80527222D01*
X158657534Y-80443557D01*
X158827373Y-80392037D01*
X158893558Y-80385518D01*
X158959740Y-80379000D01*
X159048260Y-80379000D01*
X159114442Y-80385518D01*
X159114442Y-80385518D01*
G37*
G36*
X148446442Y-80385518D02*
G01*
X148512627Y-80392037D01*
X148682466Y-80443557D01*
X148838991Y-80527222D01*
X148841374Y-80529178D01*
X148976186Y-80639814D01*
X149053680Y-80734242D01*
X149088778Y-80777009D01*
X149172443Y-80933534D01*
X149223963Y-81103373D01*
X149241359Y-81280000D01*
X149223963Y-81456627D01*
X149172443Y-81626466D01*
X149088778Y-81782991D01*
X149064681Y-81812353D01*
X148976186Y-81920186D01*
X148906731Y-81977185D01*
X148838991Y-82032778D01*
X148838989Y-82032779D01*
X148683127Y-82116090D01*
X148682466Y-82116443D01*
X148512627Y-82167963D01*
X148446443Y-82174481D01*
X148380260Y-82181000D01*
X148291740Y-82181000D01*
X148225557Y-82174481D01*
X148159373Y-82167963D01*
X147989534Y-82116443D01*
X147988874Y-82116090D01*
X147833011Y-82032779D01*
X147833009Y-82032778D01*
X147765269Y-81977185D01*
X147695814Y-81920186D01*
X147607319Y-81812353D01*
X147583222Y-81782991D01*
X147499557Y-81626466D01*
X147448037Y-81456627D01*
X147430641Y-81280000D01*
X147448037Y-81103373D01*
X147499557Y-80933534D01*
X147583222Y-80777009D01*
X147618320Y-80734242D01*
X147695814Y-80639814D01*
X147830626Y-80529178D01*
X147833009Y-80527222D01*
X147989534Y-80443557D01*
X148159373Y-80392037D01*
X148225558Y-80385518D01*
X148291740Y-80379000D01*
X148380260Y-80379000D01*
X148446442Y-80385518D01*
X148446442Y-80385518D01*
G37*
G36*
X150986442Y-80385518D02*
G01*
X151052627Y-80392037D01*
X151222466Y-80443557D01*
X151378991Y-80527222D01*
X151381374Y-80529178D01*
X151516186Y-80639814D01*
X151593680Y-80734242D01*
X151628778Y-80777009D01*
X151712443Y-80933534D01*
X151763963Y-81103373D01*
X151781359Y-81280000D01*
X151763963Y-81456627D01*
X151712443Y-81626466D01*
X151628778Y-81782991D01*
X151604681Y-81812353D01*
X151516186Y-81920186D01*
X151446731Y-81977185D01*
X151378991Y-82032778D01*
X151378989Y-82032779D01*
X151223127Y-82116090D01*
X151222466Y-82116443D01*
X151052627Y-82167963D01*
X150986443Y-82174481D01*
X150920260Y-82181000D01*
X150831740Y-82181000D01*
X150765557Y-82174481D01*
X150699373Y-82167963D01*
X150529534Y-82116443D01*
X150528874Y-82116090D01*
X150373011Y-82032779D01*
X150373009Y-82032778D01*
X150305269Y-81977185D01*
X150235814Y-81920186D01*
X150147319Y-81812353D01*
X150123222Y-81782991D01*
X150039557Y-81626466D01*
X149988037Y-81456627D01*
X149970641Y-81280000D01*
X149988037Y-81103373D01*
X150039557Y-80933534D01*
X150123222Y-80777009D01*
X150158320Y-80734242D01*
X150235814Y-80639814D01*
X150370626Y-80529178D01*
X150373009Y-80527222D01*
X150529534Y-80443557D01*
X150699373Y-80392037D01*
X150765558Y-80385518D01*
X150831740Y-80379000D01*
X150920260Y-80379000D01*
X150986442Y-80385518D01*
X150986442Y-80385518D01*
G37*
G36*
X166958674Y-80672215D02*
G01*
X166996367Y-80683649D01*
X167031103Y-80702216D01*
X167061548Y-80727202D01*
X167086534Y-80757647D01*
X167105101Y-80792383D01*
X167116535Y-80830076D01*
X167121000Y-80875411D01*
X167121000Y-81712089D01*
X167116535Y-81757424D01*
X167105101Y-81795117D01*
X167086534Y-81829853D01*
X167061548Y-81860298D01*
X167031103Y-81885284D01*
X166996367Y-81903851D01*
X166958674Y-81915285D01*
X166913339Y-81919750D01*
X165826661Y-81919750D01*
X165781326Y-81915285D01*
X165743633Y-81903851D01*
X165708897Y-81885284D01*
X165678452Y-81860298D01*
X165653466Y-81829853D01*
X165634899Y-81795117D01*
X165623465Y-81757424D01*
X165619000Y-81712089D01*
X165619000Y-80875411D01*
X165623465Y-80830076D01*
X165634899Y-80792383D01*
X165653466Y-80757647D01*
X165678452Y-80727202D01*
X165708897Y-80702216D01*
X165743633Y-80683649D01*
X165781326Y-80672215D01*
X165826661Y-80667750D01*
X166913339Y-80667750D01*
X166958674Y-80672215D01*
X166958674Y-80672215D01*
G37*
G36*
X163402674Y-80649465D02*
G01*
X163440367Y-80660899D01*
X163475103Y-80679466D01*
X163505548Y-80704452D01*
X163530534Y-80734897D01*
X163549101Y-80769633D01*
X163560535Y-80807326D01*
X163565000Y-80852661D01*
X163565000Y-81689339D01*
X163560535Y-81734674D01*
X163549101Y-81772367D01*
X163530534Y-81807103D01*
X163505548Y-81837548D01*
X163475103Y-81862534D01*
X163440367Y-81881101D01*
X163402674Y-81892535D01*
X163357339Y-81897000D01*
X162270661Y-81897000D01*
X162225326Y-81892535D01*
X162187633Y-81881101D01*
X162152897Y-81862534D01*
X162122452Y-81837548D01*
X162097466Y-81807103D01*
X162078899Y-81772367D01*
X162067465Y-81734674D01*
X162063000Y-81689339D01*
X162063000Y-80852661D01*
X162067465Y-80807326D01*
X162078899Y-80769633D01*
X162097466Y-80734897D01*
X162122452Y-80704452D01*
X162152897Y-80679466D01*
X162187633Y-80660899D01*
X162225326Y-80649465D01*
X162270661Y-80645000D01*
X163357339Y-80645000D01*
X163402674Y-80649465D01*
X163402674Y-80649465D01*
G37*
G36*
X159905000Y-79641000D02*
G01*
X158103000Y-79641000D01*
X158103000Y-77839000D01*
X159905000Y-77839000D01*
X159905000Y-79641000D01*
X159905000Y-79641000D01*
G37*
G36*
X150986443Y-77845519D02*
G01*
X151052627Y-77852037D01*
X151222466Y-77903557D01*
X151378991Y-77987222D01*
X151414729Y-78016552D01*
X151516186Y-78099814D01*
X151599448Y-78201271D01*
X151628778Y-78237009D01*
X151712443Y-78393534D01*
X151763963Y-78563373D01*
X151781359Y-78740000D01*
X151763963Y-78916627D01*
X151712443Y-79086466D01*
X151628778Y-79242991D01*
X151599448Y-79278729D01*
X151516186Y-79380186D01*
X151426650Y-79453665D01*
X151378991Y-79492778D01*
X151378989Y-79492779D01*
X151267107Y-79552582D01*
X151222466Y-79576443D01*
X151052627Y-79627963D01*
X150986442Y-79634482D01*
X150920260Y-79641000D01*
X150831740Y-79641000D01*
X150765558Y-79634482D01*
X150699373Y-79627963D01*
X150529534Y-79576443D01*
X150484894Y-79552582D01*
X150373011Y-79492779D01*
X150373009Y-79492778D01*
X150325350Y-79453665D01*
X150235814Y-79380186D01*
X150152552Y-79278729D01*
X150123222Y-79242991D01*
X150039557Y-79086466D01*
X149988037Y-78916627D01*
X149970641Y-78740000D01*
X149988037Y-78563373D01*
X150039557Y-78393534D01*
X150123222Y-78237009D01*
X150152552Y-78201271D01*
X150235814Y-78099814D01*
X150337271Y-78016552D01*
X150373009Y-77987222D01*
X150529534Y-77903557D01*
X150699373Y-77852037D01*
X150765557Y-77845519D01*
X150831740Y-77839000D01*
X150920260Y-77839000D01*
X150986443Y-77845519D01*
X150986443Y-77845519D01*
G37*
G36*
X149237000Y-79641000D02*
G01*
X147435000Y-79641000D01*
X147435000Y-77839000D01*
X149237000Y-77839000D01*
X149237000Y-79641000D01*
X149237000Y-79641000D01*
G37*
G36*
X181197015Y-77156973D02*
G01*
X181300879Y-77188479D01*
X181328055Y-77203005D01*
X181396600Y-77239643D01*
X181480501Y-77308499D01*
X181549357Y-77392400D01*
X181585995Y-77460945D01*
X181600521Y-77488121D01*
X181632027Y-77591985D01*
X181640000Y-77672933D01*
X181640000Y-78927067D01*
X181632027Y-79008015D01*
X181600521Y-79111879D01*
X181549356Y-79207600D01*
X181480501Y-79291501D01*
X181411645Y-79348009D01*
X181396599Y-79360357D01*
X181359503Y-79380185D01*
X181300878Y-79411521D01*
X181197014Y-79443027D01*
X181089000Y-79453666D01*
X180980985Y-79443027D01*
X180877121Y-79411521D01*
X180833093Y-79387987D01*
X180781401Y-79360357D01*
X180768643Y-79349887D01*
X180697499Y-79291501D01*
X180628644Y-79207600D01*
X180577479Y-79111878D01*
X180545973Y-79008014D01*
X180538000Y-78927066D01*
X180538001Y-77672933D01*
X180545974Y-77591985D01*
X180577480Y-77488121D01*
X180592006Y-77460945D01*
X180628644Y-77392400D01*
X180697500Y-77308499D01*
X180781401Y-77239643D01*
X180849946Y-77203005D01*
X180877122Y-77188479D01*
X180980986Y-77156973D01*
X181089000Y-77146334D01*
X181197015Y-77156973D01*
X181197015Y-77156973D01*
G37*
G36*
X170047015Y-77156973D02*
G01*
X170150879Y-77188479D01*
X170178055Y-77203005D01*
X170246600Y-77239643D01*
X170330501Y-77308499D01*
X170399357Y-77392400D01*
X170435995Y-77460945D01*
X170450521Y-77488121D01*
X170482027Y-77591985D01*
X170490000Y-77672933D01*
X170490000Y-78927067D01*
X170482027Y-79008015D01*
X170450521Y-79111879D01*
X170399356Y-79207600D01*
X170330501Y-79291501D01*
X170261645Y-79348009D01*
X170246599Y-79360357D01*
X170209503Y-79380185D01*
X170150878Y-79411521D01*
X170047014Y-79443027D01*
X169939000Y-79453666D01*
X169830985Y-79443027D01*
X169727121Y-79411521D01*
X169683093Y-79387987D01*
X169631401Y-79360357D01*
X169618643Y-79349887D01*
X169547499Y-79291501D01*
X169478644Y-79207600D01*
X169427479Y-79111878D01*
X169395973Y-79008014D01*
X169388000Y-78927066D01*
X169388001Y-77672933D01*
X169395974Y-77591985D01*
X169427480Y-77488121D01*
X169442006Y-77460945D01*
X169478644Y-77392400D01*
X169547500Y-77308499D01*
X169631401Y-77239643D01*
X169699946Y-77203005D01*
X169727122Y-77188479D01*
X169830986Y-77156973D01*
X169939000Y-77146334D01*
X170047015Y-77156973D01*
X170047015Y-77156973D01*
G37*
M02*
