G04 #@! TF.GenerationSoftware,KiCad,Pcbnew,5.1.0*
G04 #@! TF.CreationDate,2019-05-04T21:29:49+08:00*
G04 #@! TF.ProjectId,pcbtest,70636274-6573-4742-9e6b-696361645f70,rev?*
G04 #@! TF.SameCoordinates,Original*
G04 #@! TF.FileFunction,Legend,Bot*
G04 #@! TF.FilePolarity,Positive*
%FSLAX46Y46*%
G04 Gerber Fmt 4.6, Leading zero omitted, Abs format (unit mm)*
G04 Created by KiCad (PCBNEW 5.1.0) date 2019-05-04 21:29:49*
%MOMM*%
%LPD*%
G04 APERTURE LIST*
%ADD10C,0.120000*%
%ADD11C,0.200000*%
%ADD12C,0.150000*%
G04 APERTURE END LIST*
D10*
X177682000Y-96383000D02*
X178632000Y-96383000D01*
X178632000Y-96383000D02*
X178632000Y-97333000D01*
X169362000Y-96383000D02*
X168412000Y-96383000D01*
X168412000Y-96383000D02*
X168412000Y-97333000D01*
X177682000Y-106603000D02*
X178632000Y-106603000D01*
X178632000Y-106603000D02*
X178632000Y-105653000D01*
X169362000Y-106603000D02*
X168412000Y-106603000D01*
X168412000Y-106603000D02*
X168412000Y-105653000D01*
X168412000Y-105653000D02*
X167072000Y-105653000D01*
X162104000Y-82034748D02*
X162104000Y-82557252D01*
X163524000Y-82034748D02*
X163524000Y-82557252D01*
X167641748Y-93928000D02*
X168164252Y-93928000D01*
X167641748Y-92508000D02*
X168164252Y-92508000D01*
X182828000Y-107679748D02*
X182828000Y-108202252D01*
X181408000Y-107679748D02*
X181408000Y-108202252D01*
X162558252Y-87936000D02*
X162035748Y-87936000D01*
X162558252Y-89356000D02*
X162035748Y-89356000D01*
X166368252Y-108256000D02*
X165845748Y-108256000D01*
X166368252Y-109676000D02*
X165845748Y-109676000D01*
X154634000Y-98281748D02*
X154634000Y-98804252D01*
X153214000Y-98281748D02*
X153214000Y-98804252D01*
X183440000Y-96527252D02*
X183440000Y-96004748D01*
X184860000Y-96527252D02*
X184860000Y-96004748D01*
X166622252Y-87936000D02*
X166099748Y-87936000D01*
X166622252Y-89356000D02*
X166099748Y-89356000D01*
X166108748Y-85650000D02*
X166631252Y-85650000D01*
X166108748Y-87070000D02*
X166631252Y-87070000D01*
X166099748Y-91642000D02*
X166622252Y-91642000D01*
X166099748Y-90222000D02*
X166622252Y-90222000D01*
X186964200Y-85249400D02*
X186964200Y-88109400D01*
X186964200Y-88109400D02*
X185044200Y-88109400D01*
X185044200Y-88109400D02*
X185044200Y-85249400D01*
X202930000Y-88230000D02*
X200930000Y-88230000D01*
X200930000Y-88230000D02*
X200930000Y-84330000D01*
X202930000Y-88230000D02*
X202930000Y-84330000D01*
X202930000Y-107280000D02*
X202930000Y-103380000D01*
X200930000Y-107280000D02*
X200930000Y-103380000D01*
X202930000Y-107280000D02*
X200930000Y-107280000D01*
X221980000Y-87975000D02*
X219980000Y-87975000D01*
X219980000Y-87975000D02*
X219980000Y-84075000D01*
X221980000Y-87975000D02*
X221980000Y-84075000D01*
X221980000Y-107280000D02*
X221980000Y-103380000D01*
X219980000Y-107280000D02*
X219980000Y-103380000D01*
X221980000Y-107280000D02*
X219980000Y-107280000D01*
X155554000Y-90039436D02*
X155554000Y-91243564D01*
X157374000Y-90039436D02*
X157374000Y-91243564D01*
D11*
X168514000Y-76200000D02*
X171014000Y-76200000D01*
X182514000Y-76200000D02*
X180014000Y-76200000D01*
X180014000Y-82300000D02*
X171014000Y-82300000D01*
X180014000Y-82300000D02*
X180014000Y-76200000D01*
X171014000Y-82300000D02*
X171014000Y-76200000D01*
D10*
X182170000Y-86089748D02*
X182170000Y-86612252D01*
X183590000Y-86089748D02*
X183590000Y-86612252D01*
X171398000Y-90153748D02*
X171398000Y-90676252D01*
X169978000Y-90153748D02*
X169978000Y-90676252D01*
X161342000Y-91964252D02*
X161342000Y-91441748D01*
X162762000Y-91964252D02*
X162762000Y-91441748D01*
X157532000Y-104274252D02*
X157532000Y-103751748D01*
X158952000Y-104274252D02*
X158952000Y-103751748D01*
X187146000Y-112266252D02*
X187146000Y-111743748D01*
X185726000Y-112266252D02*
X185726000Y-111743748D01*
X178256000Y-90153748D02*
X178256000Y-90676252D01*
X176836000Y-90153748D02*
X176836000Y-90676252D01*
X181558000Y-90457498D02*
X181558000Y-90980002D01*
X180138000Y-90457498D02*
X180138000Y-90980002D01*
X179126248Y-87070000D02*
X179648752Y-87070000D01*
X179126248Y-85650000D02*
X179648752Y-85650000D01*
X173534000Y-90153748D02*
X173534000Y-90676252D01*
X174954000Y-90153748D02*
X174954000Y-90676252D01*
X173298752Y-87070000D02*
X172776248Y-87070000D01*
X173298752Y-85650000D02*
X172776248Y-85650000D01*
X167080000Y-82057498D02*
X167080000Y-82580002D01*
X165660000Y-82057498D02*
X165660000Y-82580002D01*
X169876000Y-113114000D02*
X169876000Y-113414000D01*
X169876000Y-113414000D02*
X166576000Y-113414000D01*
X166576000Y-113414000D02*
X166576000Y-113114000D01*
X169876000Y-110914000D02*
X169876000Y-110614000D01*
X169876000Y-110614000D02*
X166576000Y-110614000D01*
X166576000Y-110614000D02*
X166576000Y-110914000D01*
X161574000Y-93872000D02*
X161574000Y-95132000D01*
X161574000Y-100692000D02*
X161574000Y-99432000D01*
X157814000Y-93872000D02*
X161574000Y-93872000D01*
X155564000Y-100692000D02*
X161574000Y-100692000D01*
X173422000Y-113344000D02*
X173422000Y-110684000D01*
X181102000Y-113344000D02*
X173422000Y-113344000D01*
X181102000Y-110684000D02*
X173422000Y-110684000D01*
X181102000Y-113344000D02*
X181102000Y-110684000D01*
X182372000Y-113344000D02*
X183702000Y-113344000D01*
X183702000Y-113344000D02*
X183702000Y-112014000D01*
X163506000Y-102213000D02*
X161506000Y-102213000D01*
X161506000Y-105813000D02*
X163506000Y-105813000D01*
X161106000Y-104763000D02*
X160706000Y-104763000D01*
X163506000Y-106013000D02*
X161506000Y-106013000D01*
X161506000Y-102213000D02*
X161106000Y-102213000D01*
X161506000Y-105813000D02*
X161106000Y-105813000D01*
X161506000Y-106013000D02*
X161106000Y-106013000D01*
X163506000Y-105813000D02*
X163506000Y-105663000D01*
X161106000Y-105813000D02*
X161106000Y-105663000D01*
X161106000Y-104763000D02*
X161106000Y-104813000D01*
X161106000Y-102213000D02*
X161106000Y-102363000D01*
X163506000Y-102213000D02*
X163506000Y-102363000D01*
D12*
X174283904Y-108345380D02*
X174283904Y-109154904D01*
X174236285Y-109250142D01*
X174188666Y-109297761D01*
X174093428Y-109345380D01*
X173902952Y-109345380D01*
X173807714Y-109297761D01*
X173760095Y-109250142D01*
X173712476Y-109154904D01*
X173712476Y-108345380D01*
X173331523Y-108345380D02*
X172712476Y-108345380D01*
X173045809Y-108726333D01*
X172902952Y-108726333D01*
X172807714Y-108773952D01*
X172760095Y-108821571D01*
X172712476Y-108916809D01*
X172712476Y-109154904D01*
X172760095Y-109250142D01*
X172807714Y-109297761D01*
X172902952Y-109345380D01*
X173188666Y-109345380D01*
X173283904Y-109297761D01*
X173331523Y-109250142D01*
X161521142Y-82129333D02*
X161568761Y-82081714D01*
X161616380Y-81938857D01*
X161616380Y-81843619D01*
X161568761Y-81700761D01*
X161473523Y-81605523D01*
X161378285Y-81557904D01*
X161187809Y-81510285D01*
X161044952Y-81510285D01*
X160854476Y-81557904D01*
X160759238Y-81605523D01*
X160664000Y-81700761D01*
X160616380Y-81843619D01*
X160616380Y-81938857D01*
X160664000Y-82081714D01*
X160711619Y-82129333D01*
X161616380Y-83081714D02*
X161616380Y-82510285D01*
X161616380Y-82796000D02*
X160616380Y-82796000D01*
X160759238Y-82700761D01*
X160854476Y-82605523D01*
X160902095Y-82510285D01*
X168069666Y-95225142D02*
X168117285Y-95272761D01*
X168260142Y-95320380D01*
X168355380Y-95320380D01*
X168498238Y-95272761D01*
X168593476Y-95177523D01*
X168641095Y-95082285D01*
X168688714Y-94891809D01*
X168688714Y-94748952D01*
X168641095Y-94558476D01*
X168593476Y-94463238D01*
X168498238Y-94368000D01*
X168355380Y-94320380D01*
X168260142Y-94320380D01*
X168117285Y-94368000D01*
X168069666Y-94415619D01*
X167736333Y-94320380D02*
X167117285Y-94320380D01*
X167450619Y-94701333D01*
X167307761Y-94701333D01*
X167212523Y-94748952D01*
X167164904Y-94796571D01*
X167117285Y-94891809D01*
X167117285Y-95129904D01*
X167164904Y-95225142D01*
X167212523Y-95272761D01*
X167307761Y-95320380D01*
X167593476Y-95320380D01*
X167688714Y-95272761D01*
X167736333Y-95225142D01*
X180825142Y-107774333D02*
X180872761Y-107726714D01*
X180920380Y-107583857D01*
X180920380Y-107488619D01*
X180872761Y-107345761D01*
X180777523Y-107250523D01*
X180682285Y-107202904D01*
X180491809Y-107155285D01*
X180348952Y-107155285D01*
X180158476Y-107202904D01*
X180063238Y-107250523D01*
X179968000Y-107345761D01*
X179920380Y-107488619D01*
X179920380Y-107583857D01*
X179968000Y-107726714D01*
X180015619Y-107774333D01*
X180253714Y-108631476D02*
X180920380Y-108631476D01*
X179872761Y-108393380D02*
X180587047Y-108155285D01*
X180587047Y-108774333D01*
X162463666Y-87353142D02*
X162511285Y-87400761D01*
X162654142Y-87448380D01*
X162749380Y-87448380D01*
X162892238Y-87400761D01*
X162987476Y-87305523D01*
X163035095Y-87210285D01*
X163082714Y-87019809D01*
X163082714Y-86876952D01*
X163035095Y-86686476D01*
X162987476Y-86591238D01*
X162892238Y-86496000D01*
X162749380Y-86448380D01*
X162654142Y-86448380D01*
X162511285Y-86496000D01*
X162463666Y-86543619D01*
X161558904Y-86448380D02*
X162035095Y-86448380D01*
X162082714Y-86924571D01*
X162035095Y-86876952D01*
X161939857Y-86829333D01*
X161701761Y-86829333D01*
X161606523Y-86876952D01*
X161558904Y-86924571D01*
X161511285Y-87019809D01*
X161511285Y-87257904D01*
X161558904Y-87353142D01*
X161606523Y-87400761D01*
X161701761Y-87448380D01*
X161939857Y-87448380D01*
X162035095Y-87400761D01*
X162082714Y-87353142D01*
X166273666Y-107673142D02*
X166321285Y-107720761D01*
X166464142Y-107768380D01*
X166559380Y-107768380D01*
X166702238Y-107720761D01*
X166797476Y-107625523D01*
X166845095Y-107530285D01*
X166892714Y-107339809D01*
X166892714Y-107196952D01*
X166845095Y-107006476D01*
X166797476Y-106911238D01*
X166702238Y-106816000D01*
X166559380Y-106768380D01*
X166464142Y-106768380D01*
X166321285Y-106816000D01*
X166273666Y-106863619D01*
X165416523Y-106768380D02*
X165607000Y-106768380D01*
X165702238Y-106816000D01*
X165749857Y-106863619D01*
X165845095Y-107006476D01*
X165892714Y-107196952D01*
X165892714Y-107577904D01*
X165845095Y-107673142D01*
X165797476Y-107720761D01*
X165702238Y-107768380D01*
X165511761Y-107768380D01*
X165416523Y-107720761D01*
X165368904Y-107673142D01*
X165321285Y-107577904D01*
X165321285Y-107339809D01*
X165368904Y-107244571D01*
X165416523Y-107196952D01*
X165511761Y-107149333D01*
X165702238Y-107149333D01*
X165797476Y-107196952D01*
X165845095Y-107244571D01*
X165892714Y-107339809D01*
X152631142Y-98376333D02*
X152678761Y-98328714D01*
X152726380Y-98185857D01*
X152726380Y-98090619D01*
X152678761Y-97947761D01*
X152583523Y-97852523D01*
X152488285Y-97804904D01*
X152297809Y-97757285D01*
X152154952Y-97757285D01*
X151964476Y-97804904D01*
X151869238Y-97852523D01*
X151774000Y-97947761D01*
X151726380Y-98090619D01*
X151726380Y-98185857D01*
X151774000Y-98328714D01*
X151821619Y-98376333D01*
X151726380Y-98709666D02*
X151726380Y-99376333D01*
X152726380Y-98947761D01*
X186157142Y-96099333D02*
X186204761Y-96051714D01*
X186252380Y-95908857D01*
X186252380Y-95813619D01*
X186204761Y-95670761D01*
X186109523Y-95575523D01*
X186014285Y-95527904D01*
X185823809Y-95480285D01*
X185680952Y-95480285D01*
X185490476Y-95527904D01*
X185395238Y-95575523D01*
X185300000Y-95670761D01*
X185252380Y-95813619D01*
X185252380Y-95908857D01*
X185300000Y-96051714D01*
X185347619Y-96099333D01*
X185680952Y-96670761D02*
X185633333Y-96575523D01*
X185585714Y-96527904D01*
X185490476Y-96480285D01*
X185442857Y-96480285D01*
X185347619Y-96527904D01*
X185300000Y-96575523D01*
X185252380Y-96670761D01*
X185252380Y-96861238D01*
X185300000Y-96956476D01*
X185347619Y-97004095D01*
X185442857Y-97051714D01*
X185490476Y-97051714D01*
X185585714Y-97004095D01*
X185633333Y-96956476D01*
X185680952Y-96861238D01*
X185680952Y-96670761D01*
X185728571Y-96575523D01*
X185776190Y-96527904D01*
X185871428Y-96480285D01*
X186061904Y-96480285D01*
X186157142Y-96527904D01*
X186204761Y-96575523D01*
X186252380Y-96670761D01*
X186252380Y-96861238D01*
X186204761Y-96956476D01*
X186157142Y-97004095D01*
X186061904Y-97051714D01*
X185871428Y-97051714D01*
X185776190Y-97004095D01*
X185728571Y-96956476D01*
X185680952Y-96861238D01*
X166527666Y-87353142D02*
X166575285Y-87400761D01*
X166718142Y-87448380D01*
X166813380Y-87448380D01*
X166956238Y-87400761D01*
X167051476Y-87305523D01*
X167099095Y-87210285D01*
X167146714Y-87019809D01*
X167146714Y-86876952D01*
X167099095Y-86686476D01*
X167051476Y-86591238D01*
X166956238Y-86496000D01*
X166813380Y-86448380D01*
X166718142Y-86448380D01*
X166575285Y-86496000D01*
X166527666Y-86543619D01*
X166051476Y-87448380D02*
X165861000Y-87448380D01*
X165765761Y-87400761D01*
X165718142Y-87353142D01*
X165622904Y-87210285D01*
X165575285Y-87019809D01*
X165575285Y-86638857D01*
X165622904Y-86543619D01*
X165670523Y-86496000D01*
X165765761Y-86448380D01*
X165956238Y-86448380D01*
X166051476Y-86496000D01*
X166099095Y-86543619D01*
X166146714Y-86638857D01*
X166146714Y-86876952D01*
X166099095Y-86972190D01*
X166051476Y-87019809D01*
X165956238Y-87067428D01*
X165765761Y-87067428D01*
X165670523Y-87019809D01*
X165622904Y-86972190D01*
X165575285Y-86876952D01*
X163710857Y-86717142D02*
X163758476Y-86764761D01*
X163901333Y-86812380D01*
X163996571Y-86812380D01*
X164139428Y-86764761D01*
X164234666Y-86669523D01*
X164282285Y-86574285D01*
X164329904Y-86383809D01*
X164329904Y-86240952D01*
X164282285Y-86050476D01*
X164234666Y-85955238D01*
X164139428Y-85860000D01*
X163996571Y-85812380D01*
X163901333Y-85812380D01*
X163758476Y-85860000D01*
X163710857Y-85907619D01*
X162758476Y-86812380D02*
X163329904Y-86812380D01*
X163044190Y-86812380D02*
X163044190Y-85812380D01*
X163139428Y-85955238D01*
X163234666Y-86050476D01*
X163329904Y-86098095D01*
X162139428Y-85812380D02*
X162044190Y-85812380D01*
X161948952Y-85860000D01*
X161901333Y-85907619D01*
X161853714Y-86002857D01*
X161806095Y-86193333D01*
X161806095Y-86431428D01*
X161853714Y-86621904D01*
X161901333Y-86717142D01*
X161948952Y-86764761D01*
X162044190Y-86812380D01*
X162139428Y-86812380D01*
X162234666Y-86764761D01*
X162282285Y-86717142D01*
X162329904Y-86621904D01*
X162377523Y-86431428D01*
X162377523Y-86193333D01*
X162329904Y-86002857D01*
X162282285Y-85907619D01*
X162234666Y-85860000D01*
X162139428Y-85812380D01*
X167003857Y-92939142D02*
X167051476Y-92986761D01*
X167194333Y-93034380D01*
X167289571Y-93034380D01*
X167432428Y-92986761D01*
X167527666Y-92891523D01*
X167575285Y-92796285D01*
X167622904Y-92605809D01*
X167622904Y-92462952D01*
X167575285Y-92272476D01*
X167527666Y-92177238D01*
X167432428Y-92082000D01*
X167289571Y-92034380D01*
X167194333Y-92034380D01*
X167051476Y-92082000D01*
X167003857Y-92129619D01*
X166051476Y-93034380D02*
X166622904Y-93034380D01*
X166337190Y-93034380D02*
X166337190Y-92034380D01*
X166432428Y-92177238D01*
X166527666Y-92272476D01*
X166622904Y-92320095D01*
X165099095Y-93034380D02*
X165670523Y-93034380D01*
X165384809Y-93034380D02*
X165384809Y-92034380D01*
X165480047Y-92177238D01*
X165575285Y-92272476D01*
X165670523Y-92320095D01*
X188106580Y-85511304D02*
X187106580Y-85511304D01*
X187106580Y-85749400D01*
X187154200Y-85892257D01*
X187249438Y-85987495D01*
X187344676Y-86035114D01*
X187535152Y-86082733D01*
X187678009Y-86082733D01*
X187868485Y-86035114D01*
X187963723Y-85987495D01*
X188058961Y-85892257D01*
X188106580Y-85749400D01*
X188106580Y-85511304D01*
X188106580Y-87035114D02*
X188106580Y-86463685D01*
X188106580Y-86749400D02*
X187106580Y-86749400D01*
X187249438Y-86654161D01*
X187344676Y-86558923D01*
X187392295Y-86463685D01*
X204382380Y-85241904D02*
X203382380Y-85241904D01*
X203382380Y-85480000D01*
X203430000Y-85622857D01*
X203525238Y-85718095D01*
X203620476Y-85765714D01*
X203810952Y-85813333D01*
X203953809Y-85813333D01*
X204144285Y-85765714D01*
X204239523Y-85718095D01*
X204334761Y-85622857D01*
X204382380Y-85480000D01*
X204382380Y-85241904D01*
X203477619Y-86194285D02*
X203430000Y-86241904D01*
X203382380Y-86337142D01*
X203382380Y-86575238D01*
X203430000Y-86670476D01*
X203477619Y-86718095D01*
X203572857Y-86765714D01*
X203668095Y-86765714D01*
X203810952Y-86718095D01*
X204382380Y-86146666D01*
X204382380Y-86765714D01*
X204382380Y-104291904D02*
X203382380Y-104291904D01*
X203382380Y-104530000D01*
X203430000Y-104672857D01*
X203525238Y-104768095D01*
X203620476Y-104815714D01*
X203810952Y-104863333D01*
X203953809Y-104863333D01*
X204144285Y-104815714D01*
X204239523Y-104768095D01*
X204334761Y-104672857D01*
X204382380Y-104530000D01*
X204382380Y-104291904D01*
X203382380Y-105196666D02*
X203382380Y-105815714D01*
X203763333Y-105482380D01*
X203763333Y-105625238D01*
X203810952Y-105720476D01*
X203858571Y-105768095D01*
X203953809Y-105815714D01*
X204191904Y-105815714D01*
X204287142Y-105768095D01*
X204334761Y-105720476D01*
X204382380Y-105625238D01*
X204382380Y-105339523D01*
X204334761Y-105244285D01*
X204287142Y-105196666D01*
X223432380Y-84986904D02*
X222432380Y-84986904D01*
X222432380Y-85225000D01*
X222480000Y-85367857D01*
X222575238Y-85463095D01*
X222670476Y-85510714D01*
X222860952Y-85558333D01*
X223003809Y-85558333D01*
X223194285Y-85510714D01*
X223289523Y-85463095D01*
X223384761Y-85367857D01*
X223432380Y-85225000D01*
X223432380Y-84986904D01*
X222765714Y-86415476D02*
X223432380Y-86415476D01*
X222384761Y-86177380D02*
X223099047Y-85939285D01*
X223099047Y-86558333D01*
X223432380Y-104291904D02*
X222432380Y-104291904D01*
X222432380Y-104530000D01*
X222480000Y-104672857D01*
X222575238Y-104768095D01*
X222670476Y-104815714D01*
X222860952Y-104863333D01*
X223003809Y-104863333D01*
X223194285Y-104815714D01*
X223289523Y-104768095D01*
X223384761Y-104672857D01*
X223432380Y-104530000D01*
X223432380Y-104291904D01*
X222432380Y-105768095D02*
X222432380Y-105291904D01*
X222908571Y-105244285D01*
X222860952Y-105291904D01*
X222813333Y-105387142D01*
X222813333Y-105625238D01*
X222860952Y-105720476D01*
X222908571Y-105768095D01*
X223003809Y-105815714D01*
X223241904Y-105815714D01*
X223337142Y-105768095D01*
X223384761Y-105720476D01*
X223432380Y-105625238D01*
X223432380Y-105387142D01*
X223384761Y-105291904D01*
X223337142Y-105244285D01*
X154572571Y-90308166D02*
X154572571Y-89974833D01*
X155096380Y-89974833D02*
X154096380Y-89974833D01*
X154096380Y-90451023D01*
X155096380Y-91355785D02*
X155096380Y-90784357D01*
X155096380Y-91070071D02*
X154096380Y-91070071D01*
X154239238Y-90974833D01*
X154334476Y-90879595D01*
X154382095Y-90784357D01*
X175847333Y-84652380D02*
X175847333Y-85366666D01*
X175894952Y-85509523D01*
X175990190Y-85604761D01*
X176133047Y-85652380D01*
X176228285Y-85652380D01*
X175418761Y-84747619D02*
X175371142Y-84700000D01*
X175275904Y-84652380D01*
X175037809Y-84652380D01*
X174942571Y-84700000D01*
X174894952Y-84747619D01*
X174847333Y-84842857D01*
X174847333Y-84938095D01*
X174894952Y-85080952D01*
X175466380Y-85652380D01*
X174847333Y-85652380D01*
X181682380Y-86184333D02*
X181206190Y-85851000D01*
X181682380Y-85612904D02*
X180682380Y-85612904D01*
X180682380Y-85993857D01*
X180730000Y-86089095D01*
X180777619Y-86136714D01*
X180872857Y-86184333D01*
X181015714Y-86184333D01*
X181110952Y-86136714D01*
X181158571Y-86089095D01*
X181206190Y-85993857D01*
X181206190Y-85612904D01*
X181682380Y-87136714D02*
X181682380Y-86565285D01*
X181682380Y-86851000D02*
X180682380Y-86851000D01*
X180825238Y-86755761D01*
X180920476Y-86660523D01*
X180968095Y-86565285D01*
X169490380Y-90248333D02*
X169014190Y-89915000D01*
X169490380Y-89676904D02*
X168490380Y-89676904D01*
X168490380Y-90057857D01*
X168538000Y-90153095D01*
X168585619Y-90200714D01*
X168680857Y-90248333D01*
X168823714Y-90248333D01*
X168918952Y-90200714D01*
X168966571Y-90153095D01*
X169014190Y-90057857D01*
X169014190Y-89676904D01*
X168585619Y-90629285D02*
X168538000Y-90676904D01*
X168490380Y-90772142D01*
X168490380Y-91010238D01*
X168538000Y-91105476D01*
X168585619Y-91153095D01*
X168680857Y-91200714D01*
X168776095Y-91200714D01*
X168918952Y-91153095D01*
X169490380Y-90581666D01*
X169490380Y-91200714D01*
X164154380Y-91536333D02*
X163678190Y-91203000D01*
X164154380Y-90964904D02*
X163154380Y-90964904D01*
X163154380Y-91345857D01*
X163202000Y-91441095D01*
X163249619Y-91488714D01*
X163344857Y-91536333D01*
X163487714Y-91536333D01*
X163582952Y-91488714D01*
X163630571Y-91441095D01*
X163678190Y-91345857D01*
X163678190Y-90964904D01*
X163154380Y-91869666D02*
X163154380Y-92488714D01*
X163535333Y-92155380D01*
X163535333Y-92298238D01*
X163582952Y-92393476D01*
X163630571Y-92441095D01*
X163725809Y-92488714D01*
X163963904Y-92488714D01*
X164059142Y-92441095D01*
X164106761Y-92393476D01*
X164154380Y-92298238D01*
X164154380Y-92012523D01*
X164106761Y-91917285D01*
X164059142Y-91869666D01*
X160344380Y-103846333D02*
X159868190Y-103513000D01*
X160344380Y-103274904D02*
X159344380Y-103274904D01*
X159344380Y-103655857D01*
X159392000Y-103751095D01*
X159439619Y-103798714D01*
X159534857Y-103846333D01*
X159677714Y-103846333D01*
X159772952Y-103798714D01*
X159820571Y-103751095D01*
X159868190Y-103655857D01*
X159868190Y-103274904D01*
X159677714Y-104703476D02*
X160344380Y-104703476D01*
X159296761Y-104465380D02*
X160011047Y-104227285D01*
X160011047Y-104846333D01*
X188538380Y-111838333D02*
X188062190Y-111505000D01*
X188538380Y-111266904D02*
X187538380Y-111266904D01*
X187538380Y-111647857D01*
X187586000Y-111743095D01*
X187633619Y-111790714D01*
X187728857Y-111838333D01*
X187871714Y-111838333D01*
X187966952Y-111790714D01*
X188014571Y-111743095D01*
X188062190Y-111647857D01*
X188062190Y-111266904D01*
X187538380Y-112743095D02*
X187538380Y-112266904D01*
X188014571Y-112219285D01*
X187966952Y-112266904D01*
X187919333Y-112362142D01*
X187919333Y-112600238D01*
X187966952Y-112695476D01*
X188014571Y-112743095D01*
X188109809Y-112790714D01*
X188347904Y-112790714D01*
X188443142Y-112743095D01*
X188490761Y-112695476D01*
X188538380Y-112600238D01*
X188538380Y-112362142D01*
X188490761Y-112266904D01*
X188443142Y-112219285D01*
X176348380Y-90248333D02*
X175872190Y-89915000D01*
X176348380Y-89676904D02*
X175348380Y-89676904D01*
X175348380Y-90057857D01*
X175396000Y-90153095D01*
X175443619Y-90200714D01*
X175538857Y-90248333D01*
X175681714Y-90248333D01*
X175776952Y-90200714D01*
X175824571Y-90153095D01*
X175872190Y-90057857D01*
X175872190Y-89676904D01*
X175348380Y-91105476D02*
X175348380Y-90915000D01*
X175396000Y-90819761D01*
X175443619Y-90772142D01*
X175586476Y-90676904D01*
X175776952Y-90629285D01*
X176157904Y-90629285D01*
X176253142Y-90676904D01*
X176300761Y-90724523D01*
X176348380Y-90819761D01*
X176348380Y-91010238D01*
X176300761Y-91105476D01*
X176253142Y-91153095D01*
X176157904Y-91200714D01*
X175919809Y-91200714D01*
X175824571Y-91153095D01*
X175776952Y-91105476D01*
X175729333Y-91010238D01*
X175729333Y-90819761D01*
X175776952Y-90724523D01*
X175824571Y-90676904D01*
X175919809Y-90629285D01*
X179650380Y-90552083D02*
X179174190Y-90218750D01*
X179650380Y-89980654D02*
X178650380Y-89980654D01*
X178650380Y-90361607D01*
X178698000Y-90456845D01*
X178745619Y-90504464D01*
X178840857Y-90552083D01*
X178983714Y-90552083D01*
X179078952Y-90504464D01*
X179126571Y-90456845D01*
X179174190Y-90361607D01*
X179174190Y-89980654D01*
X178650380Y-90885416D02*
X178650380Y-91552083D01*
X179650380Y-91123511D01*
X179554166Y-88462380D02*
X179887500Y-87986190D01*
X180125595Y-88462380D02*
X180125595Y-87462380D01*
X179744642Y-87462380D01*
X179649404Y-87510000D01*
X179601785Y-87557619D01*
X179554166Y-87652857D01*
X179554166Y-87795714D01*
X179601785Y-87890952D01*
X179649404Y-87938571D01*
X179744642Y-87986190D01*
X180125595Y-87986190D01*
X178982738Y-87890952D02*
X179077976Y-87843333D01*
X179125595Y-87795714D01*
X179173214Y-87700476D01*
X179173214Y-87652857D01*
X179125595Y-87557619D01*
X179077976Y-87510000D01*
X178982738Y-87462380D01*
X178792261Y-87462380D01*
X178697023Y-87510000D01*
X178649404Y-87557619D01*
X178601785Y-87652857D01*
X178601785Y-87700476D01*
X178649404Y-87795714D01*
X178697023Y-87843333D01*
X178792261Y-87890952D01*
X178982738Y-87890952D01*
X179077976Y-87938571D01*
X179125595Y-87986190D01*
X179173214Y-88081428D01*
X179173214Y-88271904D01*
X179125595Y-88367142D01*
X179077976Y-88414761D01*
X178982738Y-88462380D01*
X178792261Y-88462380D01*
X178697023Y-88414761D01*
X178649404Y-88367142D01*
X178601785Y-88271904D01*
X178601785Y-88081428D01*
X178649404Y-87986190D01*
X178697023Y-87938571D01*
X178792261Y-87890952D01*
X173046380Y-90248333D02*
X172570190Y-89915000D01*
X173046380Y-89676904D02*
X172046380Y-89676904D01*
X172046380Y-90057857D01*
X172094000Y-90153095D01*
X172141619Y-90200714D01*
X172236857Y-90248333D01*
X172379714Y-90248333D01*
X172474952Y-90200714D01*
X172522571Y-90153095D01*
X172570190Y-90057857D01*
X172570190Y-89676904D01*
X173046380Y-90724523D02*
X173046380Y-90915000D01*
X172998761Y-91010238D01*
X172951142Y-91057857D01*
X172808285Y-91153095D01*
X172617809Y-91200714D01*
X172236857Y-91200714D01*
X172141619Y-91153095D01*
X172094000Y-91105476D01*
X172046380Y-91010238D01*
X172046380Y-90819761D01*
X172094000Y-90724523D01*
X172141619Y-90676904D01*
X172236857Y-90629285D01*
X172474952Y-90629285D01*
X172570190Y-90676904D01*
X172617809Y-90724523D01*
X172665428Y-90819761D01*
X172665428Y-91010238D01*
X172617809Y-91105476D01*
X172570190Y-91153095D01*
X172474952Y-91200714D01*
X173680357Y-85162380D02*
X174013690Y-84686190D01*
X174251785Y-85162380D02*
X174251785Y-84162380D01*
X173870833Y-84162380D01*
X173775595Y-84210000D01*
X173727976Y-84257619D01*
X173680357Y-84352857D01*
X173680357Y-84495714D01*
X173727976Y-84590952D01*
X173775595Y-84638571D01*
X173870833Y-84686190D01*
X174251785Y-84686190D01*
X172727976Y-85162380D02*
X173299404Y-85162380D01*
X173013690Y-85162380D02*
X173013690Y-84162380D01*
X173108928Y-84305238D01*
X173204166Y-84400476D01*
X173299404Y-84448095D01*
X172108928Y-84162380D02*
X172013690Y-84162380D01*
X171918452Y-84210000D01*
X171870833Y-84257619D01*
X171823214Y-84352857D01*
X171775595Y-84543333D01*
X171775595Y-84781428D01*
X171823214Y-84971904D01*
X171870833Y-85067142D01*
X171918452Y-85114761D01*
X172013690Y-85162380D01*
X172108928Y-85162380D01*
X172204166Y-85114761D01*
X172251785Y-85067142D01*
X172299404Y-84971904D01*
X172347023Y-84781428D01*
X172347023Y-84543333D01*
X172299404Y-84352857D01*
X172251785Y-84257619D01*
X172204166Y-84210000D01*
X172108928Y-84162380D01*
X165172380Y-81675892D02*
X164696190Y-81342559D01*
X165172380Y-81104464D02*
X164172380Y-81104464D01*
X164172380Y-81485416D01*
X164220000Y-81580654D01*
X164267619Y-81628273D01*
X164362857Y-81675892D01*
X164505714Y-81675892D01*
X164600952Y-81628273D01*
X164648571Y-81580654D01*
X164696190Y-81485416D01*
X164696190Y-81104464D01*
X165172380Y-82628273D02*
X165172380Y-82056845D01*
X165172380Y-82342559D02*
X164172380Y-82342559D01*
X164315238Y-82247321D01*
X164410476Y-82152083D01*
X164458095Y-82056845D01*
X165172380Y-83580654D02*
X165172380Y-83009226D01*
X165172380Y-83294940D02*
X164172380Y-83294940D01*
X164315238Y-83199702D01*
X164410476Y-83104464D01*
X164458095Y-83009226D01*
X169559333Y-109918761D02*
X169416476Y-109966380D01*
X169178380Y-109966380D01*
X169083142Y-109918761D01*
X169035523Y-109871142D01*
X168987904Y-109775904D01*
X168987904Y-109680666D01*
X169035523Y-109585428D01*
X169083142Y-109537809D01*
X169178380Y-109490190D01*
X169368857Y-109442571D01*
X169464095Y-109394952D01*
X169511714Y-109347333D01*
X169559333Y-109252095D01*
X169559333Y-109156857D01*
X169511714Y-109061619D01*
X169464095Y-109014000D01*
X169368857Y-108966380D01*
X169130761Y-108966380D01*
X168987904Y-109014000D01*
X168654571Y-108966380D02*
X168416476Y-109966380D01*
X168226000Y-109252095D01*
X168035523Y-109966380D01*
X167797428Y-108966380D01*
X166892666Y-109966380D02*
X167464095Y-109966380D01*
X167178380Y-109966380D02*
X167178380Y-108966380D01*
X167273619Y-109109238D01*
X167368857Y-109204476D01*
X167464095Y-109252095D01*
X160425904Y-101234380D02*
X160425904Y-102043904D01*
X160378285Y-102139142D01*
X160330666Y-102186761D01*
X160235428Y-102234380D01*
X160044952Y-102234380D01*
X159949714Y-102186761D01*
X159902095Y-102139142D01*
X159854476Y-102043904D01*
X159854476Y-101234380D01*
X158854476Y-102234380D02*
X159425904Y-102234380D01*
X159140190Y-102234380D02*
X159140190Y-101234380D01*
X159235428Y-101377238D01*
X159330666Y-101472476D01*
X159425904Y-101520095D01*
X184154380Y-111680666D02*
X184868666Y-111680666D01*
X185011523Y-111633047D01*
X185106761Y-111537809D01*
X185154380Y-111394952D01*
X185154380Y-111299714D01*
X184154380Y-112061619D02*
X184154380Y-112680666D01*
X184535333Y-112347333D01*
X184535333Y-112490190D01*
X184582952Y-112585428D01*
X184630571Y-112633047D01*
X184725809Y-112680666D01*
X184963904Y-112680666D01*
X185059142Y-112633047D01*
X185106761Y-112585428D01*
X185154380Y-112490190D01*
X185154380Y-112204476D01*
X185106761Y-112109238D01*
X185059142Y-112061619D01*
X164732190Y-103536809D02*
X165208380Y-103536809D01*
X164208380Y-103203476D02*
X164732190Y-103536809D01*
X164208380Y-103870142D01*
X165208380Y-104727285D02*
X165208380Y-104155857D01*
X165208380Y-104441571D02*
X164208380Y-104441571D01*
X164351238Y-104346333D01*
X164446476Y-104251095D01*
X164494095Y-104155857D01*
M02*
